Kameron-Bold_Pre-Hint.ufo
<glyph name="exclam" format="1">
  <advance width="687"/>
  <unicode hex="0021"/>
  <outline>
    <contour>
      <point x="186" y="1307" type="line"/>
      <point x="184" y="1286"/>
      <point x="183" y="1211"/>
      <point x="183" y="1190" type="curve" smooth="yes"/>
      <point x="183" y="1046"/>
      <point x="246" y="568"/>
      <point x="274" y="432" type="curve"/>
      <point x="422" y="432" type="line"/>
      <point x="451" y="572"/>
      <point x="515" y="1044"/>
      <point x="515" y="1186" type="curve" smooth="yes"/>
      <point x="515" y="1208"/>
      <point x="514" y="1285"/>
      <point x="512" y="1307" type="curve"/>
    </contour>
    <contour>
      <point x="341" y="231" type="curve" smooth="yes"/>
      <point x="233" y="231"/>
      <point x="168" y="179"/>
      <point x="168" y="110" type="curve" smooth="yes"/>
      <point x="168" y="33"/>
      <point x="231" y="-12"/>
      <point x="341" y="-12" type="curve" smooth="yes"/>
      <point x="451" y="-12"/>
      <point x="513" y="40"/>
      <point x="513" y="110" type="curve" smooth="yes"/>
      <point x="513" y="182"/>
      <point x="444" y="231"/>
    </contour>
  </outline>
</glyph>
<glyph name="quotedbl" format="1">
  <advance width="740"/>
  <unicode hex="0022"/>
  <outline>
    <contour>
      <point x="154" y="888" type="curve"/>
      <point x="284" y="888" type="line"/>
      <point x="339" y="1165"/>
      <point x="350" y="1237"/>
      <point x="350" y="1308" type="curve" smooth="yes"/>
      <point x="350" y="1396"/>
      <point x="287" y="1441"/>
      <point x="223" y="1441" type="curve" smooth="yes"/>
      <point x="155" y="1441"/>
      <point x="87" y="1392"/>
      <point x="87" y="1293" type="curve" smooth="yes"/>
      <point x="87" y="1207"/>
      <point x="131" y="1023"/>
    </contour>
    <contour>
      <point x="485" y="888" type="curve"/>
      <point x="615" y="888" type="line"/>
      <point x="670" y="1165"/>
      <point x="681" y="1237"/>
      <point x="681" y="1308" type="curve" smooth="yes"/>
      <point x="681" y="1396"/>
      <point x="618" y="1441"/>
      <point x="554" y="1441" type="curve" smooth="yes"/>
      <point x="486" y="1441"/>
      <point x="418" y="1392"/>
      <point x="418" y="1293" type="curve" smooth="yes"/>
      <point x="418" y="1207"/>
      <point x="462" y="1023"/>
    </contour>
  </outline>
</glyph>
<glyph name="numbersign" format="1">
  <advance width="1471"/>
  <unicode hex="0023"/>
  <outline>
    <contour>
      <point x="800" y="1428" type="line"/>
      <point x="610" y="1428" type="line"/>
      <point x="493" y="1022" type="line"/>
      <point x="185" y="1022" type="line"/>
      <point x="157" y="842" type="line"/>
      <point x="443" y="842" type="line"/>
      <point x="368" y="573" type="line"/>
      <point x="120" y="573" type="line"/>
      <point x="95" y="391" type="line"/>
      <point x="321" y="391" type="line"/>
      <point x="201" y="-14" type="line"/>
      <point x="390" y="-14" type="line"/>
      <point x="509" y="391" type="line"/>
      <point x="797" y="391" type="line"/>
      <point x="678" y="-14" type="line"/>
      <point x="868" y="-14" type="line"/>
      <point x="987" y="391" type="line"/>
      <point x="1287" y="391" type="line"/>
      <point x="1313" y="573" type="line"/>
      <point x="1036" y="573" type="line"/>
      <point x="1110" y="842" type="line"/>
      <point x="1352" y="842" type="line"/>
      <point x="1377" y="1022" type="line"/>
      <point x="1160" y="1022" type="line"/>
      <point x="1278" y="1428" type="line"/>
      <point x="1090" y="1428" type="line"/>
      <point x="971" y="1022" type="line"/>
      <point x="681" y="1022" type="line"/>
    </contour>
    <contour>
      <point x="924" y="842" type="line"/>
      <point x="847" y="572" type="line"/>
      <point x="555" y="572" type="line"/>
      <point x="631" y="842" type="line"/>
    </contour>
  </outline>
</glyph>
<glyph name="dollar" format="1">
  <advance width="1187"/>
  <unicode hex="0024"/>
  <outline>
    <contour>
      <point x="554" y="1446" type="line"/>
      <point x="554" y="1305" type="line"/>
      <point x="281" y="1290"/>
      <point x="120" y="1155"/>
      <point x="120" y="950" type="curve" smooth="yes"/>
      <point x="120" y="765"/>
      <point x="258" y="639"/>
      <point x="545" y="565" type="curve"/>
      <point x="545" y="119" type="line"/>
      <point x="371" y="135"/>
      <point x="302" y="211"/>
      <point x="298" y="368" type="curve"/>
      <point x="107" y="368" type="line"/>
      <point x="107" y="365"/>
      <point x="107" y="273"/>
      <point x="107" y="119" type="curve"/>
      <point x="209" y="44"/>
      <point x="360" y="1"/>
      <point x="545" y="-8" type="curve"/>
      <point x="545" y="-191" type="line"/>
      <point x="658" y="-191" type="line"/>
      <point x="658" y="-10" type="line"/>
      <point x="958" y="4"/>
      <point x="1109" y="170"/>
      <point x="1109" y="362" type="curve" smooth="yes"/>
      <point x="1109" y="543"/>
      <point x="1005" y="672"/>
      <point x="666" y="763" type="curve"/>
      <point x="666" y="1174" type="line"/>
      <point x="816" y="1159"/>
      <point x="883" y="1082"/>
      <point x="883" y="944" type="curve"/>
      <point x="1069" y="944" type="line"/>
      <point x="1068" y="1193" type="line"/>
      <point x="956" y="1259"/>
      <point x="819" y="1295"/>
      <point x="666" y="1306" type="curve"/>
      <point x="666" y="1446" type="line"/>
    </contour>
    <contour>
      <point x="554" y="1179" type="curve"/>
      <point x="554" y="794" type="line"/>
      <point x="397" y="837"/>
      <point x="327" y="895"/>
      <point x="327" y="993" type="curve" smooth="yes"/>
      <point x="327" y="1104"/>
      <point x="411" y="1168"/>
    </contour>
    <contour>
      <point x="658" y="535" type="curve"/>
      <point x="812" y="496"/>
      <point x="885" y="426"/>
      <point x="885" y="320" type="curve" smooth="yes"/>
      <point x="885" y="195"/>
      <point x="795" y="126"/>
      <point x="658" y="115" type="curve"/>
      <point x="658" y="254"/>
      <point x="658" y="396"/>
    </contour>
  </outline>
</glyph>
<glyph name="percent" format="1">
  <advance width="1797"/>
  <unicode hex="0025"/>
  <outline>
    <contour>
      <point x="396" y="1220" type="curve" smooth="yes"/>
      <point x="492" y="1220"/>
      <point x="529" y="1147"/>
      <point x="529" y="972" type="curve" smooth="yes"/>
      <point x="529" y="794"/>
      <point x="485" y="725"/>
      <point x="396" y="725" type="curve" smooth="yes"/>
      <point x="304" y="725"/>
      <point x="263" y="800"/>
      <point x="263" y="969" type="curve" smooth="yes"/>
      <point x="263" y="1137"/>
      <point x="302" y="1220"/>
    </contour>
    <contour>
      <point x="397" y="1335" type="curve" smooth="yes"/>
      <point x="189" y="1335"/>
      <point x="63" y="1198"/>
      <point x="63" y="972" type="curve" smooth="yes"/>
      <point x="63" y="745"/>
      <point x="185" y="608"/>
      <point x="394" y="608" type="curve" smooth="yes"/>
      <point x="601" y="608"/>
      <point x="727" y="743"/>
      <point x="727" y="972" type="curve" smooth="yes"/>
      <point x="727" y="1192"/>
      <point x="607" y="1335"/>
    </contour>
    <contour>
      <point x="1264" y="1322" type="line"/>
      <point x="374" y="-15" type="line"/>
      <point x="534" y="-15" type="line"/>
      <point x="1423" y="1322" type="line"/>
    </contour>
    <contour>
      <point x="1402" y="588" type="curve" smooth="yes"/>
      <point x="1498" y="588"/>
      <point x="1536" y="514"/>
      <point x="1536" y="339" type="curve" smooth="yes"/>
      <point x="1536" y="165"/>
      <point x="1494" y="93"/>
      <point x="1402" y="93" type="curve" smooth="yes"/>
      <point x="1309" y="93"/>
      <point x="1268" y="169"/>
      <point x="1268" y="336" type="curve" smooth="yes"/>
      <point x="1268" y="504"/>
      <point x="1309" y="588"/>
    </contour>
    <contour>
      <point x="1404" y="703" type="curve" smooth="yes"/>
      <point x="1195" y="703"/>
      <point x="1070" y="567"/>
      <point x="1070" y="339" type="curve" smooth="yes"/>
      <point x="1070" y="113"/>
      <point x="1193" y="-24"/>
      <point x="1401" y="-24" type="curve" smooth="yes"/>
      <point x="1606" y="-24"/>
      <point x="1733" y="110"/>
      <point x="1733" y="337" type="curve" smooth="yes"/>
      <point x="1733" y="564"/>
      <point x="1612" y="703"/>
    </contour>
  </outline>
</glyph>
<glyph name="ampersand" format="1">
  <advance width="1699"/>
  <unicode hex="0026"/>
  <outline>
    <contour>
      <point x="1124" y="1040" type="line"/>
      <point x="1124" y="1040"/>
      <point x="1103" y="856"/>
      <point x="1102" y="842" type="curve"/>
      <point x="605" y="841" type="line"/>
      <point x="533" y="920"/>
      <point x="526" y="982"/>
      <point x="526" y="1036" type="curve" smooth="yes"/>
      <point x="526" y="1140"/>
      <point x="623" y="1201"/>
      <point x="739" y="1201" type="curve" smooth="yes"/>
      <point x="822" y="1201"/>
      <point x="898" y="1156"/>
      <point x="905" y="1058" type="curve"/>
      <point x="1071" y="1073" type="line"/>
      <point x="1065" y="1292" type="line"/>
      <point x="1030" y="1310"/>
      <point x="910" y="1358"/>
      <point x="731" y="1358" type="curve" smooth="yes"/>
      <point x="464" y="1358"/>
      <point x="298" y="1230"/>
      <point x="298" y="1017" type="curve" smooth="yes"/>
      <point x="298" y="953"/>
      <point x="320" y="877"/>
      <point x="388" y="811" type="curve"/>
      <point x="212" y="722"/>
      <point x="100" y="581"/>
      <point x="100" y="397" type="curve" smooth="yes"/>
      <point x="100" y="138"/>
      <point x="318" y="-26"/>
      <point x="680" y="-26" type="curve" smooth="yes"/>
      <point x="847" y="-26"/>
      <point x="988" y="12"/>
      <point x="1125" y="85" type="curve"/>
      <point x="1171" y="10"/>
      <point x="1254" y="-26"/>
      <point x="1376" y="-26" type="curve" smooth="yes"/>
      <point x="1547" y="-26"/>
      <point x="1646" y="45"/>
      <point x="1650" y="244" type="curve" smooth="yes"/>
      <point x="1650" y="246"/>
      <point x="1650" y="272"/>
      <point x="1650" y="275" type="curve"/>
      <point x="1539" y="261" type="line"/>
      <point x="1539" y="199"/>
      <point x="1517" y="168"/>
      <point x="1472" y="168" type="curve" smooth="yes"/>
      <point x="1397" y="168"/>
      <point x="1386" y="226"/>
      <point x="1386" y="342" type="curve" smooth="yes"/>
      <point x="1386" y="703" type="line"/>
      <point x="1630" y="703" type="line"/>
      <point x="1630" y="842" type="line"/>
      <point x="1385" y="842" type="line"/>
      <point x="1385" y="1074" type="line"/>
    </contour>
    <contour>
      <point x="759" y="168" type="curve" smooth="yes"/>
      <point x="505" y="168"/>
      <point x="418" y="291"/>
      <point x="418" y="416" type="curve" smooth="yes"/>
      <point x="418" y="524"/>
      <point x="472" y="628"/>
      <point x="596" y="703" type="curve"/>
      <point x="1080" y="703" type="line"/>
      <point x="1080" y="331" type="line" smooth="yes"/>
      <point x="1080" y="314"/>
      <point x="1080" y="269"/>
      <point x="1082" y="254" type="curve"/>
      <point x="978" y="196"/>
      <point x="870" y="168"/>
    </contour>
  </outline>
</glyph>
<glyph name="quotesingle" format="1">
  <advance width="435"/>
  <unicode hex="0027"/>
  <outline>
    <contour>
      <point x="154" y="888" type="curve"/>
      <point x="284" y="888" type="line"/>
      <point x="339" y="1165"/>
      <point x="350" y="1237"/>
      <point x="350" y="1308" type="curve" smooth="yes"/>
      <point x="350" y="1396"/>
      <point x="287" y="1441"/>
      <point x="223" y="1441" type="curve" smooth="yes"/>
      <point x="155" y="1441"/>
      <point x="87" y="1392"/>
      <point x="87" y="1293" type="curve" smooth="yes"/>
      <point x="87" y="1207"/>
      <point x="131" y="1023"/>
    </contour>
  </outline>
</glyph>
<glyph name="parenleft" format="1">
  <advance width="795"/>
  <unicode hex="0028"/>
  <outline>
    <contour>
      <point x="631" y="1390" type="line"/>
      <point x="281" y="1218"/>
      <point x="128" y="885"/>
      <point x="128" y="555" type="curve" smooth="yes"/>
      <point x="128" y="261"/>
      <point x="256" y="-84"/>
      <point x="633" y="-276" type="curve"/>
      <point x="727" y="-176" type="line"/>
      <point x="519" y="12"/>
      <point x="442" y="249"/>
      <point x="442" y="564" type="curve" smooth="yes"/>
      <point x="442" y="876"/>
      <point x="528" y="1117"/>
      <point x="726" y="1289" type="curve"/>
    </contour>
  </outline>
</glyph>
<glyph name="parenright" format="1">
  <advance width="795"/>
  <unicode hex="0029"/>
  <outline>
    <contour>
      <point x="198" y="1390" type="curve"/>
      <point x="143" y="1375"/>
      <point x="90" y="1359"/>
      <point x="41" y="1343" type="curve"/>
      <point x="258" y="1148"/>
      <point x="353" y="895"/>
      <point x="353" y="567" type="curve" smooth="yes"/>
      <point x="353" y="253"/>
      <point x="273" y="10"/>
      <point x="64" y="-176" type="curve"/>
      <point x="159" y="-276" type="line"/>
      <point x="537" y="-83"/>
      <point x="665" y="258"/>
      <point x="665" y="564" type="curve" smooth="yes"/>
      <point x="665" y="878"/>
      <point x="501" y="1163"/>
    </contour>
  </outline>
</glyph>
<glyph name="asterisk" format="1">
  <advance width="1046"/>
  <unicode hex="002A"/>
  <outline>
    <contour>
      <point x="434" y="591" type="curve"/>
      <point x="434" y="447" type="line"/>
      <point x="628" y="447" type="line"/>
      <point x="624" y="588" type="line"/>
      <point x="595" y="653"/>
      <point x="578" y="720"/>
      <point x="571" y="792" type="curve"/>
      <point x="636" y="739"/>
      <point x="672" y="690"/>
      <point x="709" y="636" type="curve"/>
      <point x="829" y="556" type="line"/>
      <point x="933" y="723" type="line"/>
      <point x="811" y="795" type="line"/>
      <point x="737" y="806"/>
      <point x="669" y="829"/>
      <point x="601" y="864" type="curve"/>
      <point x="673" y="899"/>
      <point x="736" y="913"/>
      <point x="810" y="922" type="curve"/>
      <point x="933" y="996" type="line"/>
      <point x="829" y="1163" type="line"/>
      <point x="711" y="1083" type="line"/>
      <point x="675" y="1033"/>
      <point x="632" y="987"/>
      <point x="573" y="940" type="curve"/>
      <point x="581" y="1008"/>
      <point x="597" y="1069"/>
      <point x="624" y="1131" type="curve"/>
      <point x="628" y="1271" type="line"/>
      <point x="430" y="1271" type="line"/>
      <point x="434" y="1129" type="line"/>
      <point x="460" y="1069"/>
      <point x="483" y="1011"/>
      <point x="493" y="930" type="curve"/>
      <point x="435" y="975"/>
      <point x="387" y="1025"/>
      <point x="347" y="1083" type="curve"/>
      <point x="230" y="1163" type="line"/>
      <point x="125" y="996" type="line"/>
      <point x="250" y="922" type="line"/>
      <point x="315" y="912"/>
      <point x="377" y="901"/>
      <point x="453" y="864" type="curve"/>
      <point x="380" y="827"/>
      <point x="314" y="806"/>
      <point x="248" y="795" type="curve"/>
      <point x="125" y="723" type="line"/>
      <point x="230" y="556" type="line"/>
      <point x="349" y="636" type="line"/>
      <point x="389" y="698"/>
      <point x="429" y="751"/>
      <point x="495" y="801" type="curve"/>
      <point x="486" y="713"/>
      <point x="462" y="653"/>
    </contour>
  </outline>
</glyph>
<glyph name="plus" format="1">
  <advance width="1537"/>
  <unicode hex="002B"/>
  <outline>
    <contour>
      <point x="868" y="1217" type="line"/>
      <point x="669" y="1217" type="line"/>
      <point x="669" y="736" type="line"/>
      <point x="188" y="736" type="line"/>
      <point x="188" y="540" type="line"/>
      <point x="669" y="540" type="line"/>
      <point x="669" y="58" type="line"/>
      <point x="868" y="58" type="line"/>
      <point x="868" y="540" type="line"/>
      <point x="1348" y="540" type="line"/>
      <point x="1348" y="736" type="line"/>
      <point x="868" y="736" type="line"/>
    </contour>
  </outline>
</glyph>
<glyph name="comma" format="1">
  <advance width="646"/>
  <unicode hex="002C"/>
  <outline>
    <contour>
      <point x="171" y="251" type="line"/>
      <point x="144" y="9" type="line"/>
      <point x="220" y="-15" type="line"/>
      <point x="215" y="-57"/>
      <point x="209" y="-156"/>
      <point x="125" y="-171" type="curve"/>
      <point x="197" y="-298" type="line"/>
      <point x="340" y="-282"/>
      <point x="442" y="-163"/>
      <point x="474" y="22" type="curve" smooth="yes"/>
      <point x="514" y="251" type="line"/>
    </contour>
  </outline>
</glyph>
<glyph name="hyphen" format="1">
  <advance width="828"/>
  <unicode hex="002D"/>
  <outline>
    <contour>
      <point x="82" y="592" type="line"/>
      <point x="82" y="327" type="line"/>
      <point x="743" y="327" type="line"/>
      <point x="743" y="592" type="line"/>
    </contour>
  </outline>
</glyph>
<glyph name="period" format="1">
  <advance width="646"/>
  <unicode hex="002E"/>
  <outline>
    <contour>
      <point x="318" y="231" type="curve" smooth="yes"/>
      <point x="211" y="231"/>
      <point x="145" y="179"/>
      <point x="145" y="110" type="curve" smooth="yes"/>
      <point x="145" y="33"/>
      <point x="209" y="-12"/>
      <point x="318" y="-12" type="curve" smooth="yes"/>
      <point x="429" y="-12"/>
      <point x="490" y="40"/>
      <point x="490" y="110" type="curve" smooth="yes"/>
      <point x="490" y="182"/>
      <point x="421" y="231"/>
    </contour>
  </outline>
</glyph>
<glyph name="slash" format="1">
  <advance width="503"/>
  <unicode hex="002F"/>
  <outline>
    <contour>
      <point x="347" y="1322" type="line"/>
      <point x="-49" y="-96" type="line"/>
      <point x="131" y="-96" type="line"/>
      <point x="528" y="1322" type="line"/>
    </contour>
  </outline>
</glyph>
<glyph name="zero" format="1">
  <advance width="1258"/>
  <unicode hex="0030"/>
  <outline>
    <contour>
      <point x="629" y="1139" type="curve" smooth="yes"/>
      <point x="797" y="1139"/>
      <point x="873" y="984"/>
      <point x="873" y="657" type="curve" smooth="yes"/>
      <point x="873" y="332"/>
      <point x="805" y="168"/>
      <point x="629" y="168" type="curve" smooth="yes"/>
      <point x="448" y="168"/>
      <point x="384" y="331"/>
      <point x="384" y="668" type="curve" smooth="yes"/>
      <point x="384" y="978"/>
      <point x="459" y="1139"/>
    </contour>
    <contour>
      <point x="629" y="1333" type="curve" smooth="yes"/>
      <point x="292" y="1333"/>
      <point x="96" y="1085"/>
      <point x="96" y="656" type="curve" smooth="yes"/>
      <point x="96" y="213"/>
      <point x="303" y="-26"/>
      <point x="629" y="-26" type="curve" smooth="yes"/>
      <point x="942" y="-26"/>
      <point x="1161" y="196"/>
      <point x="1161" y="656" type="curve" smooth="yes"/>
      <point x="1161" y="1098"/>
      <point x="955" y="1333"/>
    </contour>
  </outline>
</glyph>
<glyph name="one" format="1">
  <advance width="1258"/>
  <unicode hex="0031"/>
  <outline>
    <contour>
      <point x="602" y="1308" type="line"/>
      <point x="527" y="1230"/>
      <point x="416" y="1168"/>
      <point x="284" y="1147" type="curve"/>
      <point x="284" y="946" type="line"/>
      <point x="345" y="958"/>
      <point x="440" y="991"/>
      <point x="517" y="1034" type="curve"/>
      <point x="517" y="280" type="line" smooth="yes"/>
      <point x="517" y="205"/>
      <point x="515" y="172"/>
      <point x="404" y="172" type="curve" smooth="yes"/>
      <point x="310" y="172" type="line"/>
      <point x="310" y="0" type="line"/>
      <point x="426" y="0"/>
      <point x="513" y="2"/>
      <point x="671" y="2" type="curve"/>
      <point x="805" y="1"/>
      <point x="893" y="0"/>
      <point x="993" y="0" type="curve"/>
      <point x="993" y="172" type="line"/>
      <point x="924" y="172" type="line" smooth="yes"/>
      <point x="797" y="172"/>
      <point x="793" y="192"/>
      <point x="793" y="278" type="curve" smooth="yes"/>
      <point x="793" y="1308" type="line"/>
    </contour>
  </outline>
</glyph>
<glyph name="two" format="1">
  <advance width="1258"/>
  <unicode hex="0032"/>
  <outline>
    <contour>
      <point x="135" y="23" type="curve" smooth="yes"/>
      <point x="135" y="16"/>
      <point x="135" y="6"/>
      <point x="136" y="0" type="curve"/>
      <point x="1089" y="0" type="line"/>
      <point x="1089" y="402" type="line"/>
      <point x="920" y="402" type="line"/>
      <point x="914" y="215"/>
      <point x="907" y="192"/>
      <point x="806" y="192" type="curve" smooth="yes"/>
      <point x="397" y="192" type="line"/>
      <point x="397" y="316"/>
      <point x="522" y="418"/>
      <point x="729" y="543" type="curve" smooth="yes"/>
      <point x="945" y="674"/>
      <point x="1098" y="766"/>
      <point x="1098" y="967" type="curve" smooth="yes"/>
      <point x="1098" y="1196"/>
      <point x="924" y="1334"/>
      <point x="633" y="1334" type="curve" smooth="yes"/>
      <point x="444" y="1334"/>
      <point x="287" y="1296"/>
      <point x="166" y="1204" type="curve"/>
      <point x="165" y="944" type="line"/>
      <point x="365" y="930" type="line"/>
      <point x="370" y="1074"/>
      <point x="420" y="1158"/>
      <point x="594" y="1158" type="curve" smooth="yes"/>
      <point x="726" y="1158"/>
      <point x="811" y="1095"/>
      <point x="811" y="990" type="curve" smooth="yes"/>
      <point x="811" y="894"/>
      <point x="769" y="841"/>
      <point x="593" y="721" type="curve" smooth="yes"/>
      <point x="268" y="503"/>
      <point x="135" y="381"/>
    </contour>
  </outline>
</glyph>
<glyph name="three" format="1">
  <advance width="1258"/>
  <unicode hex="0033"/>
  <outline>
    <contour>
      <point x="117" y="409" type="line"/>
      <point x="125" y="68"/>
      <point x="353" y="-26"/>
      <point x="575" y="-26" type="curve" smooth="yes"/>
      <point x="911" y="-26"/>
      <point x="1112" y="119"/>
      <point x="1112" y="370" type="curve" smooth="yes"/>
      <point x="1112" y="557"/>
      <point x="1002" y="664"/>
      <point x="834" y="700" type="curve"/>
      <point x="985" y="736"/>
      <point x="1070" y="836"/>
      <point x="1070" y="980" type="curve" smooth="yes"/>
      <point x="1070" y="1207"/>
      <point x="893" y="1333"/>
      <point x="596" y="1333" type="curve" smooth="yes"/>
      <point x="410" y="1333"/>
      <point x="254" y="1297"/>
      <point x="146" y="1220" type="curve"/>
      <point x="145" y="954" type="line"/>
      <point x="354" y="948" type="line"/>
      <point x="356" y="1089"/>
      <point x="413" y="1174"/>
      <point x="570" y="1174" type="curve" smooth="yes"/>
      <point x="704" y="1174"/>
      <point x="794" y="1096"/>
      <point x="794" y="980" type="curve" smooth="yes"/>
      <point x="794" y="840"/>
      <point x="694" y="785"/>
      <point x="519" y="767" type="curve"/>
      <point x="519" y="613" type="line"/>
      <point x="703" y="610"/>
      <point x="828" y="544"/>
      <point x="828" y="378" type="curve" smooth="yes"/>
      <point x="828" y="239"/>
      <point x="717" y="168"/>
      <point x="582" y="168" type="curve" smooth="yes"/>
      <point x="414" y="168"/>
      <point x="326" y="246"/>
      <point x="324" y="418" type="curve"/>
    </contour>
  </outline>
</glyph>
<glyph name="four" format="1">
  <advance width="1258"/>
  <unicode hex="0034"/>
  <outline>
    <contour>
      <point x="666" y="1308" type="line"/>
      <point x="89" y="607" type="line"/>
      <point x="102" y="540"/>
      <point x="112" y="471"/>
      <point x="123" y="402" type="curve"/>
      <point x="707" y="402" type="line"/>
      <point x="707" y="232" type="line" smooth="yes"/>
      <point x="707" y="172"/>
      <point x="677" y="158"/>
      <point x="583" y="158" type="curve" smooth="yes"/>
      <point x="507" y="158" type="line"/>
      <point x="507" y="0" type="line"/>
      <point x="597" y="0"/>
      <point x="663" y="2"/>
      <point x="790" y="2" type="curve" smooth="yes"/>
      <point x="890" y="2"/>
      <point x="1081" y="0"/>
      <point x="1130" y="0" type="curve"/>
      <point x="1130" y="158" type="line"/>
      <point x="1073" y="158" type="line" smooth="yes"/>
      <point x="980" y="158"/>
      <point x="968" y="169"/>
      <point x="968" y="239" type="curve" smooth="yes"/>
      <point x="968" y="402" type="line"/>
      <point x="1158" y="402" type="line"/>
      <point x="1158" y="566" type="line"/>
      <point x="968" y="566" type="line"/>
      <point x="968" y="1308" type="line"/>
    </contour>
    <contour>
      <point x="710" y="1130" type="line"/>
      <point x="710" y="563" type="line"/>
      <point x="262" y="563" type="line"/>
    </contour>
  </outline>
</glyph>
<glyph name="five" format="1">
  <advance width="1258"/>
  <unicode hex="0035"/>
  <outline>
    <contour>
      <point x="197" y="1308" type="line"/>
      <point x="197" y="607" type="line"/>
      <point x="361" y="567" type="line"/>
      <point x="414" y="631"/>
      <point x="491" y="666"/>
      <point x="592" y="666" type="curve" smooth="yes"/>
      <point x="745" y="666"/>
      <point x="841" y="575"/>
      <point x="841" y="426" type="curve" smooth="yes"/>
      <point x="841" y="258"/>
      <point x="741" y="168"/>
      <point x="589" y="168" type="curve" smooth="yes"/>
      <point x="443" y="168"/>
      <point x="368" y="226"/>
      <point x="350" y="347" type="curve"/>
      <point x="142" y="342" type="line"/>
      <point x="143" y="97" type="line"/>
      <point x="275" y="18"/>
      <point x="435" y="-26"/>
      <point x="609" y="-26" type="curve" smooth="yes"/>
      <point x="927" y="-26"/>
      <point x="1128" y="138"/>
      <point x="1128" y="433" type="curve" smooth="yes"/>
      <point x="1128" y="695"/>
      <point x="945" y="863"/>
      <point x="671" y="863" type="curve" smooth="yes"/>
      <point x="561" y="863"/>
      <point x="469" y="835"/>
      <point x="388" y="780" type="curve"/>
      <point x="388" y="781"/>
      <point x="401" y="1130"/>
      <point x="401" y="1130" type="curve"/>
      <point x="871" y="1130" type="line" smooth="yes"/>
      <point x="893" y="1130"/>
      <point x="893" y="1112"/>
      <point x="893" y="1069" type="curve"/>
      <point x="1067" y="1069" type="line"/>
      <point x="1067" y="1308" type="line"/>
    </contour>
  </outline>
</glyph>
<glyph name="six" format="1">
  <advance width="1258"/>
  <unicode hex="0036"/>
  <outline>
    <contour>
      <point x="700" y="1334" type="curve" smooth="yes"/>
      <point x="309" y="1334"/>
      <point x="127" y="1054"/>
      <point x="127" y="635" type="curve" smooth="yes"/>
      <point x="127" y="185"/>
      <point x="345" y="-25"/>
      <point x="661" y="-25" type="curve" smooth="yes"/>
      <point x="959" y="-25"/>
      <point x="1163" y="162"/>
      <point x="1163" y="432" type="curve" smooth="yes"/>
      <point x="1163" y="685"/>
      <point x="993" y="865"/>
      <point x="733" y="865" type="curve" smooth="yes"/>
      <point x="607" y="865"/>
      <point x="490" y="819"/>
      <point x="407" y="733" type="curve"/>
      <point x="413" y="1021"/>
      <point x="491" y="1179"/>
      <point x="690" y="1179" type="curve" smooth="yes"/>
      <point x="842" y="1179"/>
      <point x="915" y="1124"/>
      <point x="926" y="994" type="curve"/>
      <point x="1121" y="1005" type="line"/>
      <point x="1111" y="1231" type="line"/>
      <point x="1008" y="1295"/>
      <point x="878" y="1334"/>
    </contour>
    <contour>
      <point x="657" y="690" type="curve" smooth="yes"/>
      <point x="806" y="690"/>
      <point x="888" y="584"/>
      <point x="888" y="414" type="curve" smooth="yes"/>
      <point x="888" y="255"/>
      <point x="801" y="168"/>
      <point x="656" y="168" type="curve" smooth="yes"/>
      <point x="504" y="168"/>
      <point x="410" y="268"/>
      <point x="410" y="444" type="curve" smooth="yes"/>
      <point x="410" y="500"/>
      <point x="420" y="552"/>
      <point x="440" y="594" type="curve"/>
      <point x="500" y="655"/>
      <point x="578" y="690"/>
    </contour>
  </outline>
</glyph>
<glyph name="seven" format="1">
  <advance width="1258"/>
  <unicode hex="0037"/>
  <outline>
    <contour>
      <point x="185" y="916" type="line"/>
      <point x="352" y="916" type="line"/>
      <point x="352" y="1026" type="line" smooth="yes"/>
      <point x="352" y="1117"/>
      <point x="385" y="1129"/>
      <point x="520" y="1129" type="curve" smooth="yes"/>
      <point x="893" y="1129" type="line"/>
      <point x="635" y="803"/>
      <point x="420" y="381"/>
      <point x="364" y="0" type="curve"/>
      <point x="676" y="0" type="line"/>
      <point x="710" y="253"/>
      <point x="836" y="669"/>
      <point x="1121" y="1109" type="curve"/>
      <point x="1121" y="1308" type="line"/>
      <point x="185" y="1308" type="line"/>
    </contour>
  </outline>
</glyph>
<glyph name="eight" format="1">
  <advance width="1258"/>
  <unicode hex="0038"/>
  <outline>
    <contour>
      <point x="865" y="691" type="curve"/>
      <point x="1035" y="743"/>
      <point x="1122" y="840"/>
      <point x="1122" y="991" type="curve" smooth="yes"/>
      <point x="1122" y="1206"/>
      <point x="932" y="1335"/>
      <point x="625" y="1335" type="curve" smooth="yes"/>
      <point x="324" y="1335"/>
      <point x="142" y="1203"/>
      <point x="142" y="984" type="curve" smooth="yes"/>
      <point x="142" y="839"/>
      <point x="230" y="734"/>
      <point x="389" y="690" type="curve"/>
      <point x="190" y="624"/>
      <point x="97" y="516"/>
      <point x="97" y="354" type="curve" smooth="yes"/>
      <point x="97" y="120"/>
      <point x="278" y="-25"/>
      <point x="624" y="-25" type="curve" smooth="yes"/>
      <point x="1004" y="-25"/>
      <point x="1159" y="140"/>
      <point x="1159" y="356" type="curve" smooth="yes"/>
      <point x="1159" y="526"/>
      <point x="1069" y="635"/>
    </contour>
    <contour>
      <point x="630" y="168" type="curve"/>
      <point x="469" y="168"/>
      <point x="358" y="234"/>
      <point x="358" y="365" type="curve" smooth="yes"/>
      <point x="358" y="497"/>
      <point x="450" y="585"/>
      <point x="628" y="626" type="curve"/>
      <point x="816" y="579"/>
      <point x="910" y="484"/>
      <point x="910" y="366" type="curve" smooth="yes"/>
      <point x="910" y="228"/>
      <point x="777" y="169"/>
    </contour>
    <contour>
      <point x="634" y="1149" type="curve"/>
      <point x="749" y="1148"/>
      <point x="852" y="1110"/>
      <point x="852" y="994" type="curve" smooth="yes"/>
      <point x="852" y="887"/>
      <point x="781" y="813"/>
      <point x="635" y="771" type="curve"/>
      <point x="482" y="818"/>
      <point x="404" y="893"/>
      <point x="404" y="1001" type="curve" smooth="yes"/>
      <point x="404" y="1105"/>
      <point x="513" y="1149"/>
    </contour>
  </outline>
</glyph>
<glyph name="nine" format="1">
  <advance width="1258"/>
  <unicode hex="0039"/>
  <outline>
    <contour>
      <point x="597" y="-25" type="curve" smooth="yes"/>
      <point x="968" y="-25"/>
      <point x="1140" y="254"/>
      <point x="1140" y="669" type="curve" smooth="yes"/>
      <point x="1140" y="1127"/>
      <point x="923" y="1333"/>
      <point x="606" y="1333" type="curve" smooth="yes"/>
      <point x="307" y="1333"/>
      <point x="105" y="1155"/>
      <point x="105" y="881" type="curve" smooth="yes"/>
      <point x="105" y="625"/>
      <point x="275" y="447"/>
      <point x="537" y="447" type="curve" smooth="yes"/>
      <point x="668" y="447"/>
      <point x="783" y="492"/>
      <point x="865" y="582" type="curve"/>
      <point x="862" y="287"/>
      <point x="785" y="134"/>
      <point x="578" y="134" type="curve" smooth="yes"/>
      <point x="443" y="134"/>
      <point x="381" y="184"/>
      <point x="367" y="315" type="curve"/>
      <point x="165" y="304" type="line"/>
      <point x="166" y="102" type="line"/>
      <point x="276" y="17"/>
      <point x="424" y="-25"/>
    </contour>
    <contour>
      <point x="610" y="1139" type="curve" smooth="yes"/>
      <point x="769" y="1139"/>
      <point x="857" y="1026"/>
      <point x="857" y="850" type="curve"/>
      <point x="855" y="798"/>
      <point x="850" y="749"/>
      <point x="843" y="710" type="curve"/>
      <point x="778" y="652"/>
      <point x="700" y="622"/>
      <point x="607" y="622" type="curve" smooth="yes"/>
      <point x="460" y="622"/>
      <point x="379" y="730"/>
      <point x="379" y="892" type="curve" smooth="yes"/>
      <point x="379" y="1047"/>
      <point x="463" y="1139"/>
    </contour>
  </outline>
</glyph>
<glyph name="colon" format="1">
  <advance width="663"/>
  <unicode hex="003A"/>
  <outline>
    <contour>
      <point x="330" y="231" type="curve" smooth="yes"/>
      <point x="223" y="231"/>
      <point x="158" y="179"/>
      <point x="158" y="111" type="curve" smooth="yes"/>
      <point x="158" y="34"/>
      <point x="221" y="-12"/>
      <point x="330" y="-12" type="curve" smooth="yes"/>
      <point x="441" y="-12"/>
      <point x="503" y="41"/>
      <point x="503" y="111" type="curve" smooth="yes"/>
      <point x="503" y="182"/>
      <point x="434" y="231"/>
    </contour>
    <contour>
      <point x="330" y="903" type="curve" smooth="yes"/>
      <point x="223" y="903"/>
      <point x="158" y="851"/>
      <point x="158" y="782" type="curve" smooth="yes"/>
      <point x="158" y="705"/>
      <point x="221" y="660"/>
      <point x="330" y="660" type="curve" smooth="yes"/>
      <point x="441" y="660"/>
      <point x="503" y="712"/>
      <point x="503" y="782" type="curve" smooth="yes"/>
      <point x="503" y="854"/>
      <point x="434" y="903"/>
    </contour>
  </outline>
</glyph>
<glyph name="semicolon" format="1">
  <advance width="663"/>
  <unicode hex="003B"/>
  <outline>
    <contour>
      <point x="170" y="251" type="line"/>
      <point x="143" y="9" type="line"/>
      <point x="219" y="-15" type="line"/>
      <point x="214" y="-57"/>
      <point x="208" y="-156"/>
      <point x="124" y="-171" type="curve"/>
      <point x="196" y="-298" type="line"/>
      <point x="339" y="-282"/>
      <point x="441" y="-163"/>
      <point x="473" y="22" type="curve" smooth="yes"/>
      <point x="513" y="251" type="line"/>
    </contour>
    <contour>
      <point x="340" y="903" type="curve" smooth="yes"/>
      <point x="232" y="903"/>
      <point x="167" y="851"/>
      <point x="167" y="782" type="curve" smooth="yes"/>
      <point x="167" y="705"/>
      <point x="231" y="660"/>
      <point x="340" y="660" type="curve" smooth="yes"/>
      <point x="450" y="660"/>
      <point x="512" y="712"/>
      <point x="512" y="782" type="curve" smooth="yes"/>
      <point x="512" y="854"/>
      <point x="443" y="903"/>
    </contour>
  </outline>
</glyph>
<glyph name="less" format="1">
  <advance width="1536"/>
  <unicode hex="003C"/>
  <outline>
    <contour>
      <point x="1343" y="986" type="line"/>
      <point x="1343" y="1200" type="line"/>
      <point x="192" y="728" type="line"/>
      <point x="192" y="548" type="line"/>
      <point x="1343" y="77" type="line"/>
      <point x="1343" y="290" type="line"/>
      <point x="471" y="638" type="line"/>
    </contour>
  </outline>
</glyph>
<glyph name="equal" format="1">
  <advance width="1536"/>
  <unicode hex="003D"/>
  <outline>
    <contour>
      <point x="1348" y="518" type="line"/>
      <point x="187" y="518" type="line"/>
      <point x="187" y="322" type="line"/>
      <point x="1348" y="322" type="line"/>
    </contour>
    <contour>
      <point x="1348" y="956" type="line"/>
      <point x="187" y="956" type="line"/>
      <point x="187" y="759" type="line"/>
      <point x="1348" y="759" type="line"/>
    </contour>
  </outline>
</glyph>
<glyph name="greater" format="1">
  <advance width="1536"/>
  <unicode hex="003E"/>
  <outline>
    <contour>
      <point x="1343" y="728" type="line"/>
      <point x="192" y="1200" type="line"/>
      <point x="192" y="986" type="line"/>
      <point x="1064" y="638" type="line"/>
      <point x="192" y="290" type="line"/>
      <point x="192" y="77" type="line"/>
      <point x="1343" y="548" type="line"/>
    </contour>
  </outline>
</glyph>
<glyph name="question" format="1">
  <advance width="1082"/>
  <unicode hex="003F"/>
  <outline>
    <contour>
      <point x="606" y="495" type="line"/>
      <point x="805" y="646"/>
      <point x="1028" y="752"/>
      <point x="1028" y="990" type="curve" smooth="yes"/>
      <point x="1028" y="1184"/>
      <point x="880" y="1335"/>
      <point x="519" y="1335" type="curve" smooth="yes"/>
      <point x="356" y="1335"/>
      <point x="214" y="1298"/>
      <point x="97" y="1230" type="curve"/>
      <point x="75" y="955" type="line"/>
      <point x="286" y="955" type="line"/>
      <point x="286" y="1114"/>
      <point x="373" y="1187"/>
      <point x="507" y="1187" type="curve" smooth="yes"/>
      <point x="633" y="1187"/>
      <point x="734" y="1111"/>
      <point x="734" y="978" type="curve" smooth="yes"/>
      <point x="734" y="698"/>
      <point x="376" y="787"/>
      <point x="376" y="531" type="curve"/>
      <point x="376" y="511"/>
      <point x="383" y="446"/>
      <point x="394" y="415" type="curve"/>
      <point x="596" y="415" type="line"/>
    </contour>
    <contour>
      <point x="495" y="231" type="curve" smooth="yes"/>
      <point x="388" y="231"/>
      <point x="323" y="179"/>
      <point x="323" y="110" type="curve" smooth="yes"/>
      <point x="323" y="33"/>
      <point x="386" y="-12"/>
      <point x="495" y="-12" type="curve" smooth="yes"/>
      <point x="606" y="-12"/>
      <point x="667" y="40"/>
      <point x="667" y="110" type="curve" smooth="yes"/>
      <point x="667" y="182"/>
      <point x="599" y="231"/>
    </contour>
  </outline>
</glyph>
<glyph name="at" format="1">
  <advance width="1720"/>
  <unicode hex="0040"/>
  <outline>
    <contour>
      <point x="1177" y="57" type="curve" smooth="yes"/>
      <point x="1392" y="57"/>
      <point x="1666" y="321"/>
      <point x="1666" y="697" type="curve" smooth="yes"/>
      <point x="1666" y="1074"/>
      <point x="1415" y="1396"/>
      <point x="934" y="1396" type="curve" smooth="yes"/>
      <point x="406" y="1396"/>
      <point x="50" y="988"/>
      <point x="50" y="518" type="curve" smooth="yes"/>
      <point x="50" y="50"/>
      <point x="399" y="-307"/>
      <point x="907" y="-307" type="curve" smooth="yes"/>
      <point x="1162" y="-307"/>
      <point x="1415" y="-191"/>
      <point x="1589" y="-27" type="curve"/>
      <point x="1482" y="-6" type="line"/>
      <point x="1302" y="-147"/>
      <point x="1115" y="-215"/>
      <point x="905" y="-215" type="curve" smooth="yes"/>
      <point x="491" y="-215"/>
      <point x="181" y="67"/>
      <point x="181" y="502" type="curve" smooth="yes"/>
      <point x="181" y="951"/>
      <point x="480" y="1304"/>
      <point x="943" y="1304" type="curve" smooth="yes"/>
      <point x="1322" y="1304"/>
      <point x="1571" y="1066"/>
      <point x="1571" y="705" type="curve" smooth="yes"/>
      <point x="1571" y="473"/>
      <point x="1482" y="306"/>
      <point x="1350" y="210" type="curve" smooth="yes"/>
      <point x="1297" y="171"/>
      <point x="1248" y="150"/>
      <point x="1207" y="150" type="curve" smooth="yes"/>
      <point x="1163" y="150"/>
      <point x="1142" y="176"/>
      <point x="1142" y="223" type="curve" smooth="yes"/>
      <point x="1142" y="253"/>
      <point x="1154" y="300"/>
      <point x="1163" y="347" type="curve"/>
      <point x="1305" y="994" type="line"/>
      <point x="1152" y="994" type="line"/>
      <point x="1115" y="842" type="line"/>
      <point x="1066" y="956"/>
      <point x="997" y="1019"/>
      <point x="886" y="1019" type="curve" smooth="yes"/>
      <point x="603" y="1019"/>
      <point x="416" y="687"/>
      <point x="416" y="437" type="curve" smooth="yes"/>
      <point x="416" y="213"/>
      <point x="540" y="61"/>
      <point x="717" y="61" type="curve" smooth="yes"/>
      <point x="829" y="61"/>
      <point x="914" y="115"/>
      <point x="1002" y="231" type="curve"/>
      <point x="1004" y="232"/>
      <point x="1006" y="233"/>
      <point x="1007" y="235" type="curve"/>
      <point x="1010" y="114"/>
      <point x="1063" y="57"/>
    </contour>
    <contour>
      <point x="1056" y="727" type="curve" smooth="yes"/>
      <point x="1056" y="497"/>
      <point x="934" y="151"/>
      <point x="745" y="151" type="curve" smooth="yes"/>
      <point x="646" y="151"/>
      <point x="587" y="239"/>
      <point x="587" y="372" type="curve" smooth="yes"/>
      <point x="587" y="593"/>
      <point x="713" y="927"/>
      <point x="897" y="927" type="curve" smooth="yes"/>
      <point x="998" y="927"/>
      <point x="1056" y="842"/>
    </contour>
  </outline>
</glyph>
<glyph name="A" format="1">
  <advance width="1455.0"/>
  <unicode hex="0041"/>
  <outline>
    <contour>
      <point x="1.0" y="0.0" type="line"/>
      <point x="92.0" y="1.0"/>
      <point x="155.0" y="2.0"/>
      <point x="249.0" y="2.0" type="curve" smooth="yes"/>
      <point x="344.0" y="2.0"/>
      <point x="425.0" y="0.0"/>
      <point x="506.0" y="0.0" type="curve"/>
      <point x="506.0" y="164.0" type="line"/>
      <point x="496.0" y="164.0"/>
      <point x="442.0" y="164.0"/>
      <point x="434.0" y="165.0" type="curve" smooth="yes"/>
      <point x="392.0" y="166.0"/>
      <point x="375.0" y="174.0"/>
      <point x="375.0" y="203.0" type="curve" smooth="yes"/>
      <point x="375.0" y="212.0"/>
      <point x="379.0" y="228.0"/>
      <point x="385.0" y="247.0" type="curve" smooth="yes"/>
      <point x="390.0" y="269.0"/>
      <point x="448.0" y="435.0"/>
      <point x="457.0" y="463.0" type="curve"/>
      <point x="918.0" y="463.0" type="line"/>
      <point x="982.0" y="274.0" type="line" smooth="yes"/>
      <point x="992.0" y="243.0"/>
      <point x="1000.0" y="220.0"/>
      <point x="1000.0" y="204.0" type="curve" smooth="yes"/>
      <point x="1000.0" y="178.0"/>
      <point x="979.0" y="168.0"/>
      <point x="916.0" y="166.0" type="curve" smooth="yes"/>
      <point x="908.0" y="165.0"/>
      <point x="874.0" y="165.0"/>
      <point x="864.0" y="165.0" type="curve"/>
      <point x="864.0" y="0.0" type="line"/>
      <point x="991.0" y="1.0"/>
      <point x="1097.0" y="2.0"/>
      <point x="1211.0" y="2.0" type="curve" smooth="yes"/>
      <point x="1309.0" y="2.0"/>
      <point x="1375.0" y="0.0"/>
      <point x="1454.0" y="0.0" type="curve"/>
      <point x="1454.0" y="177.0" type="line"/>
      <point x="1319.0" y="180.0"/>
      <point x="1327.0" y="199.0"/>
      <point x="1261.0" y="382.0" type="curve" smooth="yes"/>
      <point x="1229.0" y="470.0"/>
      <point x="918.0" y="1308.0"/>
      <point x="918.0" y="1308.0" type="curve"/>
      <point x="531.0" y="1308.0" type="line"/>
      <point x="485.0" y="1130.0" type="line"/>
      <point x="442.0" y="1023.0"/>
      <point x="188.0" y="370.0"/>
      <point x="146.0" y="268.0" type="curve" smooth="yes"/>
      <point x="113.0" y="187.0"/>
      <point x="97.0" y="188.0"/>
      <point x="1.0" y="178.0" type="curve"/>
    </contour>
    <contour>
      <point x="503.0" y="593.0" type="line"/>
      <point x="693.0" y="1119.0" type="line"/>
      <point x="872.0" y="593.0" type="line"/>
    </contour>
  </outline>
</glyph>
<glyph name="B" format="1">
  <advance width="1421"/>
  <unicode hex="0042"/>
  <outline>
    <contour>
      <point x="73" y="1308" type="line"/>
      <point x="73" y="1130" type="line"/>
      <point x="86" y="1130"/>
      <point x="122" y="1130"/>
      <point x="131" y="1129" type="curve" smooth="yes"/>
      <point x="219" y="1128"/>
      <point x="220" y="1061"/>
      <point x="220" y="1011" type="curve" smooth="yes"/>
      <point x="220" y="274" type="line" smooth="yes"/>
      <point x="220" y="213"/>
      <point x="216" y="178"/>
      <point x="125" y="178" type="curve" smooth="yes"/>
      <point x="73" y="178" type="line"/>
      <point x="73" y="0" type="line"/>
      <point x="781" y="0" type="line" smooth="yes"/>
      <point x="1203" y="0"/>
      <point x="1337" y="151"/>
      <point x="1337" y="362" type="curve" smooth="yes"/>
      <point x="1337" y="534"/>
      <point x="1227" y="651"/>
      <point x="1041" y="689" type="curve"/>
      <point x="1198" y="721"/>
      <point x="1285" y="841"/>
      <point x="1285" y="975" type="curve" smooth="yes"/>
      <point x="1285" y="1188"/>
      <point x="1153" y="1308"/>
      <point x="711" y="1308" type="curve" smooth="yes"/>
    </contour>
    <contour>
      <point x="546" y="595" type="line"/>
      <point x="656" y="595" type="line" smooth="yes"/>
      <point x="900" y="595"/>
      <point x="992" y="531"/>
      <point x="992" y="382" type="curve" smooth="yes"/>
      <point x="992" y="247"/>
      <point x="895" y="182"/>
      <point x="711" y="182" type="curve" smooth="yes"/>
      <point x="546" y="182" type="line"/>
    </contour>
    <contour>
      <point x="546" y="1125" type="line"/>
      <point x="696" y="1125" type="line" smooth="yes"/>
      <point x="882" y="1125"/>
      <point x="955" y="1057"/>
      <point x="955" y="938" type="curve" smooth="yes"/>
      <point x="955" y="810"/>
      <point x="872" y="745"/>
      <point x="706" y="745" type="curve" smooth="yes"/>
      <point x="546" y="745" type="line"/>
    </contour>
  </outline>
</glyph>
<glyph name="C" format="1">
  <advance width="1446"/>
  <unicode hex="0043"/>
  <outline>
    <contour>
      <point x="835" y="168" type="curve" smooth="yes"/>
      <point x="606" y="168"/>
      <point x="470" y="348"/>
      <point x="470" y="657" type="curve" smooth="yes"/>
      <point x="470" y="973"/>
      <point x="606" y="1139"/>
      <point x="832" y="1139" type="curve" smooth="yes"/>
      <point x="1017" y="1139"/>
      <point x="1118" y="1047"/>
      <point x="1128" y="896" type="curve"/>
      <point x="1333" y="895" type="line"/>
      <point x="1333" y="1305" type="line"/>
      <point x="1111" y="1305" type="line"/>
      <point x="1106" y="1219" type="line"/>
      <point x="1035" y="1289"/>
      <point x="892" y="1333"/>
      <point x="768" y="1333" type="curve" smooth="yes"/>
      <point x="358" y="1333"/>
      <point x="109" y="1052"/>
      <point x="109" y="654" type="curve" smooth="yes"/>
      <point x="109" y="275"/>
      <point x="315" y="-26"/>
      <point x="801" y="-26" type="curve" smooth="yes"/>
      <point x="1006" y="-26"/>
      <point x="1184" y="19"/>
      <point x="1340" y="124" type="curve"/>
      <point x="1355" y="428" type="line"/>
      <point x="1151" y="472" type="line"/>
      <point x="1140" y="248"/>
      <point x="1039" y="168"/>
    </contour>
  </outline>
</glyph>
<glyph name="D" format="1">
  <advance width="1584"/>
  <unicode hex="0044"/>
  <outline>
    <contour>
      <point x="65" y="1308" type="line"/>
      <point x="65" y="1131" type="line"/>
      <point x="76" y="1131"/>
      <point x="106" y="1131"/>
      <point x="114" y="1131" type="curve" smooth="yes"/>
      <point x="189" y="1130"/>
      <point x="203" y="1090"/>
      <point x="203" y="1035" type="curve" smooth="yes"/>
      <point x="203" y="1035"/>
      <point x="204" y="304"/>
      <point x="204" y="288" type="curve" smooth="yes"/>
      <point x="204" y="225"/>
      <point x="198" y="178"/>
      <point x="114" y="178" type="curve" smooth="yes"/>
      <point x="65" y="178" type="line"/>
      <point x="65" y="0" type="line"/>
      <point x="647" y="0" type="line" smooth="yes"/>
      <point x="1145" y="0"/>
      <point x="1469" y="162"/>
      <point x="1469" y="661" type="curve" smooth="yes"/>
      <point x="1469" y="1093"/>
      <point x="1193" y="1308"/>
      <point x="625" y="1308" type="curve" smooth="yes"/>
    </contour>
    <contour>
      <point x="531" y="1114" type="line"/>
      <point x="674" y="1114" type="line" smooth="yes"/>
      <point x="971" y="1114"/>
      <point x="1114" y="977"/>
      <point x="1114" y="665" type="curve" smooth="yes"/>
      <point x="1114" y="334"/>
      <point x="968" y="194"/>
      <point x="675" y="194" type="curve" smooth="yes"/>
      <point x="531" y="194" type="line"/>
    </contour>
  </outline>
</glyph>
<glyph name="E" format="1">
  <advance width="1316"/>
  <unicode hex="0045"/>
  <outline>
    <contour>
      <point x="72" y="1308" type="line"/>
      <point x="72" y="1132" type="line"/>
      <point x="142" y="1132" type="line" smooth="yes"/>
      <point x="216" y="1132"/>
      <point x="215" y="1071"/>
      <point x="215" y="1011" type="curve" smooth="yes"/>
      <point x="215" y="291" type="line" smooth="yes"/>
      <point x="215" y="231"/>
      <point x="211" y="178"/>
      <point x="142" y="178" type="curve" smooth="yes"/>
      <point x="68" y="178" type="line"/>
      <point x="68" y="0" type="line"/>
      <point x="1215" y="0" type="line"/>
      <point x="1215" y="386" type="line"/>
      <point x="1022" y="386" type="line"/>
      <point x="1022" y="381"/>
      <point x="1022" y="359"/>
      <point x="1022" y="354" type="curve" smooth="yes"/>
      <point x="1021" y="213"/>
      <point x="988" y="194"/>
      <point x="890" y="194" type="curve" smooth="yes"/>
      <point x="541" y="194" type="line"/>
      <point x="541" y="583" type="line"/>
      <point x="738" y="583" type="line" smooth="yes"/>
      <point x="796" y="583"/>
      <point x="817" y="575"/>
      <point x="832" y="489" type="curve"/>
      <point x="918" y="489" type="line"/>
      <point x="918" y="843" type="line"/>
      <point x="833" y="843" type="line"/>
      <point x="819" y="755"/>
      <point x="797" y="749"/>
      <point x="738" y="749" type="curve" smooth="yes"/>
      <point x="541" y="749" type="line"/>
      <point x="541" y="1112" type="line"/>
      <point x="876" y="1112" type="line" smooth="yes"/>
      <point x="961" y="1112"/>
      <point x="1016" y="1113"/>
      <point x="1016" y="985" type="curve" smooth="yes"/>
      <point x="1016" y="944" type="line"/>
      <point x="1211" y="944" type="line"/>
      <point x="1211" y="1308" type="line"/>
    </contour>
  </outline>
</glyph>
<glyph name="F" format="1">
  <advance width="1213"/>
  <unicode hex="0046"/>
  <outline>
    <contour>
      <point x="55" y="1308" type="line"/>
      <point x="55" y="1131" type="line"/>
      <point x="120" y="1131" type="line" smooth="yes"/>
      <point x="209" y="1131"/>
      <point x="212" y="1103"/>
      <point x="212" y="1016" type="curve" smooth="yes"/>
      <point x="212" y="294" type="line" smooth="yes"/>
      <point x="212" y="190"/>
      <point x="193" y="178"/>
      <point x="120" y="178" type="curve" smooth="yes"/>
      <point x="53" y="178" type="line"/>
      <point x="53" y="0" type="line"/>
      <point x="146" y="0"/>
      <point x="214" y="2"/>
      <point x="344" y="2" type="curve"/>
      <point x="493" y="1"/>
      <point x="588" y="0"/>
      <point x="702" y="0" type="curve"/>
      <point x="702" y="178" type="line"/>
      <point x="641" y="178" type="line" smooth="yes"/>
      <point x="563" y="178"/>
      <point x="539" y="189"/>
      <point x="539" y="261" type="curve" smooth="yes"/>
      <point x="539" y="582" type="line"/>
      <point x="718" y="582" type="line" smooth="yes"/>
      <point x="783" y="582"/>
      <point x="807" y="574"/>
      <point x="816" y="500" type="curve"/>
      <point x="891" y="500" type="line"/>
      <point x="891" y="831" type="line"/>
      <point x="816" y="831" type="line"/>
      <point x="808" y="748"/>
      <point x="781" y="748"/>
      <point x="715" y="748" type="curve" smooth="yes"/>
      <point x="539" y="748" type="line"/>
      <point x="539" y="1112" type="line"/>
      <point x="878" y="1112" type="line" smooth="yes"/>
      <point x="944" y="1112"/>
      <point x="1002" y="1109"/>
      <point x="1002" y="982" type="curve" smooth="yes"/>
      <point x="1002" y="934" type="line"/>
      <point x="1196" y="934" type="line"/>
      <point x="1196" y="1308" type="line"/>
    </contour>
  </outline>
</glyph>
<glyph name="G" format="1">
  <advance width="1554"/>
  <unicode hex="0047"/>
  <outline>
    <contour>
      <point x="1368" y="1304" type="line"/>
      <point x="1145" y="1304" type="line"/>
      <point x="1141" y="1211" type="line"/>
      <point x="1054" y="1293"/>
      <point x="910" y="1333"/>
      <point x="772" y="1333" type="curve" smooth="yes"/>
      <point x="392" y="1333"/>
      <point x="100" y="1069"/>
      <point x="100" y="656" type="curve" smooth="yes"/>
      <point x="100" y="305"/>
      <point x="297" y="-26"/>
      <point x="851" y="-26" type="curve" smooth="yes"/>
      <point x="1009" y="-26"/>
      <point x="1178" y="5"/>
      <point x="1326" y="102" type="curve"/>
      <point x="1334" y="211"/>
      <point x="1349" y="406"/>
      <point x="1349" y="439" type="curve" smooth="yes"/>
      <point x="1350" y="489"/>
      <point x="1375" y="499"/>
      <point x="1477" y="512" type="curve"/>
      <point x="1477" y="547"/>
      <point x="1479" y="622"/>
      <point x="1479" y="657" type="curve"/>
      <point x="1383" y="655"/>
      <point x="1295" y="655"/>
      <point x="1224" y="655" type="curve" smooth="yes"/>
      <point x="1106" y="655"/>
      <point x="1009" y="657"/>
      <point x="899" y="657" type="curve"/>
      <point x="899" y="504" type="line"/>
      <point x="962" y="504" type="line" smooth="yes"/>
      <point x="1068" y="504"/>
      <point x="1097" y="509"/>
      <point x="1097" y="436" type="curve" smooth="yes"/>
      <point x="1097" y="275" type="line"/>
      <point x="1097" y="206"/>
      <point x="1004" y="168"/>
      <point x="876" y="168" type="curve" smooth="yes"/>
      <point x="606" y="168"/>
      <point x="463" y="339"/>
      <point x="463" y="650" type="curve" smooth="yes"/>
      <point x="463" y="951"/>
      <point x="595" y="1139"/>
      <point x="848" y="1139" type="curve" smooth="yes"/>
      <point x="1018" y="1139"/>
      <point x="1128" y="1058"/>
      <point x="1164" y="906" type="curve"/>
      <point x="1368" y="906" type="line"/>
    </contour>
  </outline>
</glyph>
<glyph name="I" format="1">
  <advance width="761"/>
  <unicode hex="0049"/>
  <outline>
    <contour>
      <point x="75" y="1308" type="curve"/>
      <point x="75" y="1130" type="line"/>
      <point x="115" y="1130" type="line" smooth="yes"/>
      <point x="217" y="1130"/>
      <point x="219" y="1092"/>
      <point x="219" y="1015" type="curve" smooth="yes"/>
      <point x="219" y="290" type="line" smooth="yes"/>
      <point x="219" y="215"/>
      <point x="219" y="178"/>
      <point x="115" y="178" type="curve" smooth="yes"/>
      <point x="75" y="178" type="line"/>
      <point x="75" y="0" type="line"/>
      <point x="170" y="0"/>
      <point x="256" y="2"/>
      <point x="379" y="2" type="curve" smooth="yes"/>
      <point x="511" y="2"/>
      <point x="592" y="0"/>
      <point x="691" y="0" type="curve"/>
      <point x="691" y="178" type="line"/>
      <point x="649" y="178" type="line" smooth="yes"/>
      <point x="549" y="178"/>
      <point x="546" y="197"/>
      <point x="546" y="269" type="curve" smooth="yes"/>
      <point x="546" y="1035" type="line" smooth="yes"/>
      <point x="546" y="1093"/>
      <point x="554" y="1130"/>
      <point x="649" y="1130" type="curve" smooth="yes"/>
      <point x="691" y="1130" type="line"/>
      <point x="691" y="1308" type="line"/>
      <point x="585" y="1306"/>
      <point x="506" y="1306"/>
      <point x="346" y="1306" type="curve" smooth="yes"/>
      <point x="268" y="1306"/>
      <point x="195" y="1306"/>
    </contour>
  </outline>
</glyph>
<glyph name="J" format="1">
  <advance width="864"/>
  <unicode hex="004A"/>
  <outline>
    <contour>
      <point x="180" y="1308" type="line"/>
      <point x="180" y="1130" type="line"/>
      <point x="253" y="1130" type="line" smooth="yes"/>
      <point x="335" y="1130"/>
      <point x="337" y="1082"/>
      <point x="337" y="1024" type="curve" smooth="yes"/>
      <point x="337" y="684"/>
      <point x="337" y="339"/>
      <point x="337" y="324" type="curve" smooth="yes"/>
      <point x="337" y="150"/>
      <point x="327" y="-10"/>
      <point x="196" y="-17" type="curve"/>
      <point x="153" y="-17"/>
      <point x="130" y="9"/>
      <point x="112" y="89" type="curve"/>
      <point x="96" y="89"/>
      <point x="36" y="94"/>
      <point x="18" y="95" type="curve"/>
      <point x="18" y="-210" type="line"/>
      <point x="88" y="-224"/>
      <point x="151" y="-236"/>
      <point x="231" y="-236" type="curve" smooth="yes"/>
      <point x="563" y="-236"/>
      <point x="665" y="-113"/>
      <point x="665" y="269" type="curve" smooth="yes"/>
      <point x="665" y="269"/>
      <point x="665" y="999"/>
      <point x="665" y="1009" type="curve" smooth="yes"/>
      <point x="665" y="1085"/>
      <point x="669" y="1130"/>
      <point x="764" y="1130" type="curve" smooth="yes"/>
      <point x="813" y="1130" type="line"/>
      <point x="813" y="1308" type="line"/>
      <point x="706" y="1306"/>
      <point x="590" y="1306"/>
      <point x="538" y="1306" type="curve" smooth="yes"/>
      <point x="418" y="1306"/>
      <point x="331" y="1307"/>
      <point x="221" y="1308" type="curve" smooth="yes"/>
    </contour>
  </outline>
</glyph>
<glyph name="K" format="1">
  <advance width="1510"/>
  <unicode hex="004B"/>
  <outline>
    <contour>
      <point x="529" y="682" type="line"/>
      <point x="529" y="682"/>
      <point x="529" y="1008"/>
      <point x="529" y="1020" type="curve" smooth="yes"/>
      <point x="529" y="1074"/>
      <point x="534" y="1130"/>
      <point x="628" y="1130" type="curve" smooth="yes"/>
      <point x="685" y="1130" type="line"/>
      <point x="685" y="1308" type="line"/>
      <point x="578" y="1307"/>
      <point x="415" y="1305"/>
      <point x="334" y="1305" type="curve" smooth="yes"/>
      <point x="255" y="1304"/>
      <point x="179" y="1307"/>
      <point x="59" y="1308" type="curve"/>
      <point x="59" y="1130" type="line"/>
      <point x="104" y="1130" type="line" smooth="yes"/>
      <point x="198" y="1130"/>
      <point x="202" y="1083"/>
      <point x="202" y="1022" type="curve" smooth="yes"/>
      <point x="202" y="281" type="line" smooth="yes"/>
      <point x="202" y="223"/>
      <point x="200" y="178"/>
      <point x="104" y="178" type="curve" smooth="yes"/>
      <point x="59" y="178" type="line"/>
      <point x="59" y="0" type="line"/>
      <point x="90" y="0"/>
      <point x="324" y="1"/>
      <point x="366" y="1" type="curve" smooth="yes"/>
      <point x="412" y="1"/>
      <point x="641" y="0"/>
      <point x="673" y="0" type="curve"/>
      <point x="673" y="178" type="line"/>
      <point x="627" y="178" type="line" smooth="yes"/>
      <point x="531" y="178"/>
      <point x="529" y="217"/>
      <point x="529" y="280" type="curve" smooth="yes"/>
      <point x="529" y="538" type="line"/>
      <point x="590" y="587" type="line"/>
      <point x="926" y="220" type="line" smooth="yes"/>
      <point x="940" y="204"/>
      <point x="948" y="194"/>
      <point x="948" y="187" type="curve" smooth="yes"/>
      <point x="948" y="180"/>
      <point x="936" y="178"/>
      <point x="911" y="178" type="curve" smooth="yes"/>
      <point x="831" y="178" type="line"/>
      <point x="831" y="0" type="line"/>
      <point x="859" y="0"/>
      <point x="1109" y="1"/>
      <point x="1151" y="1" type="curve" smooth="yes"/>
      <point x="1197" y="1"/>
      <point x="1442" y="0"/>
      <point x="1474" y="0" type="curve"/>
      <point x="1474" y="178" type="line"/>
      <point x="1467" y="178"/>
      <point x="1426" y="178"/>
      <point x="1419" y="179" type="curve" smooth="yes"/>
      <point x="1340" y="186"/>
      <point x="1288" y="221"/>
      <point x="1250" y="261" type="curve" smooth="yes"/>
      <point x="801" y="728" type="line"/>
      <point x="1142" y="1029" type="line"/>
      <point x="1235" y="1111"/>
      <point x="1281" y="1126"/>
      <point x="1390" y="1129" type="curve" smooth="yes"/>
      <point x="1401" y="1130"/>
      <point x="1437" y="1130"/>
      <point x="1450" y="1130" type="curve"/>
      <point x="1450" y="1307" type="line"/>
      <point x="1156" y="1306" type="line" smooth="yes"/>
      <point x="1123" y="1305"/>
      <point x="881" y="1306"/>
      <point x="849" y="1307" type="curve"/>
      <point x="849" y="1130" type="line"/>
      <point x="953" y="1130" type="line" smooth="yes"/>
      <point x="983" y="1130"/>
      <point x="1002" y="1130"/>
      <point x="1002" y="1120" type="curve" smooth="yes"/>
      <point x="1002" y="1114"/>
      <point x="995" y="1105"/>
      <point x="979" y="1091" type="curve" smooth="yes"/>
    </contour>
  </outline>
</glyph>
<glyph name="L" format="1">
  <advance width="1190"/>
  <unicode hex="004C"/>
  <outline>
    <contour>
      <point x="66" y="1308" type="curve"/>
      <point x="66" y="1130" type="line"/>
      <point x="113" y="1130" type="line" smooth="yes"/>
      <point x="204" y="1130"/>
      <point x="213" y="1082"/>
      <point x="213" y="1028" type="curve" smooth="yes"/>
      <point x="213" y="1015"/>
      <point x="213" y="1001"/>
      <point x="213" y="989" type="curve" smooth="yes"/>
      <point x="213" y="292" type="line" smooth="yes"/>
      <point x="213" y="228"/>
      <point x="210" y="178"/>
      <point x="113" y="178" type="curve" smooth="yes"/>
      <point x="66" y="178" type="line"/>
      <point x="66" y="0" type="line"/>
      <point x="1154" y="0" type="line"/>
      <point x="1154" y="444" type="line"/>
      <point x="971" y="444" type="line"/>
      <point x="970" y="284"/>
      <point x="965" y="197"/>
      <point x="863" y="197" type="curve" smooth="yes"/>
      <point x="540" y="197" type="line"/>
      <point x="540" y="197"/>
      <point x="539" y="1003"/>
      <point x="539" y="1016" type="curve" smooth="yes"/>
      <point x="539" y="1072"/>
      <point x="544" y="1130"/>
      <point x="634" y="1130" type="curve" smooth="yes"/>
      <point x="699" y="1130" type="line"/>
      <point x="699" y="1308" type="line"/>
      <point x="539" y="1306"/>
      <point x="427" y="1305"/>
      <point x="299" y="1305" type="curve" smooth="yes"/>
      <point x="236" y="1305"/>
      <point x="86" y="1307"/>
    </contour>
  </outline>
</glyph>
<glyph name="M" format="1">
  <advance width="1940"/>
  <unicode hex="004D"/>
  <outline>
    <contour>
      <point x="77" y="1308" type="curve"/>
      <point x="77" y="1130" type="line"/>
      <point x="124" y="1130" type="line" smooth="yes"/>
      <point x="202" y="1130"/>
      <point x="215" y="1103"/>
      <point x="215" y="1039" type="curve" smooth="yes"/>
      <point x="214" y="287" type="line" smooth="yes"/>
      <point x="211" y="218"/>
      <point x="217" y="178"/>
      <point x="120" y="178" type="curve" smooth="yes"/>
      <point x="71" y="178" type="line"/>
      <point x="71" y="0" type="line"/>
      <point x="152" y="0"/>
      <point x="216" y="2"/>
      <point x="328" y="2" type="curve" smooth="yes"/>
      <point x="433" y="2"/>
      <point x="497" y="0"/>
      <point x="573" y="0" type="curve"/>
      <point x="573" y="178" type="line"/>
      <point x="525" y="178" type="line" smooth="yes"/>
      <point x="449" y="178"/>
      <point x="435" y="188"/>
      <point x="435" y="267" type="curve" smooth="yes"/>
      <point x="435" y="1146" type="line"/>
      <point x="436" y="1146"/>
      <point x="492" y="989"/>
      <point x="492" y="989" type="curve" smooth="yes"/>
      <point x="540" y="859"/>
      <point x="791" y="129"/>
      <point x="840" y="0" type="curve"/>
      <point x="1024" y="0" type="line"/>
      <point x="1378" y="992" type="line"/>
      <point x="1378" y="992"/>
      <point x="1435" y="1149"/>
      <point x="1435" y="1149" type="curve"/>
      <point x="1435" y="306" type="line" smooth="yes"/>
      <point x="1435" y="225"/>
      <point x="1425" y="178"/>
      <point x="1335" y="178" type="curve" smooth="yes"/>
      <point x="1294" y="178" type="line"/>
      <point x="1294" y="0" type="line"/>
      <point x="1375" y="0"/>
      <point x="1434" y="2"/>
      <point x="1548" y="2" type="curve" smooth="yes"/>
      <point x="1680" y="2"/>
      <point x="1769" y="0"/>
      <point x="1869" y="0" type="curve"/>
      <point x="1869" y="178" type="line"/>
      <point x="1820" y="178" type="line" smooth="yes"/>
      <point x="1739" y="178"/>
      <point x="1729" y="198"/>
      <point x="1729" y="270" type="curve" smooth="yes"/>
      <point x="1729" y="270"/>
      <point x="1728" y="1054"/>
      <point x="1728" y="1061" type="curve" smooth="yes"/>
      <point x="1728" y="1106"/>
      <point x="1732" y="1130"/>
      <point x="1815" y="1130" type="curve" smooth="yes"/>
      <point x="1866" y="1130" type="line"/>
      <point x="1866" y="1308" type="line"/>
      <point x="1838" y="1307"/>
      <point x="1673" y="1306"/>
      <point x="1608" y="1306" type="curve" smooth="yes"/>
      <point x="1527" y="1306"/>
      <point x="1374" y="1307"/>
      <point x="1278" y="1308" type="curve"/>
      <point x="1234" y="1159"/>
      <point x="1008" y="528"/>
      <point x="972" y="392" type="curve"/>
      <point x="971" y="392"/>
      <point x="668" y="1308"/>
      <point x="668" y="1308" type="curve"/>
      <point x="568" y="1307"/>
      <point x="440" y="1306"/>
      <point x="367" y="1306" type="curve" smooth="yes"/>
      <point x="285" y="1306"/>
      <point x="114" y="1307"/>
    </contour>
  </outline>
</glyph>
<glyph name="N" format="1">
  <advance width="1543"/>
  <unicode hex="004E"/>
  <outline>
    <contour>
      <point x="1021" y="-14" type="line"/>
      <point x="1350" y="-14" type="line"/>
      <point x="1350" y="-14"/>
      <point x="1349" y="1015"/>
      <point x="1350" y="1026" type="curve"/>
      <point x="1350" y="1088"/>
      <point x="1350" y="1130"/>
      <point x="1440" y="1130" type="curve" smooth="yes"/>
      <point x="1491" y="1130" type="line"/>
      <point x="1491" y="1308" type="line"/>
      <point x="1491" y="1308"/>
      <point x="1266" y="1306"/>
      <point x="1226" y="1306" type="curve" smooth="yes"/>
      <point x="1161" y="1306"/>
      <point x="1082" y="1308"/>
      <point x="983" y="1308" type="curve"/>
      <point x="983" y="1130" type="line"/>
      <point x="1029" y="1130" type="line" smooth="yes"/>
      <point x="1112" y="1130"/>
      <point x="1129" y="1120"/>
      <point x="1129" y="1046" type="curve" smooth="yes"/>
      <point x="1130" y="345" type="line"/>
      <point x="1130" y="345"/>
      <point x="557.0" y="1308.0"/>
      <point x="557" y="1308" type="curve"/>
      <point x="532" y="1308"/>
      <point x="343" y="1307"/>
      <point x="319" y="1308" type="curve" smooth="yes"/>
      <point x="306" y="1308"/>
      <point x="54" y="1308"/>
      <point x="54" y="1308" type="curve"/>
      <point x="54" y="1297"/>
      <point x="54" y="1140"/>
      <point x="54" y="1130" type="curve"/>
      <point x="106" y="1130" type="line" smooth="yes"/>
      <point x="195" y="1130"/>
      <point x="200" y="1108"/>
      <point x="200" y="1029" type="curve" smooth="yes"/>
      <point x="200" y="292" type="line" smooth="yes"/>
      <point x="200" y="215"/>
      <point x="202" y="178"/>
      <point x="104" y="178" type="curve" smooth="yes"/>
      <point x="52" y="178" type="line"/>
      <point x="52" y="0" type="line"/>
      <point x="137" y="0"/>
      <point x="206" y="2"/>
      <point x="320" y="2" type="curve" smooth="yes"/>
      <point x="423" y="2"/>
      <point x="495" y="0"/>
      <point x="571" y="0" type="curve"/>
      <point x="571" y="178" type="line"/>
      <point x="522" y="178" type="line" smooth="yes"/>
      <point x="434" y="178"/>
      <point x="419" y="184"/>
      <point x="419" y="266" type="curve" smooth="yes"/>
      <point x="418" y="988" type="line"/>
      <point x="418" y="988"/>
      <point x="419" y="988"/>
      <point x="420" y="988" type="curve"/>
    </contour>
  </outline>
</glyph>
<glyph name="O" format="1">
  <advance width="1575"/>
  <unicode hex="004F"/>
  <outline>
    <contour>
      <point x="788" y="1139" type="curve" smooth="yes"/>
      <point x="1008" y="1139"/>
      <point x="1113" y="968"/>
      <point x="1113" y="656" type="curve" smooth="yes"/>
      <point x="1113" y="351"/>
      <point x="1012" y="168"/>
      <point x="788" y="168" type="curve" smooth="yes"/>
      <point x="568" y="168"/>
      <point x="463" y="346"/>
      <point x="463" y="657" type="curve" smooth="yes"/>
      <point x="463" y="957"/>
      <point x="559" y="1139"/>
    </contour>
    <contour>
      <point x="789" y="1333" type="curve" smooth="yes"/>
      <point x="343" y="1333"/>
      <point x="100" y="1036"/>
      <point x="100" y="655" type="curve" smooth="yes"/>
      <point x="100" y="269"/>
      <point x="349" y="-26"/>
      <point x="792" y="-26" type="curve" smooth="yes"/>
      <point x="1229" y="-26"/>
      <point x="1475" y="274"/>
      <point x="1475" y="655" type="curve" smooth="yes"/>
      <point x="1475" y="1037"/>
      <point x="1228" y="1333"/>
    </contour>
  </outline>
</glyph>
<glyph name="P" format="1">
  <advance width="1353"/>
  <unicode hex="0050"/>
  <outline>
    <contour>
      <point x="69" y="1308" type="line"/>
      <point x="69" y="1130" type="line"/>
      <point x="78" y="1130"/>
      <point x="117" y="1130"/>
      <point x="124" y="1130" type="curve" smooth="yes"/>
      <point x="220" y="1129"/>
      <point x="224" y="1084"/>
      <point x="224" y="1021" type="curve" smooth="yes"/>
      <point x="224" y="293" type="line" smooth="yes"/>
      <point x="224" y="195"/>
      <point x="219" y="178"/>
      <point x="119" y="178" type="curve" smooth="yes"/>
      <point x="69" y="178" type="line"/>
      <point x="69" y="0" type="line"/>
      <point x="174" y="0"/>
      <point x="273" y="2"/>
      <point x="409" y="2" type="curve" smooth="yes"/>
      <point x="533" y="2"/>
      <point x="613" y="0"/>
      <point x="705" y="0" type="curve"/>
      <point x="705" y="178" type="line"/>
      <point x="655" y="178" type="line" smooth="yes"/>
      <point x="571" y="178"/>
      <point x="552" y="188"/>
      <point x="552" y="273" type="curve" smooth="yes"/>
      <point x="552" y="539" type="line"/>
      <point x="751" y="539" type="line" smooth="yes"/>
      <point x="1166" y="539"/>
      <point x="1297" y="693"/>
      <point x="1297" y="920" type="curve" smooth="yes"/>
      <point x="1297" y="1150"/>
      <point x="1145" y="1308"/>
      <point x="754" y="1308" type="curve" smooth="yes"/>
    </contour>
    <contour>
      <point x="552" y="1127" type="line"/>
      <point x="696" y="1127" type="line" smooth="yes"/>
      <point x="890" y="1127"/>
      <point x="965" y="1059"/>
      <point x="965" y="922" type="curve" smooth="yes"/>
      <point x="965" y="783"/>
      <point x="879" y="715"/>
      <point x="714" y="715" type="curve" smooth="yes"/>
      <point x="552" y="715" type="line"/>
    </contour>
  </outline>
</glyph>
<glyph name="Q" format="1">
  <advance width="1575"/>
  <unicode hex="0051"/>
  <outline>
    <contour>
      <point x="1274" y="-349" type="curve" smooth="yes"/>
      <point x="1287" y="-349"/>
      <point x="1301" y="-349"/>
      <point x="1315" y="-348" type="curve"/>
      <point x="1382" y="-127" type="line"/>
      <point x="1104" y="-127"/>
      <point x="1030" y="-57"/>
      <point x="875" y="-20" type="curve" smooth="yes"/>
      <point x="874" y="-20"/>
      <point x="872" y="-18"/>
      <point x="871" y="-18" type="curve"/>
      <point x="1267" y="15"/>
      <point x="1475" y="317"/>
      <point x="1475" y="656" type="curve" smooth="yes"/>
      <point x="1475" y="1037"/>
      <point x="1225" y="1333"/>
      <point x="790" y="1333" type="curve" smooth="yes"/>
      <point x="349" y="1333"/>
      <point x="100" y="1038"/>
      <point x="100" y="655" type="curve" smooth="yes"/>
      <point x="100" y="301"/>
      <point x="309" y="36"/>
      <point x="647" y="-13" type="curve"/>
      <point x="585" y="-18"/>
      <point x="540" y="-34"/>
      <point x="502" y="-80" type="curve"/>
      <point x="573" y="-207" type="line"/>
      <point x="597" y="-180"/>
      <point x="638" y="-168"/>
      <point x="679" y="-168" type="curve"/>
      <point x="871" y="-168"/>
      <point x="1040" y="-349"/>
    </contour>
    <contour>
      <point x="788" y="168" type="curve" smooth="yes"/>
      <point x="566" y="168"/>
      <point x="463" y="350"/>
      <point x="463" y="658" type="curve" smooth="yes"/>
      <point x="463" y="949"/>
      <point x="559" y="1139"/>
      <point x="788" y="1139" type="curve" smooth="yes"/>
      <point x="1007" y="1139"/>
      <point x="1113" y="962"/>
      <point x="1113" y="657" type="curve" smooth="yes"/>
      <point x="1113" y="353"/>
      <point x="1011" y="168"/>
    </contour>
  </outline>
</glyph>
<glyph name="R" format="1">
  <advance width="1474"/>
  <unicode hex="0052"/>
  <outline>
    <contour>
      <point x="1201" y="362" type="curve"/>
      <point x="1175" y="546"/>
      <point x="1105" y="611"/>
      <point x="1025" y="649" type="curve"/>
      <point x="1192" y="687"/>
      <point x="1292" y="803"/>
      <point x="1292" y="948" type="curve" smooth="yes"/>
      <point x="1292" y="1258"/>
      <point x="1000" y="1308"/>
      <point x="709" y="1308" type="curve" smooth="yes"/>
      <point x="70" y="1308" type="line"/>
      <point x="70" y="1130" type="line"/>
      <point x="76" y="1130"/>
      <point x="92" y="1130"/>
      <point x="97" y="1130" type="curve" smooth="yes"/>
      <point x="212" y="1130"/>
      <point x="216" y="1101"/>
      <point x="216" y="1027" type="curve" smooth="yes"/>
      <point x="216" y="280" type="line" smooth="yes"/>
      <point x="216" y="213"/>
      <point x="218" y="178"/>
      <point x="102" y="178" type="curve" smooth="yes"/>
      <point x="70" y="178" type="line"/>
      <point x="70" y="0" type="line"/>
      <point x="162" y="0"/>
      <point x="237" y="2"/>
      <point x="366" y="2" type="curve"/>
      <point x="497" y="1"/>
      <point x="587" y="0"/>
      <point x="686" y="0" type="curve"/>
      <point x="686" y="178" type="line"/>
      <point x="642" y="178" type="line" smooth="yes"/>
      <point x="563" y="178"/>
      <point x="543" y="188"/>
      <point x="543" y="250" type="curve" smooth="yes"/>
      <point x="544" y="587" type="line"/>
      <point x="631" y="587" type="line" smooth="yes"/>
      <point x="705" y="587"/>
      <point x="754" y="579"/>
      <point x="790" y="550" type="curve"/>
      <point x="823" y="504"/>
      <point x="851" y="435"/>
      <point x="871" y="329" type="curve"/>
      <point x="917" y="90"/>
      <point x="1009" y="-26"/>
      <point x="1215" y="-26" type="curve" smooth="yes"/>
      <point x="1387.74067803" y="-26.0"/>
      <point x="1494.0" y="80.9146612075"/>
      <point x="1494" y="270" type="curve"/>
      <point x="1378" y="256" type="line"/>
      <point x="1378" y="193"/>
      <point x="1353" y="168"/>
      <point x="1307" y="168" type="curve" smooth="yes"/>
      <point x="1242" y="168"/>
      <point x="1224" y="228"/>
    </contour>
    <contour>
      <point x="543" y="1125" type="line"/>
      <point x="668" y="1125" type="line" smooth="yes"/>
      <point x="859" y="1125"/>
      <point x="960" y="1085"/>
      <point x="960" y="927" type="curve" smooth="yes"/>
      <point x="960" y="779"/>
      <point x="877" y="732"/>
      <point x="698" y="732" type="curve" smooth="yes"/>
      <point x="543" y="732" type="line"/>
    </contour>
  </outline>
</glyph>
<glyph name="S" format="1">
  <advance width="1199"/>
  <unicode hex="0053"/>
  <outline>
    <contour>
      <point x="1064" y="1308" type="line"/>
      <point x="999" y="1308"/>
      <point x="892" y="1309"/>
      <point x="877" y="1309" type="curve" smooth="yes"/>
      <point x="877" y="1309"/>
      <point x="878" y="1264"/>
      <point x="878" y="1228" type="curve"/>
      <point x="776" y="1309"/>
      <point x="655" y="1333"/>
      <point x="536" y="1333" type="curve" smooth="yes"/>
      <point x="260" y="1333"/>
      <point x="98" y="1171"/>
      <point x="98" y="961" type="curve" smooth="yes"/>
      <point x="98" y="794"/>
      <point x="198" y="682"/>
      <point x="409" y="595" type="curve" smooth="yes"/>
      <point x="604" y="515"/>
      <point x="806" y="477"/>
      <point x="806" y="324" type="curve" smooth="yes"/>
      <point x="806" y="211"/>
      <point x="716" y="146"/>
      <point x="580" y="146" type="curve" smooth="yes"/>
      <point x="402" y="146"/>
      <point x="329" y="223"/>
      <point x="302" y="358" type="curve" smooth="yes"/>
      <point x="298" y="373"/>
      <point x="294" y="389"/>
      <point x="290" y="406" type="curve"/>
      <point x="98" y="406" type="line"/>
      <point x="98" y="0" type="line"/>
      <point x="113" y="0"/>
      <point x="244" y="0"/>
      <point x="317" y="0" type="curve"/>
      <point x="317" y="98" type="line"/>
      <point x="397" y="21"/>
      <point x="532" y="-26"/>
      <point x="666" y="-26" type="curve" smooth="yes"/>
      <point x="944" y="-26"/>
      <point x="1113" y="153"/>
      <point x="1113" y="363" type="curve" smooth="yes"/>
      <point x="1113" y="561"/>
      <point x="983" y="663"/>
      <point x="829" y="728" type="curve" smooth="yes"/>
      <point x="594" y="829"/>
      <point x="393" y="860"/>
      <point x="393" y="1011" type="curve" smooth="yes"/>
      <point x="393" y="1109"/>
      <point x="475" y="1176"/>
      <point x="605" y="1176" type="curve" smooth="yes"/>
      <point x="765" y="1176"/>
      <point x="837" y="1111"/>
      <point x="860" y="992" type="curve" smooth="yes"/>
      <point x="864" y="976"/>
      <point x="867" y="960"/>
      <point x="872" y="943" type="curve"/>
      <point x="1064" y="943" type="line"/>
    </contour>
  </outline>
</glyph>
<glyph name="T" format="1">
  <advance width="1324"/>
  <unicode hex="0054"/>
  <outline>
    <contour>
      <point x="57" y="1308" type="curve"/>
      <point x="57" y="866" type="line"/>
      <point x="214" y="866" type="line"/>
      <point x="213" y="907"/>
      <point x="213" y="1005"/>
      <point x="213" y="1033" type="curve" smooth="yes"/>
      <point x="213" y="1095"/>
      <point x="230" y="1111"/>
      <point x="340" y="1111" type="curve" smooth="yes"/>
      <point x="500" y="1111" type="line"/>
      <point x="500" y="291" type="line" smooth="yes"/>
      <point x="500" y="237"/>
      <point x="502" y="178"/>
      <point x="404" y="178" type="curve" smooth="yes"/>
      <point x="348" y="178" type="line"/>
      <point x="348" y="0" type="line"/>
      <point x="443" y="0"/>
      <point x="575" y="2"/>
      <point x="667" y="2" type="curve"/>
      <point x="802" y="1"/>
      <point x="880" y="0"/>
      <point x="979" y="0" type="curve"/>
      <point x="979" y="178" type="line"/>
      <point x="923" y="178" type="line" smooth="yes"/>
      <point x="834" y="178"/>
      <point x="827" y="225"/>
      <point x="827" y="255" type="curve" smooth="yes"/>
      <point x="827" y="1111" type="line"/>
      <point x="952" y="1111" type="line" smooth="yes"/>
      <point x="1097" y="1111"/>
      <point x="1109" y="1094"/>
      <point x="1109" y="1001" type="curve" smooth="yes"/>
      <point x="1109" y="866" type="line"/>
      <point x="1267" y="866" type="line"/>
      <point x="1267" y="1308" type="line"/>
      <point x="1159" y="1308"/>
      <point x="1016" y="1306"/>
      <point x="901" y="1306" type="curve" smooth="yes"/>
      <point x="523" y="1306" type="line"/>
      <point x="394" y="1306"/>
      <point x="57" y="1308"/>
    </contour>
  </outline>
</glyph>
<glyph name="U" format="1">
  <advance width="1411"/>
  <unicode hex="0055"/>
  <outline>
    <contour>
      <point x="47" y="1308" type="curve"/>
      <point x="47" y="1130" type="line"/>
      <point x="90" y="1130" type="line" smooth="yes"/>
      <point x="173" y="1130"/>
      <point x="178" y="1083"/>
      <point x="178" y="1053" type="curve" smooth="yes"/>
      <point x="178" y="493" type="line" smooth="yes"/>
      <point x="178" y="141"/>
      <point x="333" y="-26"/>
      <point x="712" y="-26" type="curve" smooth="yes"/>
      <point x="1088" y="-26"/>
      <point x="1235" y="155"/>
      <point x="1235" y="500" type="curve" smooth="yes"/>
      <point x="1235" y="1018" type="line" smooth="yes"/>
      <point x="1235" y="1060"/>
      <point x="1227" y="1130"/>
      <point x="1320" y="1130" type="curve" smooth="yes"/>
      <point x="1367" y="1130" type="line"/>
      <point x="1367" y="1308" type="line"/>
      <point x="1281" y="1307"/>
      <point x="1178" y="1306"/>
      <point x="1135" y="1306" type="curve" smooth="yes"/>
      <point x="1059" y="1306"/>
      <point x="903" y="1306"/>
      <point x="867" y="1308" type="curve"/>
      <point x="867" y="1130" type="line"/>
      <point x="903" y="1130" type="line" smooth="yes"/>
      <point x="1000" y="1130"/>
      <point x="1004" y="1076"/>
      <point x="1004" y="1026" type="curve" smooth="yes"/>
      <point x="1004" y="484" type="line" smooth="yes"/>
      <point x="1004" y="276"/>
      <point x="953" y="168"/>
      <point x="766" y="168" type="curve" smooth="yes"/>
      <point x="560" y="168"/>
      <point x="502" y="284"/>
      <point x="502" y="497" type="curve" smooth="yes"/>
      <point x="502" y="1018" type="line" smooth="yes"/>
      <point x="502" y="1075"/>
      <point x="505" y="1130"/>
      <point x="600" y="1130" type="curve" smooth="yes"/>
      <point x="633" y="1130" type="line"/>
      <point x="633" y="1308" type="line"/>
      <point x="505" y="1306"/>
      <point x="411" y="1305"/>
      <point x="308" y="1305" type="curve" smooth="yes"/>
      <point x="233" y="1305"/>
      <point x="88" y="1307"/>
    </contour>
  </outline>
</glyph>
<glyph name="V" format="1">
  <advance width="1404"/>
  <unicode hex="0056"/>
  <outline>
    <contour>
      <point x="453" y="1043" type="curve"/>
      <point x="447" y="1059"/>
      <point x="445" y="1072"/>
      <point x="445" y="1081" type="curve" smooth="yes"/>
      <point x="445" y="1129"/>
      <point x="505" y="1128"/>
      <point x="582" y="1130" type="curve"/>
      <point x="582" y="1308" type="line"/>
      <point x="582" y="1308"/>
      <point x="273" y="1305"/>
      <point x="205" y="1305" type="curve" smooth="yes"/>
      <point x="147" y="1305"/>
      <point x="25" y="1307"/>
      <point x="3" y="1308" type="curve"/>
      <point x="3" y="1130" type="line"/>
      <point x="105" y="1130"/>
      <point x="123" y="1081"/>
      <point x="159" y="991" type="curve" smooth="yes"/>
      <point x="563" y="-15" type="line"/>
      <point x="864" y="-15" type="line"/>
      <point x="1202" y="882" type="line" smooth="yes"/>
      <point x="1272" y="1068"/>
      <point x="1288" y="1130"/>
      <point x="1401" y="1130" type="curve"/>
      <point x="1401" y="1308" type="line"/>
      <point x="1308" y="1306"/>
      <point x="1232" y="1306"/>
      <point x="1156" y="1306" type="curve" smooth="yes"/>
      <point x="1108" y="1306"/>
      <point x="902" y="1308"/>
      <point x="902" y="1308" type="curve"/>
      <point x="902" y="1130" type="line"/>
      <point x="908" y="1129"/>
      <point x="937" y="1129"/>
      <point x="943" y="1129" type="curve" smooth="yes"/>
      <point x="1009" y="1127"/>
      <point x="1040" y="1121"/>
      <point x="1040" y="1088" type="curve" smooth="yes"/>
      <point x="1040" y="1077"/>
      <point x="1035" y="1061"/>
      <point x="1028" y="1040" type="curve" smooth="yes"/>
      <point x="749" y="258" type="line"/>
      <point x="730" y="307"/>
      <point x="470" y="992"/>
    </contour>
  </outline>
</glyph>
<glyph name="W" format="1">
  <advance width="2022"/>
  <unicode hex="0057"/>
  <outline>
    <contour>
      <point x="454" y="-15" type="line"/>
      <point x="771" y="-15" type="line"/>
      <point x="1013" y="982" type="line"/>
      <point x="1253" y="-15" type="line"/>
      <point x="1561" y="-15" type="line"/>
      <point x="1651" y="279"/>
      <point x="1819" y="885"/>
      <point x="1850" y="972" type="curve" smooth="yes"/>
      <point x="1894" y="1111"/>
      <point x="1920" y="1127"/>
      <point x="2016" y="1130" type="curve"/>
      <point x="2016" y="1308" type="line"/>
      <point x="1981" y="1307"/>
      <point x="1832" y="1306"/>
      <point x="1770" y="1306" type="curve" smooth="yes"/>
      <point x="1702" y="1306"/>
      <point x="1627" y="1307"/>
      <point x="1522" y="1308" type="curve"/>
      <point x="1522" y="1130" type="line"/>
      <point x="1528" y="1129"/>
      <point x="1555" y="1129"/>
      <point x="1561" y="1128" type="curve" smooth="yes"/>
      <point x="1622" y="1126"/>
      <point x="1648" y="1113"/>
      <point x="1654" y="1086" type="curve" smooth="yes"/>
      <point x="1652" y="1069"/>
      <point x="1646" y="1050"/>
      <point x="1641" y="1028" type="curve" smooth="yes"/>
      <point x="1445" y="237" type="line"/>
      <point x="1177" y="1276" type="line"/>
      <point x="911" y="1276" type="line"/>
      <point x="649" y="238" type="line"/>
      <point x="613" y="367"/>
      <point x="490" y="882"/>
      <point x="454" y="1011" type="curve" smooth="yes"/>
      <point x="447" y="1035"/>
      <point x="445" y="1057"/>
      <point x="445" y="1074" type="curve" smooth="yes"/>
      <point x="445.0" y="1122.89115286"/>
      <point x="489.387327914" y="1128.30774656"/>
      <point x="574" y="1130" type="curve"/>
      <point x="574" y="1308" type="line"/>
      <point x="459" y="1307"/>
      <point x="376" y="1306"/>
      <point x="300" y="1306" type="curve" smooth="yes"/>
      <point x="231" y="1306"/>
      <point x="6" y="1308"/>
      <point x="6" y="1308" type="curve"/>
      <point x="6" y="1297"/>
      <point x="6" y="1130"/>
      <point x="6" y="1130" type="curve"/>
      <point x="128" y="1130"/>
      <point x="115" y="1119"/>
      <point x="164" y="956" type="curve" smooth="yes"/>
    </contour>
  </outline>
</glyph>
<glyph name="X" format="1">
  <advance width="1656"/>
  <unicode hex="0058"/>
  <outline>
    <contour>
      <point x="46" y="1308" type="curve"/>
      <point x="46" y="1249"/>
      <point x="46" y="1188"/>
      <point x="46" y="1130" type="curve"/>
      <point x="160" y="1128"/>
      <point x="176" y="1126"/>
      <point x="288" y="1007" type="curve" smooth="yes"/>
      <point x="621" y="646" type="line"/>
      <point x="280" y="291" type="line" smooth="yes"/>
      <point x="173" y="186"/>
      <point x="139" y="178"/>
      <point x="36" y="178" type="curve"/>
      <point x="36" y="0" type="line"/>
      <point x="196" y="1"/>
      <point x="251" y="2"/>
      <point x="321" y="2" type="curve" smooth="yes"/>
      <point x="405" y="2"/>
      <point x="535" y="0"/>
      <point x="686" y="0" type="curve"/>
      <point x="686" y="177" type="line"/>
      <point x="604" y="177"/>
      <point x="544" y="177"/>
      <point x="544" y="209" type="curve" smooth="yes"/>
      <point x="544" y="224"/>
      <point x="562" y="253"/>
      <point x="611" y="306" type="curve" smooth="yes"/>
      <point x="795" y="517" type="line"/>
      <point x="968" y="310" type="line" smooth="yes"/>
      <point x="1002" y="271"/>
      <point x="1042" y="225"/>
      <point x="1042" y="212" type="curve" smooth="yes"/>
      <point x="1042" y="181"/>
      <point x="985" y="177"/>
      <point x="903" y="177" type="curve"/>
      <point x="903" y="118"/>
      <point x="904" y="59"/>
      <point x="904" y="0" type="curve"/>
      <point x="1028" y="1"/>
      <point x="1146" y="3"/>
      <point x="1284" y="3" type="curve" smooth="yes"/>
      <point x="1407" y="3"/>
      <point x="1511" y="1"/>
      <point x="1620" y="0" type="curve"/>
      <point x="1620" y="59"/>
      <point x="1620" y="119"/>
      <point x="1620" y="177" type="curve"/>
      <point x="1484" y="177"/>
      <point x="1444" y="220"/>
      <point x="1362" y="313" type="curve" smooth="yes"/>
      <point x="1013" y="686" type="line"/>
      <point x="1013" y="685"/>
      <point x="1367" y="1078"/>
      <point x="1375" y="1085" type="curve"/>
      <point x="1419" y="1140"/>
      <point x="1474" y="1145"/>
      <point x="1586" y="1146" type="curve"/>
      <point x="1588" y="1308" type="line"/>
      <point x="1467" y="1306"/>
      <point x="1371" y="1306"/>
      <point x="1268" y="1306" type="curve"/>
      <point x="1196" y="1304"/>
      <point x="1064" y="1307"/>
      <point x="957" y="1308" type="curve"/>
      <point x="957" y="1130" type="line"/>
      <point x="1043" y="1128"/>
      <point x="1089" y="1127"/>
      <point x="1089" y="1104" type="curve" smooth="yes"/>
      <point x="1089" y="1099"/>
      <point x="1067" y="1080"/>
      <point x="1041" y="1047" type="curve" smooth="yes"/>
      <point x="1008" y="999"/>
      <point x="850" y="819"/>
      <point x="851" y="818" type="curve" smooth="yes"/>
      <point x="657" y="1030" type="line" smooth="yes"/>
      <point x="628" y="1060"/>
      <point x="600" y="1094"/>
      <point x="600" y="1104" type="curve" smooth="yes"/>
      <point x="600" y="1128"/>
      <point x="631" y="1130"/>
      <point x="684" y="1130" type="curve" smooth="yes"/>
      <point x="692" y="1130"/>
      <point x="717" y="1130"/>
      <point x="727" y="1130" type="curve"/>
      <point x="727" y="1308" type="line"/>
      <point x="632" y="1307"/>
      <point x="455" y="1304"/>
      <point x="380" y="1307" type="curve"/>
      <point x="246" y="1307"/>
      <point x="215" y="1306"/>
    </contour>
  </outline>
</glyph>
<glyph name="Y" format="1">
  <advance width="1321"/>
  <unicode hex="0059"/>
  <outline>
    <contour>
      <point x="17" y="1308" type="curve"/>
      <point x="17" y="1249"/>
      <point x="18" y="1188"/>
      <point x="18" y="1130" type="curve"/>
      <point x="123" y="1128"/>
      <point x="126" y="1119"/>
      <point x="189" y="1021" type="curve" smooth="yes"/>
      <point x="246" y="931"/>
      <point x="441" y="623"/>
      <point x="499" y="534" type="curve"/>
      <point x="499" y="268" type="line" smooth="yes"/>
      <point x="499" y="237"/>
      <point x="505" y="178"/>
      <point x="401" y="178" type="curve" smooth="yes"/>
      <point x="353" y="178" type="line"/>
      <point x="353" y="0" type="line"/>
      <point x="405" y="0"/>
      <point x="571" y="2"/>
      <point x="650" y="2" type="curve"/>
      <point x="784" y="1"/>
      <point x="869" y="0"/>
      <point x="968" y="0" type="curve"/>
      <point x="968" y="178" type="line"/>
      <point x="919" y="178" type="line" smooth="yes"/>
      <point x="824" y="178"/>
      <point x="820" y="210"/>
      <point x="820" y="270" type="curve" smooth="yes"/>
      <point x="820" y="532" type="line"/>
      <point x="879" y="622"/>
      <point x="1052" y="896"/>
      <point x="1152" y="1037" type="curve" smooth="yes"/>
      <point x="1205" y="1117"/>
      <point x="1217" y="1130"/>
      <point x="1304" y="1130" type="curve"/>
      <point x="1304" y="1308" type="line"/>
      <point x="1213" y="1306"/>
      <point x="1149" y="1306"/>
      <point x="1085" y="1306" type="curve" smooth="yes"/>
      <point x="1027" y="1306"/>
      <point x="817" y="1308"/>
      <point x="817" y="1308" type="curve"/>
      <point x="817" y="1130" type="line"/>
      <point x="823" y="1130"/>
      <point x="843" y="1129"/>
      <point x="848" y="1129" type="curve" smooth="yes"/>
      <point x="903" y="1127"/>
      <point x="929" y="1120"/>
      <point x="934" y="1099" type="curve" smooth="yes"/>
      <point x="931" y="1081"/>
      <point x="917" y="1055"/>
      <point x="897" y="1022" type="curve" smooth="yes"/>
      <point x="700" y="695" type="line"/>
      <point x="676" y="744"/>
      <point x="541" y="970"/>
      <point x="516" y="1019" type="curve" smooth="yes"/>
      <point x="504" y="1039"/>
      <point x="486" y="1080"/>
      <point x="478" y="1095" type="curve" smooth="yes"/>
      <point x="478" y="1121"/>
      <point x="504" y="1130"/>
      <point x="569" y="1130" type="curve" smooth="yes"/>
      <point x="600" y="1130" type="line"/>
      <point x="600" y="1308" type="line"/>
      <point x="421" y="1307"/>
      <point x="320" y="1305"/>
      <point x="198" y="1305" type="curve" smooth="yes"/>
      <point x="149" y="1305"/>
      <point x="35" y="1307"/>
    </contour>
  </outline>
</glyph>
<glyph name="Z" format="1">
  <advance width="1267"/>
  <unicode hex="005A"/>
  <outline>
    <contour>
      <point x="75" y="1306" type="line"/>
      <point x="75" y="923" type="line"/>
      <point x="260" y="923" type="line"/>
      <point x="260" y="1029" type="line" smooth="yes"/>
      <point x="260" y="1127"/>
      <point x="280" y="1122"/>
      <point x="429" y="1122" type="curve" smooth="yes"/>
      <point x="809" y="1122" type="line"/>
      <point x="52" y="204" type="line"/>
      <point x="52" y="0" type="line"/>
      <point x="1214" y="0" type="line"/>
      <point x="1214" y="401" type="line"/>
      <point x="1027" y="401" type="line"/>
      <point x="1026" y="238"/>
      <point x="1013" y="183"/>
      <point x="911" y="183" type="curve" smooth="yes"/>
      <point x="427" y="183" type="line"/>
      <point x="1193" y="1111" type="line"/>
      <point x="1193" y="1306" type="line"/>
    </contour>
  </outline>
</glyph>
<glyph name="bracketleft" format="1">
  <advance width="807"/>
  <unicode hex="005B"/>
  <outline>
    <contour>
      <point x="161" y="1308" type="line"/>
      <point x="161" y="-298" type="line"/>
      <point x="734" y="-298" type="line"/>
      <point x="734" y="-82" type="line"/>
      <point x="460" y="-82" type="line"/>
      <point x="460" y="1092" type="line"/>
      <point x="736" y="1092" type="line"/>
      <point x="736" y="1308" type="line"/>
    </contour>
  </outline>
</glyph>
<glyph name="backslash" format="1">
  <advance width="503"/>
  <unicode hex="005C"/>
  <outline>
    <contour>
      <point x="-26" y="1322" type="line"/>
      <point x="371" y="-96" type="line"/>
      <point x="551" y="-96" type="line"/>
      <point x="155" y="1322" type="line"/>
    </contour>
  </outline>
</glyph>
<glyph name="bracketright" format="1">
  <advance width="807"/>
  <unicode hex="005D"/>
  <outline>
    <contour>
      <point x="71" y="1308" type="line"/>
      <point x="71" y="1092" type="line"/>
      <point x="347" y="1092" type="line"/>
      <point x="347" y="-82" type="line"/>
      <point x="70" y="-82" type="line"/>
      <point x="70" y="-298" type="line"/>
      <point x="645" y="-298" type="line"/>
      <point x="645" y="1308" type="line"/>
    </contour>
  </outline>
</glyph>
<glyph name="asciicircum" format="1">
  <advance width="1721"/>
  <unicode hex="005E"/>
  <outline>
    <contour>
      <point x="965" y="1427" type="line"/>
      <point x="763" y="1427" type="line"/>
      <point x="291" y="798" type="line"/>
      <point x="467" y="787" type="line"/>
      <point x="859" y="1229" type="line"/>
      <point x="1249" y="787" type="line"/>
      <point x="1428" y="798" type="line"/>
    </contour>
  </outline>
</glyph>
<glyph name="grave" format="1">
  <advance width="853"/>
  <unicode hex="0060"/>
  <outline>
    <contour>
      <point x="375" y="1365" type="line"/>
      <point x="353" y="1395"/>
      <point x="308" y="1408"/>
      <point x="263" y="1408" type="curve" smooth="yes"/>
      <point x="184" y="1408"/>
      <point x="97" y="1362"/>
      <point x="97" y="1352" type="curve"/>
      <point x="100" y="1317"/>
      <point x="431" y="1085"/>
      <point x="472" y="1048" type="curve"/>
      <point x="611" y="1048" type="line"/>
    </contour>
  </outline>
</glyph>
<glyph name="a" format="1">
  <advance width="1203"/>
  <unicode hex="0061"/>
  <outline>
    <contour>
      <point x="1050" y="601" type="line"/>
      <point x="1050" y="843"/>
      <point x="906" y="936"/>
      <point x="559" y="936" type="curve" smooth="yes"/>
      <point x="339" y="936"/>
      <point x="192" y="889"/>
      <point x="153" y="871" type="curve"/>
      <point x="147" y="671" type="line"/>
      <point x="312" y="656" type="line"/>
      <point x="335" y="752"/>
      <point x="406" y="801"/>
      <point x="529" y="801" type="curve" smooth="yes"/>
      <point x="675" y="801"/>
      <point x="744" y="736"/>
      <point x="744" y="635" type="curve" smooth="yes"/>
      <point x="744" y="520" type="line"/>
      <point x="667" y="540"/>
      <point x="577" y="550"/>
      <point x="491" y="550" type="curve" smooth="yes"/>
      <point x="225" y="550"/>
      <point x="63" y="438"/>
      <point x="63" y="259" type="curve" smooth="yes"/>
      <point x="63" y="104"/>
      <point x="181" y="-23"/>
      <point x="411" y="-23" type="curve" smooth="yes"/>
      <point x="600" y="-23"/>
      <point x="700" y="34"/>
      <point x="758" y="127" type="curve"/>
      <point x="788" y="-3" type="line"/>
      <point x="863" y="-1"/>
      <point x="904" y="0"/>
      <point x="979" y="1" type="curve" smooth="yes"/>
      <point x="1011" y="1"/>
      <point x="1156" y="0"/>
      <point x="1176" y="0" type="curve"/>
      <point x="1176" y="160" type="line"/>
      <point x="1128" y="160" type="line" smooth="yes"/>
      <point x="1060" y="160"/>
      <point x="1050" y="162"/>
      <point x="1050" y="272" type="curve" smooth="yes"/>
    </contour>
    <contour>
      <point x="578" y="446" type="curve" smooth="yes"/>
      <point x="634" y="446"/>
      <point x="688" y="440"/>
      <point x="744" y="424" type="curve"/>
      <point x="744" y="321" type="line" smooth="yes"/>
      <point x="744" y="195"/>
      <point x="657" y="123"/>
      <point x="527" y="123" type="curve" smooth="yes"/>
      <point x="430" y="123"/>
      <point x="357" y="183"/>
      <point x="357" y="282" type="curve" smooth="yes"/>
      <point x="357" y="385"/>
      <point x="439" y="446"/>
    </contour>
  </outline>
</glyph>
<glyph name="b" format="1">
  <advance width="1343"/>
  <unicode hex="0062"/>
  <outline>
    <contour>
      <point x="801" y="-23" type="curve" smooth="yes"/>
      <point x="1081" y="-23"/>
      <point x="1256" y="182"/>
      <point x="1256" y="453" type="curve" smooth="yes"/>
      <point x="1256" y="753"/>
      <point x="1066" y="932"/>
      <point x="791" y="932" type="curve" smooth="yes"/>
      <point x="664" y="932"/>
      <point x="555" y="888"/>
      <point x="480" y="808" type="curve"/>
      <point x="480" y="1314" type="line"/>
      <point x="414" y="1311"/>
      <point x="347" y="1311"/>
      <point x="275" y="1310" type="curve" smooth="yes"/>
      <point x="200" y="1310"/>
      <point x="117" y="1307"/>
      <point x="43" y="1308" type="curve"/>
      <point x="43" y="1148" type="line"/>
      <point x="132" y="1147"/>
      <point x="174" y="1140"/>
      <point x="174" y="1070" type="curve" smooth="yes"/>
      <point x="174" y="245" type="line" smooth="yes"/>
      <point x="174" y="228"/>
      <point x="172" y="161"/>
      <point x="101" y="159" type="curve" smooth="yes"/>
      <point x="94" y="159"/>
      <point x="55" y="159"/>
      <point x="46" y="159" type="curve"/>
      <point x="46" y="0" type="line"/>
      <point x="46" y="0"/>
      <point x="185" y="1"/>
      <point x="230" y="1" type="curve" smooth="yes"/>
      <point x="308" y="0"/>
      <point x="386" y="-1"/>
      <point x="468" y="-3" type="curve"/>
      <point x="469" y="128" type="line"/>
      <point x="545" y="28"/>
      <point x="648" y="-23"/>
    </contour>
    <contour>
      <point x="710" y="153" type="curve" smooth="yes"/>
      <point x="556" y="153"/>
      <point x="470" y="265"/>
      <point x="470" y="454" type="curve" smooth="yes"/>
      <point x="470" y="644"/>
      <point x="555" y="763"/>
      <point x="708" y="763" type="curve" smooth="yes"/>
      <point x="855" y="763"/>
      <point x="945" y="649"/>
      <point x="945" y="457" type="curve" smooth="yes"/>
      <point x="945" y="262"/>
      <point x="858" y="153"/>
    </contour>
  </outline>
</glyph>
<glyph name="c" format="1">
  <advance width="1134"/>
  <unicode hex="0063"/>
  <outline>
    <contour>
      <point x="1019" y="900" type="line"/>
      <point x="966" y="905"/>
      <point x="886" y="908"/>
      <point x="837" y="910" type="curve"/>
      <point x="825" y="835" type="line"/>
      <point x="749" y="902"/>
      <point x="650" y="927"/>
      <point x="550" y="927" type="curve" smooth="yes"/>
      <point x="292" y="927"/>
      <point x="79" y="729"/>
      <point x="79" y="448" type="curve" smooth="yes"/>
      <point x="79" y="158"/>
      <point x="283" y="-30"/>
      <point x="598" y="-30" type="curve" smooth="yes"/>
      <point x="847" y="-30"/>
      <point x="1016" y="86"/>
      <point x="1053" y="288" type="curve"/>
      <point x="840" y="315" type="line"/>
      <point x="820" y="195"/>
      <point x="751" y="126"/>
      <point x="637" y="126" type="curve" smooth="yes"/>
      <point x="483" y="126"/>
      <point x="393" y="250"/>
      <point x="393" y="450" type="curve" smooth="yes"/>
      <point x="393" y="645"/>
      <point x="478" y="777"/>
      <point x="631" y="777" type="curve" smooth="yes"/>
      <point x="749" y="777"/>
      <point x="826" y="708"/>
      <point x="845" y="561" type="curve"/>
      <point x="1019" y="561" type="line"/>
    </contour>
  </outline>
</glyph>
<glyph name="d" format="1">
  <advance width="1343"/>
  <unicode hex="0064"/>
  <outline>
    <contour>
      <point x="533" y="-23" type="curve" smooth="yes"/>
      <point x="688" y="-23"/>
      <point x="803" y="37"/>
      <point x="866" y="127" type="curve"/>
      <point x="867" y="92"/>
      <point x="867" y="17"/>
      <point x="867" y="-3" type="curve"/>
      <point x="951" y="-1"/>
      <point x="1034" y="0"/>
      <point x="1118" y="1" type="curve" smooth="yes"/>
      <point x="1173" y="1"/>
      <point x="1237" y="0"/>
      <point x="1290" y="0" type="curve"/>
      <point x="1292" y="159" type="line"/>
      <point x="1283" y="159"/>
      <point x="1249" y="159"/>
      <point x="1243" y="159" type="curve" smooth="yes"/>
      <point x="1180" y="160"/>
      <point x="1161" y="186"/>
      <point x="1161" y="223" type="curve" smooth="yes"/>
      <point x="1161" y="1314" type="line"/>
      <point x="1088" y="1312"/>
      <point x="1014" y="1311"/>
      <point x="933" y="1310" type="curve" smooth="yes"/>
      <point x="846" y="1310"/>
      <point x="781" y="1307"/>
      <point x="709" y="1308" type="curve"/>
      <point x="709" y="1148" type="line"/>
      <point x="725" y="1148"/>
      <point x="740" y="1149"/>
      <point x="755" y="1148" type="curve" smooth="yes"/>
      <point x="818" y="1148"/>
      <point x="855" y="1142"/>
      <point x="855" y="1085" type="curve" smooth="yes"/>
      <point x="854" y="808" type="line"/>
      <point x="777" y="888"/>
      <point x="676" y="931"/>
      <point x="548" y="931" type="curve" smooth="yes"/>
      <point x="267" y="931"/>
      <point x="81" y="752"/>
      <point x="81" y="452" type="curve" smooth="yes"/>
      <point x="81" y="170"/>
      <point x="261" y="-23"/>
    </contour>
    <contour>
      <point x="626" y="153" type="curve" smooth="yes"/>
      <point x="478" y="153"/>
      <point x="392" y="266"/>
      <point x="392" y="455" type="curve" smooth="yes"/>
      <point x="392" y="646"/>
      <point x="479" y="763"/>
      <point x="627" y="763" type="curve" smooth="yes"/>
      <point x="773" y="763"/>
      <point x="865" y="642"/>
      <point x="865" y="455" type="curve" smooth="yes"/>
      <point x="865" y="270"/>
      <point x="784" y="153"/>
    </contour>
  </outline>
</glyph>
<glyph name="e" format="1">
  <advance width="1207"/>
  <unicode hex="0065"/>
  <outline>
    <contour>
      <point x="624" y="-30" type="curve" smooth="yes"/>
      <point x="875" y="-30"/>
      <point x="1049" y="70"/>
      <point x="1102" y="252" type="curve"/>
      <point x="874" y="270" type="line"/>
      <point x="841" y="176"/>
      <point x="760" y="121"/>
      <point x="647" y="121" type="curve" smooth="yes"/>
      <point x="488" y="121"/>
      <point x="389" y="226"/>
      <point x="388" y="415" type="curve"/>
      <point x="1068" y="415" type="line"/>
      <point x="1122" y="423" type="line"/>
      <point x="1121" y="761"/>
      <point x="912" y="936"/>
      <point x="605" y="936" type="curve" smooth="yes"/>
      <point x="289" y="936"/>
      <point x="79" y="748"/>
      <point x="79" y="451" type="curve" smooth="yes"/>
      <point x="79" y="174"/>
      <point x="257" y="-30"/>
    </contour>
    <contour>
      <point x="391" y="546" type="curve"/>
      <point x="401" y="696"/>
      <point x="478" y="789"/>
      <point x="614" y="789" type="curve" smooth="yes"/>
      <point x="757" y="789"/>
      <point x="836" y="690"/>
      <point x="836" y="546" type="curve"/>
      <point x="836" y="546"/>
      <point x="391.0" y="546.0"/>
    </contour>
  </outline>
</glyph>
<glyph name="f" format="1">
  <advance width="745"/>
  <unicode hex="0066"/>
  <outline>
    <contour>
      <point x="868" y="1309" type="line"/>
      <point x="781" y="1326"/>
      <point x="671" y="1337"/>
      <point x="583" y="1337" type="curve" smooth="yes"/>
      <point x="330" y="1337"/>
      <point x="195" y="1218"/>
      <point x="195" y="971" type="curve" smooth="yes"/>
      <point x="195" y="908" type="line"/>
      <point x="53" y="908" type="line"/>
      <point x="53" y="748" type="line"/>
      <point x="195" y="748" type="line"/>
      <point x="195" y="242" type="line" smooth="yes"/>
      <point x="195" y="168"/>
      <point x="170" y="162"/>
      <point x="64" y="162" type="curve"/>
      <point x="64" y="152"/>
      <point x="63" y="0"/>
      <point x="63" y="0" type="curve"/>
      <point x="63" y="0"/>
      <point x="207" y="2"/>
      <point x="313" y="2" type="curve" smooth="yes"/>
      <point x="461" y="2"/>
      <point x="663" y="0"/>
      <point x="663" y="0" type="curve"/>
      <point x="663" y="162" type="line"/>
      <point x="560" y="162"/>
      <point x="501" y="162"/>
      <point x="501" y="239" type="curve" smooth="yes"/>
      <point x="501" y="748" type="line"/>
      <point x="714" y="748" type="line"/>
      <point x="714" y="908" type="line"/>
      <point x="501" y="908" type="line"/>
      <point x="501" y="927"/>
      <point x="501" y="945"/>
      <point x="501" y="962" type="curve" smooth="yes"/>
      <point x="502" y="1088"/>
      <point x="513" y="1175"/>
      <point x="630" y="1175" type="curve" smooth="yes"/>
      <point x="696" y="1175"/>
      <point x="736" y="1129"/>
      <point x="742" y="1066" type="curve"/>
      <point x="850" y="1066" type="line"/>
    </contour>
  </outline>
</glyph>
<glyph name="g" format="1">
  <advance width="1327"/>
  <unicode hex="0067"/>
  <outline>
    <contour>
      <point x="606" y="-429" type="curve" smooth="yes"/>
      <point x="974" y="-429"/>
      <point x="1168" y="-313"/>
      <point x="1168" y="69" type="curve" smooth="yes"/>
      <point x="1168" y="641" type="line" smooth="yes"/>
      <point x="1168" y="725"/>
      <point x="1182" y="746"/>
      <point x="1255" y="747" type="curve" smooth="yes"/>
      <point x="1268" y="748"/>
      <point x="1278" y="747"/>
      <point x="1299" y="747" type="curve"/>
      <point x="1299" y="908" type="line"/>
      <point x="1247" y="907"/>
      <point x="1200" y="906"/>
      <point x="1130" y="906" type="curve" smooth="yes"/>
      <point x="1045" y="906"/>
      <point x="964" y="908"/>
      <point x="883" y="911" type="curve"/>
      <point x="883" y="778" type="line"/>
      <point x="811" y="870"/>
      <point x="700" y="930"/>
      <point x="544" y="930" type="curve" smooth="yes"/>
      <point x="267" y="930"/>
      <point x="79" y="745"/>
      <point x="79" y="458" type="curve" smooth="yes"/>
      <point x="79" y="181"/>
      <point x="259" y="11"/>
      <point x="539" y="11" type="curve" smooth="yes"/>
      <point x="670" y="11"/>
      <point x="783" y="49"/>
      <point x="865" y="128" type="curve"/>
      <point x="865" y="122"/>
      <point x="865" y="33"/>
      <point x="865" y="28" type="curve" smooth="yes"/>
      <point x="862" y="-188"/>
      <point x="756" y="-267"/>
      <point x="603" y="-267" type="curve" smooth="yes"/>
      <point x="471" y="-267"/>
      <point x="396" y="-234"/>
      <point x="379" y="-113" type="curve"/>
      <point x="379" y="-113"/>
      <point x="235" y="-110"/>
      <point x="195" y="-99" type="curve"/>
      <point x="156" y="-345" type="line"/>
      <point x="282" y="-399"/>
      <point x="449" y="-429"/>
    </contour>
    <contour>
      <point x="633" y="161" type="curve" smooth="yes"/>
      <point x="483" y="161"/>
      <point x="391" y="275"/>
      <point x="391" y="453" type="curve" smooth="yes"/>
      <point x="391" y="638"/>
      <point x="483" y="756"/>
      <point x="630" y="756" type="curve" smooth="yes"/>
      <point x="783" y="756"/>
      <point x="873" y="638"/>
      <point x="873" y="462" type="curve" smooth="yes"/>
      <point x="873" y="274"/>
      <point x="783" y="161"/>
    </contour>
  </outline>
</glyph>
<glyph name="h" format="1">
  <advance width="1336"/>
  <unicode hex="0068"/>
  <outline>
    <contour>
      <point x="37" y="0" type="line"/>
      <point x="118" y="0"/>
      <point x="188" y="2"/>
      <point x="292" y="2" type="curve"/>
      <point x="428" y="1"/>
      <point x="511" y="0"/>
      <point x="617" y="0" type="curve"/>
      <point x="617" y="162" type="line"/>
      <point x="519" y="162"/>
      <point x="479" y="162"/>
      <point x="479" y="222" type="curve" smooth="yes"/>
      <point x="479" y="556" type="line"/>
      <point x="498" y="666"/>
      <point x="562" y="757"/>
      <point x="708" y="757" type="curve" smooth="yes"/>
      <point x="840" y="757"/>
      <point x="865" y="652"/>
      <point x="865" y="515" type="curve" smooth="yes"/>
      <point x="865" y="255" type="line"/>
      <point x="865" y="198"/>
      <point x="849" y="163"/>
      <point x="745" y="162" type="curve"/>
      <point x="745" y="0" type="line"/>
      <point x="832" y="0"/>
      <point x="913" y="2"/>
      <point x="1027" y="2" type="curve"/>
      <point x="1138" y="1"/>
      <point x="1210" y="0"/>
      <point x="1295" y="0" type="curve"/>
      <point x="1295" y="162" type="line"/>
      <point x="1206.2" y="162.0"/>
      <point x="1171.0" y="163.130434783"/>
      <point x="1171" y="250" type="curve" smooth="yes"/>
      <point x="1171" y="477" type="line" smooth="yes"/>
      <point x="1171" y="792"/>
      <point x="1081" y="929"/>
      <point x="838" y="929" type="curve" smooth="yes"/>
      <point x="692" y="929"/>
      <point x="571" y="882"/>
      <point x="478" y="780" type="curve"/>
      <point x="478" y="851"/>
      <point x="478" y="1243"/>
      <point x="478" y="1314" type="curve"/>
      <point x="403" y="1310"/>
      <point x="332" y="1309"/>
      <point x="263" y="1309" type="curve" smooth="yes"/>
      <point x="192" y="1309"/>
      <point x="113" y="1307"/>
      <point x="43" y="1308" type="curve"/>
      <point x="43" y="1150" type="line"/>
      <point x="50" y="1150"/>
      <point x="73" y="1150"/>
      <point x="79" y="1150" type="curve" smooth="yes"/>
      <point x="134" y="1149"/>
      <point x="173" y="1144"/>
      <point x="173" y="1092" type="curve" smooth="yes"/>
      <point x="173" y="239" type="line" smooth="yes"/>
      <point x="173" y="167"/>
      <point x="159" y="162"/>
      <point x="37" y="162" type="curve"/>
    </contour>
  </outline>
</glyph>
<glyph name="i" format="1">
  <advance width="655"/>
  <unicode hex="0069"/>
  <outline>
    <contour>
      <point x="486" y="912" type="line"/>
      <point x="393" y="908"/>
      <point x="302" y="907"/>
      <point x="216" y="907" type="curve" smooth="yes"/>
      <point x="168" y="907"/>
      <point x="117" y="908"/>
      <point x="62" y="908" type="curve"/>
      <point x="62" y="854"/>
      <point x="61" y="802"/>
      <point x="61" y="748" type="curve"/>
      <point x="144" y="747"/>
      <point x="181" y="748"/>
      <point x="181" y="692" type="curve" smooth="yes"/>
      <point x="181" y="254" type="line" smooth="yes"/>
      <point x="181" y="169"/>
      <point x="167" y="163"/>
      <point x="56" y="162" type="curve"/>
      <point x="56" y="0" type="line"/>
      <point x="132" y="0"/>
      <point x="195" y="2"/>
      <point x="292" y="2" type="curve" smooth="yes"/>
      <point x="372" y="2"/>
      <point x="513" y="0"/>
      <point x="603" y="0" type="curve"/>
      <point x="603" y="162" type="line"/>
      <point x="505" y="162"/>
      <point x="486" y="172"/>
      <point x="486" y="254" type="curve" smooth="yes"/>
    </contour>
    <contour>
      <point x="315" y="1335" type="curve" smooth="yes"/>
      <point x="212" y="1335"/>
      <point x="143" y="1286"/>
      <point x="143" y="1213" type="curve" smooth="yes"/>
      <point x="143" y="1131"/>
      <point x="211" y="1089"/>
      <point x="315" y="1089" type="curve" smooth="yes"/>
      <point x="421" y="1089"/>
      <point x="488" y="1139"/>
      <point x="488" y="1213" type="curve" smooth="yes"/>
      <point x="488" y="1289"/>
      <point x="414" y="1335"/>
    </contour>
  </outline>
</glyph>
<glyph name="j" format="1">
  <advance width="645"/>
  <unicode hex="006A"/>
  <outline>
    <contour>
      <point x="152" y="-413" type="curve" smooth="yes"/>
      <point x="447" y="-404"/>
      <point x="496" y="-239"/>
      <point x="496" y="89" type="curve" smooth="yes"/>
      <point x="496" y="912" type="line"/>
      <point x="423" y="908"/>
      <point x="352" y="907"/>
      <point x="283" y="907" type="curve" smooth="yes"/>
      <point x="216" y="907"/>
      <point x="150" y="907"/>
      <point x="71" y="908" type="curve"/>
      <point x="71" y="854"/>
      <point x="71" y="802"/>
      <point x="71" y="748" type="curve"/>
      <point x="166" y="747"/>
      <point x="190" y="733"/>
      <point x="190" y="667" type="curve" smooth="yes"/>
      <point x="190" y="70" type="line" smooth="yes"/>
      <point x="190" y="-165"/>
      <point x="176" y="-248"/>
      <point x="68" y="-248" type="curve" smooth="yes"/>
      <point x="30" y="-248"/>
      <point x="8" y="-226"/>
      <point x="-3" y="-161" type="curve"/>
      <point x="-28" y="-162"/>
      <point x="-72" y="-162"/>
      <point x="-83" y="-161" type="curve"/>
      <point x="-83" y="-389" type="line"/>
      <point x="-18" y="-405"/>
      <point x="70" y="-413"/>
    </contour>
    <contour>
      <point x="319" y="1089" type="curve" smooth="yes"/>
      <point x="423" y="1089"/>
      <point x="492" y="1135"/>
      <point x="492" y="1213" type="curve" smooth="yes"/>
      <point x="492" y="1290"/>
      <point x="422" y="1335"/>
      <point x="319" y="1335" type="curve" smooth="yes"/>
      <point x="221" y="1335"/>
      <point x="148" y="1290"/>
      <point x="148" y="1213" type="curve" smooth="yes"/>
      <point x="148" y="1131"/>
      <point x="213" y="1089"/>
    </contour>
  </outline>
</glyph>
<glyph name="k" format="1">
  <advance width="1268"/>
  <unicode hex="006B"/>
  <outline>
    <contour>
      <point x="37" y="0" type="line"/>
      <point x="115" y="0"/>
      <point x="238" y="2"/>
      <point x="306" y="2" type="curve"/>
      <point x="404" y="1"/>
      <point x="521" y="0"/>
      <point x="600" y="0" type="curve"/>
      <point x="600" y="163" type="line"/>
      <point x="487" y="164"/>
      <point x="478" y="178"/>
      <point x="478" y="231" type="curve" smooth="yes"/>
      <point x="478" y="351" type="line"/>
      <point x="564" y="412" type="line"/>
      <point x="757" y="208" type="line" smooth="yes"/>
      <point x="771" y="195"/>
      <point x="783" y="184"/>
      <point x="783" y="176" type="curve" smooth="yes"/>
      <point x="783" y="171"/>
      <point x="775" y="167"/>
      <point x="757" y="165" type="curve" smooth="yes"/>
      <point x="750" y="164"/>
      <point x="716" y="163"/>
      <point x="697" y="163" type="curve"/>
      <point x="697" y="0" type="line"/>
      <point x="788" y="0"/>
      <point x="866" y="2"/>
      <point x="977" y="2" type="curve" smooth="yes"/>
      <point x="1011" y="2"/>
      <point x="1166" y="0"/>
      <point x="1254" y="0" type="curve"/>
      <point x="1254" y="163" type="line"/>
      <point x="1233" y="163"/>
      <point x="1216" y="163"/>
      <point x="1199" y="163" type="curve" smooth="yes"/>
      <point x="1143" y="165"/>
      <point x="1106" y="177"/>
      <point x="1056" y="236" type="curve" smooth="yes"/>
      <point x="775" y="528" type="line"/>
      <point x="985" y="690" type="line" smooth="yes"/>
      <point x="1061" y="748"/>
      <point x="1082" y="761"/>
      <point x="1145" y="761" type="curve" smooth="yes"/>
      <point x="1155" y="761"/>
      <point x="1209" y="760"/>
      <point x="1209" y="760" type="curve"/>
      <point x="1209" y="908" type="line"/>
      <point x="1088" y="906"/>
      <point x="1008" y="906"/>
      <point x="924" y="906" type="curve" smooth="yes"/>
      <point x="864" y="906"/>
      <point x="803" y="906"/>
      <point x="716" y="908" type="curve"/>
      <point x="714" y="771" type="line"/>
      <point x="739" y="771"/>
      <point x="820" y="771"/>
      <point x="820" y="764" type="curve" smooth="yes"/>
      <point x="820" y="758"/>
      <point x="758" y="700"/>
      <point x="695" y="651" type="curve" smooth="yes"/>
      <point x="477" y="481" type="line"/>
      <point x="477" y="1314" type="line"/>
      <point x="400" y="1311"/>
      <point x="337" y="1310"/>
      <point x="260" y="1310" type="curve" smooth="yes"/>
      <point x="260" y="1310"/>
      <point x="63" y="1307"/>
      <point x="42" y="1308" type="curve"/>
      <point x="42" y="1148" type="line"/>
      <point x="120" y="1148"/>
      <point x="173" y="1150"/>
      <point x="173" y="1083" type="curve" smooth="yes"/>
      <point x="173" y="1083"/>
      <point x="173" y="249"/>
      <point x="173" y="243" type="curve" smooth="yes"/>
      <point x="173" y="179"/>
      <point x="150" y="165"/>
      <point x="37" y="163" type="curve"/>
    </contour>
  </outline>
</glyph>
<glyph name="l" format="1">
  <advance width="650"/>
  <unicode hex="006C"/>
  <outline>
    <contour>
      <point x="478" y="1314" type="line"/>
      <point x="407" y="1311"/>
      <point x="342" y="1310"/>
      <point x="276" y="1310" type="curve" smooth="yes"/>
      <point x="250" y="1309"/>
      <point x="94" y="1307"/>
      <point x="52" y="1308" type="curve"/>
      <point x="52" y="1148" type="line"/>
      <point x="132" y="1147"/>
      <point x="173" y="1142"/>
      <point x="173" y="1078" type="curve" smooth="yes"/>
      <point x="173" y="287" type="line" smooth="yes"/>
      <point x="173" y="191"/>
      <point x="173" y="162"/>
      <point x="47" y="162" type="curve"/>
      <point x="47" y="152"/>
      <point x="47" y="10"/>
      <point x="47" y="0" type="curve"/>
      <point x="130" y="0"/>
      <point x="204" y="2"/>
      <point x="311" y="2" type="curve"/>
      <point x="427" y="1"/>
      <point x="509" y="0"/>
      <point x="599" y="0" type="curve"/>
      <point x="599" y="162" type="line"/>
      <point x="501" y="162"/>
      <point x="478" y="181"/>
      <point x="478" y="265" type="curve" smooth="yes"/>
    </contour>
  </outline>
</glyph>
<glyph name="m" format="1">
  <advance width="2007"/>
  <unicode hex="006D"/>
  <outline>
    <contour>
      <point x="51" y="0" type="line"/>
      <point x="135" y="0"/>
      <point x="208" y="2"/>
      <point x="316" y="2" type="curve"/>
      <point x="444" y="1"/>
      <point x="523" y="0"/>
      <point x="621" y="0" type="curve"/>
      <point x="621" y="162" type="line"/>
      <point x="519" y="163"/>
      <point x="485" y="164"/>
      <point x="485" y="244" type="curve" smooth="yes"/>
      <point x="485" y="244"/>
      <point x="485" y="424"/>
      <point x="485" y="488" type="curve" smooth="yes"/>
      <point x="485" y="575"/>
      <point x="495" y="635"/>
      <point x="510" y="657" type="curve"/>
      <point x="562" y="725"/>
      <point x="621" y="760"/>
      <point x="703" y="760" type="curve" smooth="yes"/>
      <point x="819" y="760"/>
      <point x="854" y="684"/>
      <point x="854" y="530" type="curve" smooth="yes"/>
      <point x="854" y="247" type="line"/>
      <point x="854" y="191"/>
      <point x="829" y="163"/>
      <point x="741" y="162" type="curve"/>
      <point x="741" y="0" type="line"/>
      <point x="822" y="0"/>
      <point x="893" y="2"/>
      <point x="998" y="2" type="curve"/>
      <point x="1118" y="1"/>
      <point x="1190" y="0"/>
      <point x="1279" y="0" type="curve"/>
      <point x="1279" y="162" type="line"/>
      <point x="1188" y="163"/>
      <point x="1160" y="169"/>
      <point x="1160" y="226" type="curve" smooth="yes"/>
      <point x="1160" y="491" type="line" smooth="yes"/>
      <point x="1160" y="549"/>
      <point x="1166" y="599"/>
      <point x="1180" y="640" type="curve"/>
      <point x="1223" y="697"/>
      <point x="1283" y="738"/>
      <point x="1374" y="738" type="curve" smooth="yes"/>
      <point x="1490" y="738"/>
      <point x="1527" y="666"/>
      <point x="1527" y="530" type="curve" smooth="yes"/>
      <point x="1527" y="254" type="line" smooth="yes"/>
      <point x="1527" y="181"/>
      <point x="1501" y="163"/>
      <point x="1407" y="162" type="curve"/>
      <point x="1407" y="0" type="line"/>
      <point x="1499" y="0"/>
      <point x="1584" y="2"/>
      <point x="1687" y="2" type="curve" smooth="yes"/>
      <point x="1792" y="2"/>
      <point x="1871" y="0"/>
      <point x="1956" y="0" type="curve"/>
      <point x="1956" y="162" type="line"/>
      <point x="1866" y="163"/>
      <point x="1833" y="163"/>
      <point x="1833" y="222" type="curve" smooth="yes"/>
      <point x="1833" y="496" type="line" smooth="yes"/>
      <point x="1833" y="775"/>
      <point x="1758" y="928"/>
      <point x="1516" y="928" type="curve" smooth="yes"/>
      <point x="1372" y="928"/>
      <point x="1242" y="861"/>
      <point x="1140" y="747" type="curve"/>
      <point x="1090" y="867"/>
      <point x="988" y="928"/>
      <point x="848" y="928" type="curve" smooth="yes"/>
      <point x="674" y="928"/>
      <point x="545" y="848"/>
      <point x="475" y="753" type="curve"/>
      <point x="475" y="911" type="line"/>
      <point x="368" y="908"/>
      <point x="269" y="906"/>
      <point x="166" y="906" type="curve" smooth="yes"/>
      <point x="129" y="906"/>
      <point x="95" y="908"/>
      <point x="56" y="908" type="curve"/>
      <point x="56" y="748" type="line"/>
      <point x="139" y="748"/>
      <point x="180" y="743"/>
      <point x="180" y="691" type="curve" smooth="yes"/>
      <point x="180" y="241" type="line" smooth="yes"/>
      <point x="180" y="175"/>
      <point x="165" y="162"/>
      <point x="51" y="162" type="curve"/>
    </contour>
  </outline>
</glyph>
<glyph name="n" format="1">
  <advance width="1363"/>
  <unicode hex="006E"/>
  <outline>
    <contour>
      <point x="64" y="0" type="curve"/>
      <point x="149" y="0"/>
      <point x="229" y="2"/>
      <point x="340" y="2" type="curve"/>
      <point x="471" y="1"/>
      <point x="550" y="0"/>
      <point x="648" y="0" type="curve"/>
      <point x="648" y="162" type="line"/>
      <point x="547" y="163"/>
      <point x="506" y="162"/>
      <point x="506" y="238" type="curve" smooth="yes"/>
      <point x="506" y="484" type="line" smooth="yes"/>
      <point x="506" y="544"/>
      <point x="508" y="595"/>
      <point x="522" y="638" type="curve"/>
      <point x="557" y="687"/>
      <point x="622" y="736"/>
      <point x="729" y="736" type="curve" smooth="yes"/>
      <point x="855" y="736"/>
      <point x="894" y="659"/>
      <point x="894" y="512" type="curve" smooth="yes"/>
      <point x="894" y="238" type="line" smooth="yes"/>
      <point x="894" y="171"/>
      <point x="894" y="162"/>
      <point x="774" y="162" type="curve"/>
      <point x="774" y="0" type="line"/>
      <point x="865" y="0"/>
      <point x="956" y="2"/>
      <point x="1060" y="2" type="curve"/>
      <point x="1172" y="1"/>
      <point x="1241" y="0"/>
      <point x="1323" y="0" type="curve"/>
      <point x="1323" y="162" type="line"/>
      <point x="1242" y="163"/>
      <point x="1200" y="156"/>
      <point x="1200" y="222" type="curve" smooth="yes"/>
      <point x="1200" y="555" type="line" smooth="yes"/>
      <point x="1200" y="820"/>
      <point x="1082" y="928"/>
      <point x="855" y="928" type="curve" smooth="yes"/>
      <point x="696" y="924"/>
      <point x="571" y="850"/>
      <point x="497" y="762" type="curve"/>
      <point x="497" y="912" type="line"/>
      <point x="402" y="908"/>
      <point x="317" y="907"/>
      <point x="226" y="907" type="curve" smooth="yes"/>
      <point x="178" y="907"/>
      <point x="126" y="908"/>
      <point x="69" y="908" type="curve"/>
      <point x="69" y="898"/>
      <point x="69" y="758"/>
      <point x="69" y="748" type="curve"/>
      <point x="158" y="748"/>
      <point x="201" y="748"/>
      <point x="201" y="697" type="curve" smooth="yes"/>
      <point x="201" y="243" type="line" smooth="yes"/>
      <point x="201" y="166"/>
      <point x="177" y="163"/>
      <point x="63" y="162" type="curve"/>
      <point x="63" y="152"/>
      <point x="64" y="10"/>
    </contour>
  </outline>
</glyph>
<glyph name="o" format="1">
  <advance width="1257"/>
  <unicode hex="006F"/>
  <outline>
    <contour>
      <point x="630" y="771" type="curve" smooth="yes"/>
      <point x="778" y="771"/>
      <point x="865" y="653"/>
      <point x="865" y="458" type="curve" smooth="yes"/>
      <point x="865" y="258"/>
      <point x="776" y="138"/>
      <point x="627" y="138" type="curve" smooth="yes"/>
      <point x="477" y="138"/>
      <point x="392" y="256"/>
      <point x="392" y="454" type="curve" smooth="yes"/>
      <point x="392" y="652"/>
      <point x="479" y="771"/>
    </contour>
    <contour>
      <point x="629" y="936" type="curve" smooth="yes"/>
      <point x="317" y="936"/>
      <point x="79" y="758"/>
      <point x="79" y="453" type="curve" smooth="yes"/>
      <point x="79" y="143"/>
      <point x="321" y="-30"/>
      <point x="629" y="-30" type="curve" smooth="yes"/>
      <point x="935" y="-30"/>
      <point x="1178" y="146"/>
      <point x="1178" y="453" type="curve" smooth="yes"/>
      <point x="1178" y="769"/>
      <point x="926" y="936"/>
    </contour>
  </outline>
</glyph>
<glyph name="p" format="1">
  <advance width="1342"/>
  <unicode hex="0070"/>
  <outline>
    <contour>
      <point x="41" y="-414" type="line"/>
      <point x="107" y="-413"/>
      <point x="238" y="-413"/>
      <point x="318" y="-413" type="curve"/>
      <point x="403" y="-413"/>
      <point x="545" y="-413"/>
      <point x="620" y="-414" type="curve"/>
      <point x="620" y="-253" type="line"/>
      <point x="596" y="-253" type="line" smooth="yes"/>
      <point x="506" y="-253"/>
      <point x="475" y="-253"/>
      <point x="475" y="-183" type="curve" smooth="yes"/>
      <point x="476" y="99" type="line"/>
      <point x="552" y="16"/>
      <point x="661" y="-25"/>
      <point x="789" y="-25" type="curve" smooth="yes"/>
      <point x="1069" y="-25"/>
      <point x="1256" y="161"/>
      <point x="1256" y="458" type="curve" smooth="yes"/>
      <point x="1256" y="740"/>
      <point x="1068" y="930"/>
      <point x="795" y="930" type="curve" smooth="yes"/>
      <point x="631" y="930"/>
      <point x="515" y="857"/>
      <point x="465" y="778" type="curve"/>
      <point x="464" y="912" type="line"/>
      <point x="375" y="908"/>
      <point x="289" y="907"/>
      <point x="207" y="907" type="curve" smooth="yes"/>
      <point x="158" y="907"/>
      <point x="104" y="908"/>
      <point x="48" y="908" type="curve"/>
      <point x="48" y="748" type="line"/>
      <point x="135" y="748"/>
      <point x="170" y="749"/>
      <point x="170" y="681" type="curve" smooth="yes"/>
      <point x="170" y="-154" type="line" smooth="yes"/>
      <point x="170" y="-190"/>
      <point x="166" y="-213"/>
      <point x="154" y="-238" type="curve" smooth="yes"/>
      <point x="133" y="-247"/>
      <point x="98" y="-252"/>
      <point x="41" y="-253" type="curve"/>
    </contour>
    <contour>
      <point x="705" y="754" type="curve" smooth="yes"/>
      <point x="858" y="754"/>
      <point x="946" y="644"/>
      <point x="946" y="457" type="curve" smooth="yes"/>
      <point x="946" y="253"/>
      <point x="850" y="147"/>
      <point x="705" y="147" type="curve" smooth="yes"/>
      <point x="552" y="147"/>
      <point x="466" y="263"/>
      <point x="466" y="455" type="curve" smooth="yes"/>
      <point x="466" y="641"/>
      <point x="554" y="754"/>
    </contour>
  </outline>
</glyph>
<glyph name="q" format="1">
  <advance width="1342"/>
  <unicode hex="0071"/>
  <outline>
    <contour>
      <point x="722" y="-414" type="line"/>
      <point x="792" y="-413"/>
      <point x="923" y="-413"/>
      <point x="1005" y="-413" type="curve"/>
      <point x="1089" y="-413"/>
      <point x="1228" y="-413"/>
      <point x="1301" y="-414" type="curve"/>
      <point x="1301" y="-253" type="line"/>
      <point x="1194.26059165" y="-250.035016435"/>
      <point x="1172.0" y="-261.394947213"/>
      <point x="1172" y="-160" type="curve" smooth="yes"/>
      <point x="1172" y="660" type="line" smooth="yes"/>
      <point x="1172" y="738"/>
      <point x="1175" y="748"/>
      <point x="1297" y="748" type="curve"/>
      <point x="1297" y="908" type="line"/>
      <point x="1221" y="908"/>
      <point x="1161" y="907"/>
      <point x="1097" y="907" type="curve" smooth="yes"/>
      <point x="1025" y="907"/>
      <point x="952" y="908"/>
      <point x="878" y="912" type="curve"/>
      <point x="877" y="779" type="line"/>
      <point x="817" y="866"/>
      <point x="705" y="930"/>
      <point x="547" y="930" type="curve" smooth="yes"/>
      <point x="275" y="930"/>
      <point x="87" y="741"/>
      <point x="87" y="458" type="curve" smooth="yes"/>
      <point x="87" y="161"/>
      <point x="273" y="-25"/>
      <point x="554" y="-25" type="curve" smooth="yes"/>
      <point x="703" y="-25"/>
      <point x="802" y="27"/>
      <point x="866" y="99" type="curve"/>
      <point x="867" y="-179" type="line" smooth="yes"/>
      <point x="867" y="-242"/>
      <point x="856" y="-253"/>
      <point x="766" y="-253" type="curve" smooth="yes"/>
      <point x="722" y="-253" type="line"/>
    </contour>
    <contour>
      <point x="876" y="450" type="curve" smooth="yes"/>
      <point x="876" y="263"/>
      <point x="788" y="146"/>
      <point x="638" y="146" type="curve" smooth="yes"/>
      <point x="493" y="146"/>
      <point x="397" y="253"/>
      <point x="397" y="454" type="curve" smooth="yes"/>
      <point x="397" y="643"/>
      <point x="482" y="753"/>
      <point x="637" y="753" type="curve" smooth="yes"/>
      <point x="792" y="753"/>
      <point x="876" y="639"/>
    </contour>
  </outline>
</glyph>
<glyph name="r" format="1">
  <advance width="920"/>
  <unicode hex="0072"/>
  <outline>
    <contour>
      <point x="50" y="0" type="line"/>
      <point x="131" y="0"/>
      <point x="195" y="2"/>
      <point x="304" y="2" type="curve" smooth="yes"/>
      <point x="443" y="2"/>
      <point x="535" y="0"/>
      <point x="642" y="0" type="curve"/>
      <point x="642" y="162" type="line"/>
      <point x="529" y="162"/>
      <point x="491" y="159"/>
      <point x="491" y="227" type="curve" smooth="yes"/>
      <point x="491" y="273"/>
      <point x="491" y="457"/>
      <point x="500" y="484" type="curve" smooth="yes"/>
      <point x="513" y="613"/>
      <point x="586" y="696"/>
      <point x="687" y="696" type="curve" smooth="yes"/>
      <point x="744" y="696"/>
      <point x="775" y="673"/>
      <point x="790" y="618" type="curve"/>
      <point x="819.857142857" y="619.571428571"/>
      <point x="873.0" y="621.75"/>
      <point x="906" y="619" type="curve"/>
      <point x="906" y="921" type="line"/>
      <point x="874" y="926"/>
      <point x="842" y="929"/>
      <point x="812" y="929" type="curve" smooth="yes"/>
      <point x="648" y="929"/>
      <point x="534" y="856"/>
      <point x="474" y="720" type="curve"/>
      <point x="473" y="911" type="line"/>
      <point x="384" y="909"/>
      <point x="300" y="906"/>
      <point x="217" y="906" type="curve" smooth="yes"/>
      <point x="217" y="906"/>
      <point x="97" y="907"/>
      <point x="53" y="908" type="curve"/>
      <point x="53" y="748" type="line"/>
      <point x="147" y="748"/>
      <point x="185" y="749"/>
      <point x="185" y="691" type="curve" smooth="yes"/>
      <point x="185" y="250" type="line" smooth="yes"/>
      <point x="185.0" y="168.090596835"/>
      <point x="191.181492828" y="162.0"/>
      <point x="50" y="162" type="curve"/>
    </contour>
  </outline>
</glyph>
<glyph name="s" format="1">
  <advance width="1032"/>
  <unicode hex="0073"/>
  <outline>
    <contour>
      <point x="900" y="901" type="line"/>
      <point x="856" y="905"/>
      <point x="750" y="915"/>
      <point x="750" y="915" type="curve"/>
      <point x="750" y="915"/>
      <point x="737" y="854"/>
      <point x="734" y="838" type="curve"/>
      <point x="676" y="898"/>
      <point x="567" y="928"/>
      <point x="450" y="928" type="curve" smooth="yes"/>
      <point x="225" y="928"/>
      <point x="97" y="821"/>
      <point x="97" y="655" type="curve" smooth="yes"/>
      <point x="97" y="495"/>
      <point x="207" y="435"/>
      <point x="386" y="371" type="curve"/>
      <point x="536" y="318"/>
      <point x="677" y="287"/>
      <point x="677" y="208" type="curve" smooth="yes"/>
      <point x="677" y="148"/>
      <point x="610" y="111"/>
      <point x="517" y="111" type="curve" smooth="yes"/>
      <point x="395" y="111"/>
      <point x="291" y="170"/>
      <point x="280" y="291" type="curve"/>
      <point x="99" y="291" type="line"/>
      <point x="99" y="7" type="line"/>
      <point x="160" y="7"/>
      <point x="219" y="1"/>
      <point x="281" y="1" type="curve"/>
      <point x="285" y="80" type="line"/>
      <point x="343" y="13"/>
      <point x="433" y="-22"/>
      <point x="568" y="-22" type="curve" smooth="yes"/>
      <point x="757" y="-22"/>
      <point x="942" y="61"/>
      <point x="942" y="261" type="curve" smooth="yes"/>
      <point x="942" y="436"/>
      <point x="812" y="502"/>
      <point x="578" y="567" type="curve" smooth="yes"/>
      <point x="440" y="608"/>
      <point x="359" y="634"/>
      <point x="359" y="698" type="curve" smooth="yes"/>
      <point x="359" y="749"/>
      <point x="403" y="795"/>
      <point x="509" y="795" type="curve" smooth="yes"/>
      <point x="639" y="791"/>
      <point x="721" y="730"/>
      <point x="742" y="633" type="curve"/>
      <point x="900" y="633" type="line"/>
    </contour>
  </outline>
</glyph>
<glyph name="t" format="1">
  <advance width="792"/>
  <unicode hex="0074"/>
  <outline>
    <contour>
      <point x="214" y="1136" type="line"/>
      <point x="214" y="1113"/>
      <point x="181" y="922"/>
      <point x="180" y="910" type="curve"/>
      <point x="180" y="910"/>
      <point x="37" y="898"/>
      <point x="7" y="897" type="curve"/>
      <point x="7" y="748" type="line"/>
      <point x="159" y="748" type="line"/>
      <point x="159" y="288" type="line" smooth="yes"/>
      <point x="159" y="86"/>
      <point x="248" y="-29"/>
      <point x="455" y="-29" type="curve" smooth="yes"/>
      <point x="627.574714621" y="-29.0"/>
      <point x="728.0" y="73.9197949664"/>
      <point x="728" y="275" type="curve"/>
      <point x="617" y="261" type="line"/>
      <point x="617" y="199"/>
      <point x="596" y="168"/>
      <point x="550" y="168" type="curve" smooth="yes"/>
      <point x="475" y="168"/>
      <point x="465" y="226"/>
      <point x="465" y="342" type="curve" smooth="yes"/>
      <point x="465" y="748" type="line"/>
      <point x="709" y="748" type="line"/>
      <point x="709" y="908" type="line"/>
      <point x="464" y="908" type="line"/>
      <point x="464" y="1183" type="line"/>
    </contour>
  </outline>
</glyph>
<glyph name="u" format="1">
  <advance width="1336"/>
  <unicode hex="0075"/>
  <outline>
    <contour>
      <point x="477" y="-21" type="curve" smooth="yes"/>
      <point x="640" y="-21"/>
      <point x="782" y="30"/>
      <point x="871" y="137" type="curve"/>
      <point x="871" y="108"/>
      <point x="871" y="43"/>
      <point x="871" y="-3" type="curve"/>
      <point x="958" y="-1"/>
      <point x="1045" y="0"/>
      <point x="1133" y="1" type="curve" smooth="yes"/>
      <point x="1183" y="1"/>
      <point x="1229" y="0"/>
      <point x="1291" y="0" type="curve"/>
      <point x="1291" y="160" type="line"/>
      <point x="1193" y="160"/>
      <point x="1167" y="169"/>
      <point x="1167" y="223" type="curve" smooth="yes"/>
      <point x="1167" y="911" type="line"/>
      <point x="1088" y="908"/>
      <point x="1009" y="907"/>
      <point x="927" y="906" type="curve" smooth="yes"/>
      <point x="847" y="906"/>
      <point x="789" y="906"/>
      <point x="725" y="907" type="curve"/>
      <point x="725" y="747" type="line"/>
      <point x="839" y="746"/>
      <point x="862" y="748"/>
      <point x="862" y="655" type="curve" smooth="yes"/>
      <point x="862" y="405" type="line" smooth="yes"/>
      <point x="862" y="353"/>
      <point x="862" y="305"/>
      <point x="848" y="265" type="curve"/>
      <point x="813" y="208"/>
      <point x="743" y="168"/>
      <point x="630" y="168" type="curve" smooth="yes"/>
      <point x="507" y="168"/>
      <point x="475" y="251"/>
      <point x="475" y="398" type="curve" smooth="yes"/>
      <point x="475" y="911" type="line"/>
      <point x="387" y="908"/>
      <point x="304" y="907"/>
      <point x="216" y="906" type="curve" smooth="yes"/>
      <point x="198" y="906"/>
      <point x="86" y="907"/>
      <point x="43" y="907" type="curve"/>
      <point x="43" y="747" type="line"/>
      <point x="145" y="746"/>
      <point x="169" y="750"/>
      <point x="169" y="674" type="curve" smooth="yes"/>
      <point x="169" y="429" type="line" smooth="yes"/>
      <point x="169" y="124"/>
      <point x="250" y="-21"/>
    </contour>
  </outline>
</glyph>
<glyph name="v" format="1">
  <advance width="1220"/>
  <unicode hex="0076"/>
  <outline>
    <contour>
      <point x="472" y="-14" type="line"/>
      <point x="755" y="-14" type="line"/>
      <point x="1040" y="605" type="line" smooth="yes"/>
      <point x="1068" y="664"/>
      <point x="1078" y="699"/>
      <point x="1099" y="715" type="curve" smooth="yes"/>
      <point x="1115" y="736"/>
      <point x="1139" y="745"/>
      <point x="1195" y="746" type="curve"/>
      <point x="1195" y="908" type="line"/>
      <point x="1127" y="907"/>
      <point x="1065" y="905"/>
      <point x="1008" y="905" type="curve" smooth="yes"/>
      <point x="921" y="905"/>
      <point x="853" y="906"/>
      <point x="741" y="908" type="curve"/>
      <point x="741" y="746" type="line"/>
      <point x="838.333333333" y="746.0"/>
      <point x="858.614285714" y="738.157142857"/>
      <point x="868" y="710" type="curve"/>
      <point x="863" y="685"/>
      <point x="853" y="657"/>
      <point x="838" y="624" type="curve" smooth="yes"/>
      <point x="808" y="554"/>
      <point x="683" y="241"/>
      <point x="652" y="172" type="curve"/>
      <point x="652" y="172"/>
      <point x="492" y="557"/>
      <point x="458" y="644" type="curve" smooth="yes"/>
      <point x="444" y="669"/>
      <point x="437" y="691"/>
      <point x="432" y="710" type="curve" smooth="yes"/>
      <point x="442.563380282" y="738.521126761"/>
      <point x="491.0" y="746.0"/>
      <point x="566" y="746" type="curve"/>
      <point x="567" y="908" type="line"/>
      <point x="447" y="907"/>
      <point x="355" y="906"/>
      <point x="269" y="906" type="curve" smooth="yes"/>
      <point x="203" y="906"/>
      <point x="118" y="908"/>
      <point x="25" y="908" type="curve"/>
      <point x="26" y="731" type="line"/>
      <point x="59" y="734"/>
      <point x="79" y="735"/>
      <point x="93" y="730" type="curve" smooth="yes"/>
      <point x="117" y="725"/>
      <point x="133" y="706"/>
      <point x="156" y="656" type="curve" smooth="yes"/>
    </contour>
  </outline>
</glyph>
<glyph name="w" format="1">
  <advance width="1808"/>
  <unicode hex="0077"/>
  <outline>
    <contour>
      <point x="29" y="908" type="curve"/>
      <point x="29" y="746" type="line"/>
      <point x="109" y="742"/>
      <point x="121" y="737"/>
      <point x="157" y="647" type="curve" smooth="yes"/>
      <point x="400" y="-14" type="line"/>
      <point x="686" y="-14" type="line"/>
      <point x="911" y="664" type="line"/>
      <point x="1131" y="-14" type="line"/>
      <point x="1416" y="-14" type="line"/>
      <point x="1642" y="612" type="line" smooth="yes"/>
      <point x="1690" y="734"/>
      <point x="1682" y="742"/>
      <point x="1779" y="746" type="curve"/>
      <point x="1779" y="908" type="line"/>
      <point x="1712" y="907"/>
      <point x="1647" y="905"/>
      <point x="1581" y="905" type="curve" smooth="yes"/>
      <point x="1513" y="905"/>
      <point x="1445" y="907"/>
      <point x="1378" y="908" type="curve"/>
      <point x="1378" y="746" type="line"/>
      <point x="1444" y="744"/>
      <point x="1471" y="740"/>
      <point x="1479" y="719" type="curve" smooth="yes"/>
      <point x="1474" y="705"/>
      <point x="1470" y="692"/>
      <point x="1466" y="677" type="curve" smooth="yes"/>
      <point x="1463" y="669"/>
      <point x="1308" y="183"/>
      <point x="1308" y="183" type="curve"/>
      <point x="1308" y="183"/>
      <point x="1224" y="475"/>
      <point x="1212" y="511" type="curve" smooth="yes"/>
      <point x="1099" y="874" type="line"/>
      <point x="803" y="874" type="line"/>
      <point x="672" y="485" type="line" smooth="yes"/>
      <point x="666" y="467"/>
      <point x="575" y="188"/>
      <point x="575" y="188" type="curve"/>
      <point x="557" y="249"/>
      <point x="498" y="422"/>
      <point x="462" y="535" type="curve" smooth="yes"/>
      <point x="446" y="587"/>
      <point x="429" y="647"/>
      <point x="424" y="696" type="curve"/>
      <point x="420" y="728"/>
      <point x="426" y="747"/>
      <point x="469" y="747" type="curve" smooth="yes"/>
      <point x="476" y="747"/>
      <point x="506" y="746"/>
      <point x="521" y="746" type="curve"/>
      <point x="521" y="756"/>
      <point x="521" y="898"/>
      <point x="521" y="908" type="curve"/>
      <point x="429" y="908"/>
      <point x="327" y="905"/>
      <point x="259" y="905" type="curve" smooth="yes"/>
      <point x="199" y="905"/>
      <point x="60" y="908"/>
    </contour>
  </outline>
</glyph>
<glyph name="x" format="1">
  <advance width="1213"/>
  <unicode hex="0078"/>
  <outline>
    <contour>
      <point x="45" y="908" type="curve"/>
      <point x="45" y="749" type="line"/>
      <point x="103" y="748"/>
      <point x="127" y="747"/>
      <point x="174" y="694" type="curve" smooth="yes"/>
      <point x="387" y="454" type="line"/>
      <point x="387" y="454"/>
      <point x="224" y="265"/>
      <point x="179" y="213" type="curve" smooth="yes"/>
      <point x="145" y="174"/>
      <point x="134" y="162"/>
      <point x="94" y="162" type="curve" smooth="yes"/>
      <point x="46" y="162" type="line"/>
      <point x="46" y="0" type="line"/>
      <point x="123" y="0"/>
      <point x="170" y="2"/>
      <point x="242" y="2" type="curve" smooth="yes"/>
      <point x="319" y="2"/>
      <point x="439" y="0"/>
      <point x="514" y="0" type="curve"/>
      <point x="515" y="162" type="line"/>
      <point x="472" y="162"/>
      <point x="452" y="164"/>
      <point x="452" y="178" type="curve" smooth="yes"/>
      <point x="452" y="187"/>
      <point x="461" y="202"/>
      <point x="478" y="225" type="curve" smooth="yes"/>
      <point x="564" y="343" type="line"/>
      <point x="647" y="257" type="line" smooth="yes"/>
      <point x="678" y="224"/>
      <point x="693" y="203"/>
      <point x="693" y="188" type="curve" smooth="yes"/>
      <point x="693" y="169"/>
      <point x="670" y="162"/>
      <point x="623" y="162" type="curve"/>
      <point x="623" y="0" type="line"/>
      <point x="668" y="1"/>
      <point x="792" y="1"/>
      <point x="863" y="1" type="curve" smooth="yes"/>
      <point x="863" y="1"/>
      <point x="1142.0" y="0.0"/>
      <point x="1168" y="0" type="curve"/>
      <point x="1168" y="162" type="line"/>
      <point x="1104" y="162"/>
      <point x="1082" y="166"/>
      <point x="1024" y="229" type="curve" smooth="yes"/>
      <point x="985" y="270"/>
      <point x="782" y="461"/>
      <point x="783" y="462" type="curve"/>
      <point x="783" y="462"/>
      <point x="922" y="620"/>
      <point x="948" y="650" type="curve" smooth="yes"/>
      <point x="1024" y="739"/>
      <point x="1037" y="748"/>
      <point x="1098" y="748" type="curve" smooth="yes"/>
      <point x="1139" y="748" type="line"/>
      <point x="1139" y="908" type="line"/>
      <point x="1066" y="906"/>
      <point x="1010" y="906"/>
      <point x="928" y="906" type="curve" smooth="yes"/>
      <point x="854" y="906"/>
      <point x="728" y="907"/>
      <point x="666" y="908" type="curve"/>
      <point x="666" y="749" type="line"/>
      <point x="723" y="749"/>
      <point x="748" y="745"/>
      <point x="748" y="729" type="curve" smooth="yes"/>
      <point x="748" y="715"/>
      <point x="731" y="694"/>
      <point x="703" y="661" type="curve" smooth="yes"/>
      <point x="624" y="569" type="line"/>
      <point x="543" y="661" type="line" smooth="yes"/>
      <point x="513" y="694"/>
      <point x="495" y="717"/>
      <point x="495" y="730" type="curve" smooth="yes"/>
      <point x="495" y="744"/>
      <point x="516" y="749"/>
      <point x="566" y="749" type="curve"/>
      <point x="566" y="908" type="line"/>
      <point x="482" y="906"/>
      <point x="362" y="905"/>
      <point x="250" y="905" type="curve" smooth="yes"/>
      <point x="185" y="905"/>
      <point x="98" y="908"/>
    </contour>
  </outline>
</glyph>
<glyph name="y" format="1">
  <advance width="1140"/>
  <unicode hex="0079"/>
  <outline>
    <contour>
      <point x="207" y="-245" type="curve"/>
      <point x="207" y="-414" type="line"/>
      <point x="233" y="-413"/>
      <point x="279" y="-413"/>
      <point x="305" y="-413" type="curve" smooth="yes"/>
      <point x="474" y="-413"/>
      <point x="544" y="-345"/>
      <point x="642" y="-135" type="curve" smooth="yes"/>
      <point x="690" y="-23"/>
      <point x="948" y="524"/>
      <point x="996" y="635" type="curve" smooth="yes"/>
      <point x="1043" y="724"/>
      <point x="1045" y="743"/>
      <point x="1157" y="746" type="curve"/>
      <point x="1155" y="755"/>
      <point x="1155" y="897"/>
      <point x="1155" y="908" type="curve"/>
      <point x="1058" y="907"/>
      <point x="982" y="906"/>
      <point x="908" y="906" type="curve" smooth="yes"/>
      <point x="839" y="906"/>
      <point x="776" y="907"/>
      <point x="687" y="908" type="curve"/>
      <point x="687" y="746" type="line"/>
      <point x="773" y="746"/>
      <point x="800" y="736"/>
      <point x="808" y="705" type="curve" smooth="yes"/>
      <point x="805" y="687"/>
      <point x="798" y="665"/>
      <point x="787" y="639" type="curve" smooth="yes"/>
      <point x="726" y="481"/>
      <point x="648" y="296"/>
      <point x="616" y="219" type="curve"/>
      <point x="463" y="569" type="line" smooth="yes"/>
      <point x="446" y="607"/>
      <point x="416" y="661"/>
      <point x="409" y="701" type="curve" smooth="yes"/>
      <point x="414" y="730"/>
      <point x="436" y="740"/>
      <point x="474" y="744" type="curve" smooth="yes"/>
      <point x="493" y="745"/>
      <point x="516" y="744"/>
      <point x="537" y="746" type="curve"/>
      <point x="537" y="908" type="line"/>
      <point x="415" y="907"/>
      <point x="322" y="906"/>
      <point x="235" y="906" type="curve" smooth="yes"/>
      <point x="169" y="906"/>
      <point x="82" y="908"/>
      <point x="-16" y="908" type="curve"/>
      <point x="-16" y="898"/>
      <point x="-16" y="742"/>
      <point x="-16" y="732" type="curve"/>
      <point x="7.82644623518" y="732.9607438"/>
      <point x="27.1854338099" y="733.256906972"/>
      <point x="43.2049647575" y="732.505394488" type="curve" smooth="yes"/>
      <point x="110.555896106" y="729.345809732"/>
      <point x="118.878099158" y="707.667355403"/>
      <point x="152" y="639" type="curve" smooth="yes"/>
      <point x="162" y="619"/>
      <point x="473" y="-52"/>
      <point x="473" y="-52" type="curve"/>
      <point x="460.597107396" y="-79.3223141432"/>
      <point x="449.712822649" y="-102.896574849"/>
      <point x="439.597922267" y="-123.210648579" type="curve" smooth="yes"/>
      <point x="393.441423013" y="-215.908203029"/>
      <point x="363.30578506" y="-240.719008267"/>
      <point x="278" y="-244" type="curve" smooth="yes"/>
      <point x="258" y="-245"/>
      <point x="235" y="-245"/>
    </contour>
  </outline>
</glyph>
<glyph name="z" format="1">
  <advance width="1090"/>
  <unicode hex="007A"/>
  <outline>
    <contour>
      <point x="90" y="906" type="line"/>
      <point x="90" y="602" type="line"/>
      <point x="213" y="602" type="line"/>
      <point x="215" y="748"/>
      <point x="227" y="762"/>
      <point x="362" y="762" type="curve" smooth="yes"/>
      <point x="647" y="762" type="line"/>
      <point x="76" y="180" type="line"/>
      <point x="76" y="0" type="line"/>
      <point x="1010" y="0" type="line"/>
      <point x="1010" y="321" type="line"/>
      <point x="979" y="321"/>
      <point x="916" y="320"/>
      <point x="883" y="320" type="curve"/>
      <point x="885" y="311"/>
      <point x="885" y="256"/>
      <point x="885" y="248" type="curve" smooth="yes"/>
      <point x="885" y="147"/>
      <point x="825" y="147"/>
      <point x="725" y="147" type="curve" smooth="yes"/>
      <point x="429" y="147" type="line"/>
      <point x="1001" y="734" type="line"/>
      <point x="1001" y="906" type="line"/>
    </contour>
  </outline>
</glyph>
<glyph name="braceleft" format="1">
  <advance width="888"/>
  <unicode hex="007B"/>
  <outline>
    <contour>
      <point x="742" y="-341" type="curve" smooth="yes"/>
      <point x="745" y="-341"/>
      <point x="773" y="-341"/>
      <point x="776" y="-340" type="curve"/>
      <point x="776" y="-181" type="line"/>
      <point x="586" y="-179"/>
      <point x="569" y="-129"/>
      <point x="569" y="180" type="curve" smooth="yes"/>
      <point x="569" y="415"/>
      <point x="512" y="515"/>
      <point x="339" y="556" type="curve"/>
      <point x="569" y="604"/>
      <point x="558" y="739"/>
      <point x="570" y="1058" type="curve" smooth="yes"/>
      <point x="575" y="1246"/>
      <point x="620" y="1287"/>
      <point x="776" y="1290" type="curve"/>
      <point x="776" y="1446" type="line"/>
      <point x="773" y="1446"/>
      <point x="735" y="1450"/>
      <point x="732" y="1450" type="curve" smooth="yes"/>
      <point x="462" y="1450"/>
      <point x="342" y="1385"/>
      <point x="342" y="1082" type="curve" smooth="yes"/>
      <point x="342" y="917" type="line" smooth="yes"/>
      <point x="342" y="718"/>
      <point x="297" y="639"/>
      <point x="110" y="629" type="curve"/>
      <point x="110" y="479" type="line"/>
      <point x="281" y="470"/>
      <point x="342" y="397"/>
      <point x="342" y="223" type="curve" smooth="yes"/>
      <point x="342" y="41" type="line" smooth="yes"/>
      <point x="342" y="-277"/>
      <point x="451" y="-341"/>
    </contour>
  </outline>
</glyph>
<glyph name="bar" format="1">
  <advance width="1115"/>
  <unicode hex="007C"/>
  <outline>
    <contour>
      <point x="661" y="1461" type="line"/>
      <point x="455" y="1461" type="line"/>
      <point x="455" y="-403" type="line"/>
      <point x="661" y="-403" type="line"/>
    </contour>
  </outline>
</glyph>
<glyph name="braceright" format="1">
  <advance width="888"/>
  <unicode hex="007D"/>
  <outline>
    <contour>
      <point x="547" y="1084" type="line"/>
      <point x="547" y="1385"/>
      <point x="426" y="1450"/>
      <point x="145" y="1450" type="curve" smooth="yes"/>
      <point x="143" y="1450"/>
      <point x="114" y="1450"/>
      <point x="112" y="1449" type="curve"/>
      <point x="112" y="1290" type="line"/>
      <point x="291" y="1286"/>
      <point x="309" y="1240"/>
      <point x="322" y="974" type="curve" smooth="yes"/>
      <point x="334" y="729"/>
      <point x="328" y="604"/>
      <point x="548" y="553" type="curve"/>
      <point x="314" y="501"/>
      <point x="333" y="366"/>
      <point x="321" y="96" type="curve" smooth="yes"/>
      <point x="308" y="-139"/>
      <point x="279" y="-177"/>
      <point x="112" y="-181" type="curve"/>
      <point x="112" y="-340" type="line"/>
      <point x="114" y="-341"/>
      <point x="141" y="-341"/>
      <point x="143" y="-341" type="curve" smooth="yes"/>
      <point x="434" y="-341"/>
      <point x="547" y="-281"/>
      <point x="547" y="51" type="curve" smooth="yes"/>
      <point x="547" y="208" type="line" smooth="yes"/>
      <point x="547" y="392"/>
      <point x="596" y="470"/>
      <point x="778" y="479" type="curve"/>
      <point x="778" y="629" type="line"/>
      <point x="583" y="641"/>
      <point x="547" y="718"/>
      <point x="547" y="941" type="curve" smooth="yes"/>
    </contour>
  </outline>
</glyph>
<glyph name="asciitilde" format="1">
  <advance width="1546"/>
  <unicode hex="007E"/>
  <outline>
    <contour>
      <point x="1397" y="641" type="curve"/>
      <point x="1397" y="846" type="line"/>
      <point x="1253" y="739"/>
      <point x="1153" y="696"/>
      <point x="1052" y="696" type="curve" smooth="yes"/>
      <point x="982" y="696"/>
      <point x="890" y="730"/>
      <point x="779" y="777" type="curve" smooth="yes"/>
      <point x="665" y="822"/>
      <point x="589" y="845"/>
      <point x="507" y="845" type="curve" smooth="yes"/>
      <point x="396" y="845"/>
      <point x="282" y="799"/>
      <point x="150" y="704" type="curve"/>
      <point x="150" y="490" type="line"/>
      <point x="295" y="601"/>
      <point x="395" y="646"/>
      <point x="502" y="646" type="curve" smooth="yes"/>
      <point x="589" y="646"/>
      <point x="690" y="600"/>
      <point x="819" y="552" type="curve" smooth="yes"/>
      <point x="906" y="516"/>
      <point x="968" y="497"/>
      <point x="1045" y="497" type="curve" smooth="yes"/>
      <point x="1154" y="497"/>
      <point x="1250" y="533"/>
    </contour>
  </outline>
</glyph>
<glyph name="cent" format="1">
  <advance width="1246"/>
  <unicode hex="00A2"/>
  <outline>
    <contour>
      <point x="590" y="-26" type="curve"/>
      <point x="590" y="-194" type="line"/>
      <point x="713" y="-194" type="line"/>
      <point x="713" y="-27" type="line"/>
      <point x="943" y="-21"/>
      <point x="1113" y="102"/>
      <point x="1165" y="291" type="curve"/>
      <point x="906" y="347" type="line"/>
      <point x="876" y="230"/>
      <point x="802" y="163"/>
      <point x="691" y="163" type="curve" smooth="yes"/>
      <point x="545" y="163"/>
      <point x="447" y="283"/>
      <point x="447" y="464" type="curve" smooth="yes"/>
      <point x="447" y="647"/>
      <point x="542" y="766"/>
      <point x="690" y="766" type="curve" smooth="yes"/>
      <point x="818" y="766"/>
      <point x="900" y="677"/>
      <point x="912" y="566" type="curve"/>
      <point x="1127" y="566" type="line"/>
      <point x="1127" y="936" type="line"/>
      <point x="916" y="936" type="line"/>
      <point x="904" y="867" type="line"/>
      <point x="849" y="915"/>
      <point x="802" y="932"/>
      <point x="713" y="947" type="curve"/>
      <point x="713" y="1119" type="line"/>
      <point x="590" y="1119" type="line"/>
      <point x="590" y="955" type="line"/>
      <point x="332" y="951"/>
      <point x="86" y="766"/>
      <point x="86" y="464" type="curve" smooth="yes"/>
      <point x="86" y="186"/>
      <point x="280" y="-4"/>
    </contour>
  </outline>
</glyph>
<glyph name="sterling" format="1">
  <advance width="1264"/>
  <unicode hex="00A3"/>
  <outline>
    <contour>
      <point x="1025" y="380" type="line"/>
      <point x="1007" y="265"/>
      <point x="967" y="221"/>
      <point x="886" y="221" type="curve" smooth="yes"/>
      <point x="822" y="221"/>
      <point x="770" y="253"/>
      <point x="701" y="310" type="curve"/>
      <point x="708" y="349"/>
      <point x="711" y="387"/>
      <point x="711" y="426" type="curve" smooth="yes"/>
      <point x="711" y="502"/>
      <point x="698" y="576"/>
      <point x="674" y="647" type="curve"/>
      <point x="957" y="647" type="line"/>
      <point x="957" y="787" type="line"/>
      <point x="615" y="787" type="line"/>
      <point x="564" y="868"/>
      <point x="529" y="962"/>
      <point x="529" y="1039" type="curve" smooth="yes"/>
      <point x="529" y="1131"/>
      <point x="591" y="1201"/>
      <point x="716" y="1201" type="curve" smooth="yes"/>
      <point x="825" y="1201"/>
      <point x="900" y="1133"/>
      <point x="911" y="1026" type="curve"/>
      <point x="1172" y="1055" type="line"/>
      <point x="1170" y="1276"/>
      <point x="1012" y="1401"/>
      <point x="707" y="1401" type="curve" smooth="yes"/>
      <point x="404" y="1401"/>
      <point x="209" y="1244"/>
      <point x="209" y="1032" type="curve" smooth="yes"/>
      <point x="209" y="956"/>
      <point x="234" y="873"/>
      <point x="288" y="787" type="curve"/>
      <point x="90" y="787" type="line"/>
      <point x="90" y="647" type="line"/>
      <point x="360" y="647" type="line"/>
      <point x="412" y="576"/>
      <point x="448" y="477"/>
      <point x="480" y="394" type="curve"/>
      <point x="429" y="437"/>
      <point x="369" y="457"/>
      <point x="305" y="457" type="curve" smooth="yes"/>
      <point x="181" y="457"/>
      <point x="56" y="374"/>
      <point x="56" y="218" type="curve" smooth="yes"/>
      <point x="56" y="81"/>
      <point x="169" y="-18"/>
      <point x="329" y="-18" type="curve" smooth="yes"/>
      <point x="430" y="-18"/>
      <point x="524" y="34"/>
      <point x="598" y="129" type="curve"/>
      <point x="688" y="28"/>
      <point x="780" y="-18"/>
      <point x="890" y="-18" type="curve" smooth="yes"/>
      <point x="1081" y="-18"/>
      <point x="1207" y="114"/>
      <point x="1226" y="334" type="curve"/>
    </contour>
    <contour>
      <point x="477" y="252" type="curve"/>
      <point x="453" y="174"/>
      <point x="378" y="126"/>
      <point x="316" y="126" type="curve" smooth="yes"/>
      <point x="268" y="126"/>
      <point x="228" y="156"/>
      <point x="228" y="223" type="curve" smooth="yes"/>
      <point x="228" y="291"/>
      <point x="269" y="323"/>
      <point x="324" y="323" type="curve" smooth="yes"/>
      <point x="371" y="323"/>
      <point x="428" y="298"/>
    </contour>
  </outline>
</glyph>
<glyph name="currency" format="1">
  <advance width="1304"/>
  <unicode hex="00A4"/>
  <outline>
    <contour>
      <point x="408" y="1146" type="curve"/>
      <point x="237" y="1316" type="line"/>
      <point x="112" y="1192" type="line"/>
      <point x="280" y="1025" type="line"/>
      <point x="228" y="951"/>
      <point x="205" y="866"/>
      <point x="205" y="778" type="curve" smooth="yes"/>
      <point x="205" y="689"/>
      <point x="228" y="612"/>
      <point x="279" y="536" type="curve"/>
      <point x="112" y="370" type="line"/>
      <point x="237" y="245" type="line"/>
      <point x="406" y="412" type="line"/>
      <point x="478" y="362"/>
      <point x="561" y="340"/>
      <point x="650" y="340" type="curve" smooth="yes"/>
      <point x="740" y="340"/>
      <point x="825" y="364"/>
      <point x="898" y="414" type="curve"/>
      <point x="1070" y="245" type="line"/>
      <point x="1195" y="370" type="line"/>
      <point x="1022" y="540" type="line"/>
      <point x="1071" y="612"/>
      <point x="1095" y="699"/>
      <point x="1095" y="780" type="curve" smooth="yes"/>
      <point x="1095" y="868"/>
      <point x="1067" y="954"/>
      <point x="1021" y="1020" type="curve"/>
      <point x="1195" y="1192" type="line"/>
      <point x="1070" y="1316" type="line"/>
      <point x="897" y="1144" type="line"/>
      <point x="822" y="1196"/>
      <point x="737" y="1221"/>
      <point x="650" y="1221" type="curve" smooth="yes"/>
      <point x="564" y="1221"/>
      <point x="478" y="1194"/>
    </contour>
    <contour>
      <point x="921" y="780" type="curve" smooth="yes"/>
      <point x="921" y="634"/>
      <point x="799" y="513"/>
      <point x="650" y="513" type="curve" smooth="yes"/>
      <point x="500" y="513"/>
      <point x="379" y="631"/>
      <point x="379" y="780" type="curve" smooth="yes"/>
      <point x="379" y="925"/>
      <point x="500" y="1047"/>
      <point x="650" y="1047" type="curve" smooth="yes"/>
      <point x="798" y="1047"/>
      <point x="921" y="926"/>
    </contour>
  </outline>
</glyph>
<glyph name="yen" format="1">
  <advance width="1276"/>
  <unicode hex="00A5"/>
  <outline>
    <contour>
      <point x="21" y="1308" type="curve"/>
      <point x="21" y="1297"/>
      <point x="22" y="1140"/>
      <point x="22" y="1130" type="curve"/>
      <point x="125" y="1129"/>
      <point x="132" y="1118"/>
      <point x="192" y="1022" type="curve" smooth="yes"/>
      <point x="304" y="843" type="line"/>
      <point x="81" y="843" type="line"/>
      <point x="81" y="739" type="line"/>
      <point x="370" y="739" type="line"/>
      <point x="450" y="616" type="line"/>
      <point x="81" y="616" type="line"/>
      <point x="81" y="511" type="line"/>
      <point x="488" y="511" type="line"/>
      <point x="503" y="453" type="line"/>
      <point x="503" y="247" type="line" smooth="yes"/>
      <point x="503" y="190"/>
      <point x="489" y="178"/>
      <point x="398" y="178" type="curve" smooth="yes"/>
      <point x="356" y="178" type="line"/>
      <point x="356" y="0" type="line"/>
      <point x="446" y="0"/>
      <point x="523" y="2"/>
      <point x="644" y="2" type="curve"/>
      <point x="781" y="1"/>
      <point x="864" y="0"/>
      <point x="964" y="0" type="curve"/>
      <point x="964" y="178" type="line"/>
      <point x="922" y="178" type="line" smooth="yes"/>
      <point x="833" y="178"/>
      <point x="815" y="188"/>
      <point x="815" y="251" type="curve" smooth="yes"/>
      <point x="815" y="454" type="line"/>
      <point x="815" y="454"/>
      <point x="821" y="497"/>
      <point x="830" y="511" type="curve"/>
      <point x="1244" y="511" type="line"/>
      <point x="1244" y="616" type="line"/>
      <point x="869" y="616" type="line"/>
      <point x="951" y="739" type="line"/>
      <point x="1244" y="739" type="line"/>
      <point x="1244" y="843" type="line"/>
      <point x="1022" y="843" type="line"/>
      <point x="1047" y="881"/>
      <point x="1134" y="1016"/>
      <point x="1148" y="1036" type="curve" smooth="yes"/>
      <point x="1199" y="1114"/>
      <point x="1210" y="1130"/>
      <point x="1300" y="1130" type="curve"/>
      <point x="1300" y="1308" type="line"/>
      <point x="1250" y="1307"/>
      <point x="1204" y="1307"/>
      <point x="1077" y="1305" type="curve" smooth="yes"/>
      <point x="939" y="1307"/>
      <point x="892" y="1307"/>
      <point x="820" y="1308" type="curve"/>
      <point x="820" y="1130" type="line"/>
      <point x="842" y="1130" type="line" smooth="yes"/>
      <point x="908" y="1130"/>
      <point x="933" y="1121"/>
      <point x="933" y="1098" type="curve" smooth="yes"/>
      <point x="933" y="1076"/>
      <point x="911" y="1043"/>
      <point x="887" y="1002" type="curve" smooth="yes"/>
      <point x="699" y="681" type="line"/>
      <point x="511" y="1020" type="line" smooth="yes"/>
      <point x="492" y="1055"/>
      <point x="481" y="1078"/>
      <point x="481" y="1095" type="curve" smooth="yes"/>
      <point x="481" y="1121"/>
      <point x="509" y="1130"/>
      <point x="577" y="1130" type="curve" smooth="yes"/>
      <point x="596" y="1130" type="line"/>
      <point x="596" y="1308" type="line"/>
      <point x="493" y="1307"/>
      <point x="423" y="1306"/>
      <point x="266" y="1304" type="curve" smooth="yes"/>
      <point x="94" y="1306"/>
      <point x="57" y="1307"/>
    </contour>
  </outline>
</glyph>
<glyph name="brokenbar" format="1">
  <advance width="1115"/>
  <unicode hex="00A6"/>
  <outline>
    <contour>
      <point x="661" y="616" type="line"/>
      <point x="455" y="616" type="line"/>
      <point x="455" y="-120" type="line"/>
      <point x="661" y="-120" type="line"/>
    </contour>
    <contour>
      <point x="661" y="1177" type="line"/>
      <point x="455" y="1177" type="line"/>
      <point x="455" y="439" type="line"/>
      <point x="661" y="439" type="line"/>
    </contour>
  </outline>
</glyph>
<glyph name="section" format="1">
  <advance width="1153"/>
  <unicode hex="00A7"/>
  <outline>
    <contour>
      <point x="569" y="1336" type="curve" smooth="yes"/>
      <point x="307" y="1336"/>
      <point x="149" y="1223"/>
      <point x="149" y="1034" type="curve" smooth="yes"/>
      <point x="149" y="938"/>
      <point x="186" y="863"/>
      <point x="259" y="807" type="curve"/>
      <point x="146" y="730"/>
      <point x="90" y="645"/>
      <point x="90" y="535" type="curve" smooth="yes"/>
      <point x="90" y="328"/>
      <point x="256" y="241"/>
      <point x="537" y="138" type="curve" smooth="yes"/>
      <point x="686" y="81"/>
      <point x="778" y="28"/>
      <point x="778" y="-60" type="curve" smooth="yes"/>
      <point x="778" y="-159"/>
      <point x="704" y="-211"/>
      <point x="572" y="-211" type="curve" smooth="yes"/>
      <point x="410" y="-211"/>
      <point x="341" y="-143"/>
      <point x="332" y="-8" type="curve"/>
      <point x="156" y="-8" type="line"/>
      <point x="163" y="-219" type="line"/>
      <point x="263" y="-303"/>
      <point x="416" y="-334"/>
      <point x="578" y="-334" type="curve" smooth="yes"/>
      <point x="852" y="-334"/>
      <point x="1016" y="-218"/>
      <point x="1016" y="-21" type="curve" smooth="yes"/>
      <point x="1016" y="73"/>
      <point x="976" y="143"/>
      <point x="895" y="206" type="curve"/>
      <point x="1005" y="268"/>
      <point x="1064" y="356"/>
      <point x="1064" y="467" type="curve" smooth="yes"/>
      <point x="1064" y="658"/>
      <point x="948" y="756"/>
      <point x="639" y="867" type="curve" smooth="yes"/>
      <point x="455" y="934"/>
      <point x="376" y="965"/>
      <point x="376" y="1062" type="curve" smooth="yes"/>
      <point x="376" y="1156"/>
      <point x="455" y="1213"/>
      <point x="574" y="1213" type="curve" smooth="yes"/>
      <point x="718" y="1213"/>
      <point x="790" y="1147"/>
      <point x="807" y="1005" type="curve"/>
      <point x="995" y="1005" type="line"/>
      <point x="985" y="1226"/>
      <point x="795" y="1336"/>
    </contour>
    <contour>
      <point x="392" y="727" type="curve"/>
      <point x="621" y="622"/>
      <point x="846" y="588"/>
      <point x="846" y="427" type="curve" smooth="yes"/>
      <point x="846" y="371"/>
      <point x="821" y="321"/>
      <point x="764" y="279" type="curve"/>
      <point x="558" y="378"/>
      <point x="313" y="427"/>
      <point x="313" y="582" type="curve" smooth="yes"/>
      <point x="313" y="628"/>
      <point x="334" y="675"/>
    </contour>
  </outline>
</glyph>
<glyph name="dieresis" format="1">
  <advance width="853"/>
  <unicode hex="00A8"/>
  <outline>
    <contour>
      <point x="200" y="1359" type="curve" smooth="yes"/>
      <point x="125" y="1359"/>
      <point x="68" y="1304"/>
      <point x="68" y="1231" type="curve" smooth="yes"/>
      <point x="68" y="1157"/>
      <point x="123" y="1102"/>
      <point x="199" y="1102" type="curve" smooth="yes"/>
      <point x="274" y="1102"/>
      <point x="329" y="1156"/>
      <point x="329" y="1231" type="curve" smooth="yes"/>
      <point x="329" y="1305"/>
      <point x="273" y="1359"/>
    </contour>
    <contour>
      <point x="656" y="1359" type="curve" smooth="yes"/>
      <point x="582" y="1359"/>
      <point x="525" y="1303"/>
      <point x="525" y="1231" type="curve" smooth="yes"/>
      <point x="525" y="1158"/>
      <point x="580" y="1102"/>
      <point x="656" y="1102" type="curve" smooth="yes"/>
      <point x="731" y="1102"/>
      <point x="785" y="1157"/>
      <point x="785" y="1231" type="curve" smooth="yes"/>
      <point x="785" y="1304"/>
      <point x="730" y="1359"/>
    </contour>
  </outline>
</glyph>
<glyph name="copyright" format="1">
  <advance width="1680"/>
  <unicode hex="00A9"/>
  <outline>
    <contour>
      <point x="1198" y="1111" type="line"/>
      <point x="1085" y="1115" type="line"/>
      <point x="1082" y="988" type="line"/>
      <point x="1041" y="1056"/>
      <point x="951" y="1106"/>
      <point x="842" y="1106" type="curve" smooth="yes"/>
      <point x="623" y="1106"/>
      <point x="426" y="943"/>
      <point x="426" y="693" type="curve" smooth="yes"/>
      <point x="426" y="453"/>
      <point x="593" y="266"/>
      <point x="825" y="266" type="curve" smooth="yes"/>
      <point x="991" y="266"/>
      <point x="1124" y="339"/>
      <point x="1197" y="513" type="curve"/>
      <point x="1092" y="546" type="line"/>
      <point x="1037" y="428"/>
      <point x="944" y="372"/>
      <point x="849" y="372" type="curve" smooth="yes"/>
      <point x="713" y="372"/>
      <point x="611" y="485"/>
      <point x="611" y="702" type="curve" smooth="yes"/>
      <point x="611" y="909"/>
      <point x="718" y="1016"/>
      <point x="851" y="1016" type="curve" smooth="yes"/>
      <point x="954" y="1016"/>
      <point x="1042" y="951"/>
      <point x="1078" y="826" type="curve"/>
      <point x="1198" y="831" type="line"/>
    </contour>
    <contour>
      <point x="1463" y="696" type="curve" smooth="yes"/>
      <point x="1463" y="366"/>
      <point x="1191" y="75"/>
      <point x="839" y="75" type="curve" smooth="yes"/>
      <point x="513" y="75"/>
      <point x="217" y="336"/>
      <point x="217" y="696" type="curve" smooth="yes"/>
      <point x="217" y="1025"/>
      <point x="485" y="1321"/>
      <point x="840" y="1321" type="curve" smooth="yes"/>
      <point x="1172" y="1321"/>
      <point x="1463" y="1048"/>
    </contour>
    <contour>
      <point x="841" y="1427" type="curve" smooth="yes"/>
      <point x="445" y="1427"/>
      <point x="102" y="1108"/>
      <point x="102" y="696" type="curve" smooth="yes"/>
      <point x="102" y="312"/>
      <point x="416" y="-32"/>
      <point x="840" y="-32" type="curve" smooth="yes"/>
      <point x="1228" y="-32"/>
      <point x="1579" y="279"/>
      <point x="1579" y="696" type="curve" smooth="yes"/>
      <point x="1579" y="1082"/>
      <point x="1260" y="1427"/>
    </contour>
  </outline>
</glyph>
<glyph name="ordfeminine" format="1">
  <advance width="1054"/>
  <unicode hex="00AA"/>
  <outline>
    <contour>
      <point x="837" y="1081" type="line" smooth="yes"/>
      <point x="837" y="1245"/>
      <point x="739" y="1308"/>
      <point x="504" y="1308" type="curve" smooth="yes"/>
      <point x="354" y="1308"/>
      <point x="255" y="1276"/>
      <point x="228" y="1264" type="curve"/>
      <point x="224" y="1128" type="line"/>
      <point x="336" y="1118" type="line"/>
      <point x="352" y="1183"/>
      <point x="400" y="1216"/>
      <point x="483" y="1216" type="curve" smooth="yes"/>
      <point x="583" y="1216"/>
      <point x="629" y="1172"/>
      <point x="629" y="1104" type="curve" smooth="yes"/>
      <point x="629" y="1026" type="line"/>
      <point x="577" y="1039"/>
      <point x="516" y="1046"/>
      <point x="458" y="1046" type="curve" smooth="yes"/>
      <point x="277" y="1046"/>
      <point x="167" y="970"/>
      <point x="167" y="848" type="curve" smooth="yes"/>
      <point x="167" y="743"/>
      <point x="247" y="657"/>
      <point x="403" y="657" type="curve" smooth="yes"/>
      <point x="532" y="657"/>
      <point x="599" y="696"/>
      <point x="639" y="759" type="curve"/>
      <point x="659" y="670" type="line"/>
      <point x="710" y="672"/>
      <point x="738" y="672"/>
      <point x="789" y="673" type="curve" smooth="yes"/>
      <point x="811" y="673"/>
      <point x="909" y="672"/>
      <point x="923" y="672" type="curve"/>
      <point x="923" y="781" type="line"/>
      <point x="890" y="781" type="line" smooth="yes"/>
      <point x="844" y="781"/>
      <point x="837" y="782"/>
      <point x="837" y="857" type="curve" smooth="yes"/>
    </contour>
    <contour>
      <point x="517" y="975" type="curve" smooth="yes"/>
      <point x="555" y="975"/>
      <point x="591" y="971"/>
      <point x="629" y="960" type="curve"/>
      <point x="629" y="890" type="line" smooth="yes"/>
      <point x="629" y="805"/>
      <point x="570" y="756"/>
      <point x="482" y="756" type="curve" smooth="yes"/>
      <point x="416" y="756"/>
      <point x="367" y="797"/>
      <point x="367" y="864" type="curve" smooth="yes"/>
      <point x="367" y="934"/>
      <point x="422" y="975"/>
    </contour>
  </outline>
</glyph>
<glyph name="guillemotleft" format="1">
  <advance width="1232"/>
  <unicode hex="00AB"/>
  <outline>
    <contour>
      <point x="338" y="851" type="line"/>
      <point x="98" y="454" type="line"/>
      <point x="338" y="59" type="line"/>
      <point x="623" y="59" type="line"/>
      <point x="380" y="454" type="line"/>
      <point x="623" y="851" type="line"/>
    </contour>
    <contour>
      <point x="872" y="851" type="line"/>
      <point x="638" y="454" type="line"/>
      <point x="872" y="59" type="line"/>
      <point x="1157" y="59" type="line"/>
      <point x="913" y="454" type="line"/>
      <point x="1157" y="851" type="line"/>
    </contour>
  </outline>
</glyph>
<glyph name="logicalnot" format="1">
  <advance width="1537"/>
  <unicode hex="00AC"/>
  <outline>
    <contour>
      <point x="1348" y="949" type="line"/>
      <point x="187" y="949" type="line"/>
      <point x="187" y="752" type="line"/>
      <point x="1152" y="752" type="line"/>
      <point x="1152" y="337" type="line"/>
      <point x="1348" y="337" type="line"/>
    </contour>
  </outline>
</glyph>
<glyph name="registered" format="1">
  <advance width="1680"/>
  <unicode hex="00AE"/>
  <outline>
    <contour>
      <point x="1192" y="399" type="line"/>
      <point x="1107" y="399"/>
      <point x="1102" y="511"/>
      <point x="1093" y="550" type="curve" smooth="yes"/>
      <point x="1074" y="638"/>
      <point x="1021" y="668"/>
      <point x="954" y="693" type="curve"/>
      <point x="1090" y="720"/>
      <point x="1167" y="796"/>
      <point x="1167" y="890" type="curve" smooth="yes"/>
      <point x="1167" y="1074"/>
      <point x="983" y="1108"/>
      <point x="788" y="1108" type="curve" smooth="yes"/>
      <point x="479" y="1108" type="line"/>
      <point x="479" y="1041" type="line"/>
      <point x="543" y="1037"/>
      <point x="550" y="1012"/>
      <point x="550" y="966" type="curve" smooth="yes"/>
      <point x="550" y="463" type="line" smooth="yes"/>
      <point x="550" y="418"/>
      <point x="545" y="395"/>
      <point x="479" y="392" type="curve"/>
      <point x="479" y="304" type="line"/>
      <point x="501" y="304"/>
      <point x="572" y="305"/>
      <point x="605" y="305" type="curve"/>
      <point x="643" y="305"/>
      <point x="722" y="304"/>
      <point x="759" y="304" type="curve"/>
      <point x="759" y="392" type="line"/>
      <point x="701" y="394"/>
      <point x="690" y="407"/>
      <point x="690" y="444" type="curve" smooth="yes"/>
      <point x="690" y="668" type="line"/>
      <point x="770" y="668" type="line" smooth="yes"/>
      <point x="858" y="668"/>
      <point x="915" y="647"/>
      <point x="939" y="553" type="curve"/>
      <point x="964" y="419"/>
      <point x="1000" y="312"/>
      <point x="1126" y="312" type="curve"/>
      <point x="1228" y="312" type="line"/>
      <point x="1228" y="399" type="line"/>
    </contour>
    <contour>
      <point x="690" y="1012" type="line"/>
      <point x="690" y="1012"/>
      <point x="801" y="1013"/>
      <point x="825" y="1013" type="curve" smooth="yes"/>
      <point x="950" y="1013"/>
      <point x="1009" y="976"/>
      <point x="1009" y="877" type="curve" smooth="yes"/>
      <point x="1009" y="784"/>
      <point x="934" y="751"/>
      <point x="791" y="751" type="curve" smooth="yes"/>
      <point x="778" y="751"/>
      <point x="703" y="751"/>
      <point x="690" y="751" type="curve"/>
    </contour>
    <contour>
      <point x="1463" y="696" type="curve" smooth="yes"/>
      <point x="1463" y="366"/>
      <point x="1191" y="75"/>
      <point x="839" y="75" type="curve" smooth="yes"/>
      <point x="513" y="75"/>
      <point x="217" y="336"/>
      <point x="217" y="696" type="curve" smooth="yes"/>
      <point x="217" y="1026"/>
      <point x="487" y="1321"/>
      <point x="840" y="1321" type="curve" smooth="yes"/>
      <point x="1169" y="1321"/>
      <point x="1463" y="1052"/>
    </contour>
    <contour>
      <point x="841" y="1427" type="curve" smooth="yes"/>
      <point x="445" y="1427"/>
      <point x="102" y="1108"/>
      <point x="102" y="696" type="curve" smooth="yes"/>
      <point x="102" y="313"/>
      <point x="416" y="-32"/>
      <point x="839" y="-32" type="curve" smooth="yes"/>
      <point x="1228" y="-32"/>
      <point x="1579" y="279"/>
      <point x="1579" y="696" type="curve" smooth="yes"/>
      <point x="1579" y="1081"/>
      <point x="1264" y="1427"/>
    </contour>
  </outline>
</glyph>
<glyph name="macron" format="1">
  <advance width="682"/>
  <unicode hex="00AF"/>
  <outline>
    <contour>
      <point x="-110" y="1214" type="line"/>
      <point x="793" y="1214" type="line"/>
      <point x="793" y="1368" type="line"/>
      <point x="-110" y="1368" type="line"/>
    </contour>
  </outline>
</glyph>
<glyph name="degree" format="1">
  <advance width="746"/>
  <unicode hex="00B0"/>
  <outline>
    <contour>
      <point x="561" y="1098" type="curve" smooth="yes"/>
      <point x="561" y="995"/>
      <point x="476" y="912"/>
      <point x="373" y="912" type="curve" smooth="yes"/>
      <point x="265" y="912"/>
      <point x="184" y="998"/>
      <point x="184" y="1098" type="curve" smooth="yes"/>
      <point x="184" y="1200"/>
      <point x="264" y="1285"/>
      <point x="373" y="1285" type="curve" smooth="yes"/>
      <point x="481" y="1285"/>
      <point x="561" y="1195"/>
    </contour>
    <contour>
      <point x="374" y="1421" type="curve" smooth="yes"/>
      <point x="193" y="1421"/>
      <point x="47" y="1277"/>
      <point x="47" y="1098" type="curve" smooth="yes"/>
      <point x="47" y="920"/>
      <point x="192" y="776"/>
      <point x="373" y="776" type="curve" smooth="yes"/>
      <point x="550" y="776"/>
      <point x="699" y="918"/>
      <point x="699" y="1098" type="curve" smooth="yes"/>
      <point x="699" y="1276"/>
      <point x="554" y="1421"/>
    </contour>
  </outline>
</glyph>
<glyph name="plusminus" format="1">
  <advance width="1537"/>
  <unicode hex="00B1"/>
  <outline>
    <contour>
      <point x="868" y="1297" type="line"/>
      <point x="669" y="1297" type="line"/>
      <point x="669" y="932" type="line"/>
      <point x="188" y="932" type="line"/>
      <point x="188" y="736" type="line"/>
      <point x="669" y="736" type="line"/>
      <point x="669" y="371" type="line"/>
      <point x="868" y="371" type="line"/>
      <point x="868" y="736" type="line"/>
      <point x="1348" y="736" type="line"/>
      <point x="1348" y="932" type="line"/>
      <point x="868" y="932" type="line"/>
    </contour>
    <contour>
      <point x="1348" y="211" type="line"/>
      <point x="188" y="211" type="line"/>
      <point x="188" y="15" type="line"/>
      <point x="1348" y="15" type="line"/>
    </contour>
  </outline>
</glyph>
<glyph name="threesuperior" format="1">
  <advance width="1258"/>
  <unicode hex="00B3"/>
  <outline>
    <contour>
      <point x="134" y="867" type="line"/>
      <point x="140" y="617"/>
      <point x="284" y="551"/>
      <point x="425" y="551" type="curve" smooth="yes"/>
      <point x="635" y="551"/>
      <point x="760" y="646"/>
      <point x="760" y="807" type="curve" smooth="yes"/>
      <point x="760" y="895"/>
      <point x="710" y="970"/>
      <point x="606" y="991" type="curve"/>
      <point x="696" y="1010"/>
      <point x="738" y="1077"/>
      <point x="738" y="1144" type="curve" smooth="yes"/>
      <point x="738" y="1292"/>
      <point x="624" y="1378"/>
      <point x="437" y="1378" type="curve" smooth="yes"/>
      <point x="328" y="1378"/>
      <point x="230" y="1349"/>
      <point x="150" y="1296" type="curve"/>
      <point x="150" y="1091" type="line"/>
      <point x="342" y="1088" type="line"/>
      <point x="342" y="1167"/>
      <point x="366" y="1213"/>
      <point x="432" y="1213" type="curve" smooth="yes"/>
      <point x="479" y="1213"/>
      <point x="509" y="1181"/>
      <point x="509" y="1134" type="curve" smooth="yes"/>
      <point x="509" y="1077"/>
      <point x="454" y="1050"/>
      <point x="356" y="1040" type="curve"/>
      <point x="356" y="914" type="line"/>
      <point x="464" y="912"/>
      <point x="537" y="887"/>
      <point x="537" y="822" type="curve" smooth="yes"/>
      <point x="537" y="759"/>
      <point x="493" y="727"/>
      <point x="439" y="727" type="curve" smooth="yes"/>
      <point x="366" y="727"/>
      <point x="326" y="772"/>
      <point x="325" y="872" type="curve"/>
    </contour>
  </outline>
</glyph>
<glyph name="acute" format="1">
  <advance width="853"/>
  <unicode hex="00B4"/>
  <outline>
    <contour>
      <point x="242" y="1048" type="line"/>
      <point x="381" y="1048" type="line"/>
      <point x="743" y="1337" type="line" smooth="yes"/>
      <point x="760" y="1353"/>
      <point x="671" y="1405"/>
      <point x="589" y="1405" type="curve" smooth="yes"/>
      <point x="538" y="1405"/>
      <point x="488" y="1379"/>
      <point x="458" y="1338" type="curve" smooth="yes"/>
    </contour>
  </outline>
</glyph>
<glyph name="mu" format="1">
  <advance width="1229"/>
  <unicode hex="00B5"/>
  <outline>
    <contour>
      <point x="223" y="-433" type="curve" smooth="yes"/>
      <point x="302" y="-433"/>
      <point x="350" y="-393"/>
      <point x="365" y="-277" type="curve" smooth="yes"/>
      <point x="372" y="-212"/>
      <point x="374" y="-105"/>
      <point x="374" y="-3" type="curve"/>
      <point x="401" y="-15"/>
      <point x="435" y="-21"/>
      <point x="477" y="-21" type="curve" smooth="yes"/>
      <point x="640" y="-21"/>
      <point x="782" y="30"/>
      <point x="871" y="137" type="curve"/>
      <point x="871" y="108"/>
      <point x="871" y="25"/>
      <point x="871" y="-3" type="curve"/>
      <point x="958" y="-1"/>
      <point x="1045" y="0"/>
      <point x="1133" y="1" type="curve" smooth="yes"/>
      <point x="1183" y="1"/>
      <point x="1229" y="0"/>
      <point x="1291" y="0" type="curve"/>
      <point x="1291" y="160" type="line"/>
      <point x="1193" y="160"/>
      <point x="1167" y="169"/>
      <point x="1167" y="223" type="curve" smooth="yes"/>
      <point x="1167" y="911" type="line"/>
      <point x="1088" y="908"/>
      <point x="1009" y="907"/>
      <point x="927" y="906" type="curve" smooth="yes"/>
      <point x="847" y="906"/>
      <point x="789" y="906"/>
      <point x="725" y="907" type="curve"/>
      <point x="725" y="747" type="line"/>
      <point x="839" y="746"/>
      <point x="862" y="748"/>
      <point x="862" y="655" type="curve" smooth="yes"/>
      <point x="862" y="449" type="line"/>
      <point x="862" y="418"/>
      <point x="862" y="285"/>
      <point x="848" y="265" type="curve"/>
      <point x="813" y="208"/>
      <point x="743" y="168"/>
      <point x="630" y="168" type="curve" smooth="yes"/>
      <point x="507" y="168"/>
      <point x="475" y="251"/>
      <point x="475" y="398" type="curve" smooth="yes"/>
      <point x="475" y="911" type="line"/>
      <point x="387" y="908"/>
      <point x="304" y="907"/>
      <point x="216" y="906" type="curve" smooth="yes"/>
      <point x="198" y="906"/>
      <point x="86" y="907"/>
      <point x="43" y="907" type="curve"/>
      <point x="43" y="747" type="line"/>
      <point x="145" y="746"/>
      <point x="169" y="750"/>
      <point x="169" y="674" type="curve" smooth="yes"/>
      <point x="169" y="424" type="line" smooth="yes"/>
      <point x="169" y="200"/>
      <point x="121" y="-111"/>
      <point x="121" y="-304" type="curve" smooth="yes"/>
      <point x="121" y="-411"/>
      <point x="176" y="-433"/>
    </contour>
  </outline>
</glyph>
<glyph name="paragraph" format="1">
  <advance width="1387"/>
  <unicode hex="00B6"/>
  <outline>
    <contour>
      <point x="1287" y="1257" type="line"/>
      <point x="1287" y="1431" type="line"/>
      <point x="672" y="1431" type="line" smooth="yes"/>
      <point x="344" y="1431"/>
      <point x="109" y="1341"/>
      <point x="109" y="1052" type="curve" smooth="yes"/>
      <point x="109" y="822"/>
      <point x="256" y="666"/>
      <point x="589" y="662" type="curve"/>
      <point x="589" y="-220" type="line"/>
      <point x="771" y="-220" type="line"/>
      <point x="771" y="1257" type="line"/>
      <point x="964" y="1257" type="line"/>
      <point x="964" y="-220" type="line"/>
      <point x="1144" y="-220" type="line"/>
      <point x="1144" y="1257" type="line"/>
    </contour>
  </outline>
</glyph>
<glyph name="periodcentered" format="1">
  <advance width="646"/>
  <unicode hex="00B7"/>
  <outline>
    <contour>
      <point x="318" y="869" type="curve" smooth="yes"/>
      <point x="211" y="869"/>
      <point x="145" y="817"/>
      <point x="145" y="748" type="curve" smooth="yes"/>
      <point x="145" y="671"/>
      <point x="209" y="626"/>
      <point x="318" y="626" type="curve" smooth="yes"/>
      <point x="429" y="626"/>
      <point x="490" y="678"/>
      <point x="490" y="748" type="curve" smooth="yes"/>
      <point x="490" y="820"/>
      <point x="421" y="869"/>
    </contour>
  </outline>
</glyph>
<glyph name="cedilla" format="1">
  <advance width="853"/>
  <unicode hex="00B8"/>
  <outline>
    <contour>
      <point x="374" y="-3" type="line"/>
      <point x="364" y="-181" type="line"/>
      <point x="374" y="-178"/>
      <point x="385" y="-177"/>
      <point x="395" y="-177" type="curve" smooth="yes"/>
      <point x="452" y="-178"/>
      <point x="489" y="-199"/>
      <point x="489" y="-247" type="curve" smooth="yes"/>
      <point x="489" y="-300"/>
      <point x="453" y="-326"/>
      <point x="385" y="-326" type="curve" smooth="yes"/>
      <point x="342" y="-326"/>
      <point x="287" y="-314"/>
      <point x="236" y="-293" type="curve"/>
      <point x="210" y="-384" type="line"/>
      <point x="299" y="-423"/>
      <point x="377" y="-434"/>
      <point x="436" y="-434" type="curve" smooth="yes"/>
      <point x="589" y="-432"/>
      <point x="689" y="-368"/>
      <point x="689" y="-253" type="curve" smooth="yes"/>
      <point x="689" y="-148"/>
      <point x="610" y="-76"/>
      <point x="491" y="-76" type="curve" smooth="yes"/>
      <point x="483" y="-76"/>
      <point x="472" y="-76"/>
      <point x="467" y="-77" type="curve"/>
      <point x="470" y="-3" type="line"/>
    </contour>
  </outline>
</glyph>
<glyph name="ordmasculine" format="1">
  <advance width="857"/>
  <unicode hex="00BA"/>
  <outline>
    <contour>
      <point x="431" y="1213" type="curve" smooth="yes"/>
      <point x="530" y="1213"/>
      <point x="588" y="1140"/>
      <point x="588" y="1016" type="curve" smooth="yes"/>
      <point x="588" y="888"/>
      <point x="530" y="816"/>
      <point x="428" y="816" type="curve" smooth="yes"/>
      <point x="325" y="816"/>
      <point x="269" y="888"/>
      <point x="269" y="1013" type="curve" smooth="yes"/>
      <point x="269" y="1142"/>
      <point x="328" y="1213"/>
    </contour>
    <contour>
      <point x="424" y="1331" type="curve" smooth="yes"/>
      <point x="199" y="1331"/>
      <point x="47" y="1208"/>
      <point x="47" y="1014" type="curve" smooth="yes"/>
      <point x="47" y="816"/>
      <point x="199" y="694"/>
      <point x="431" y="694" type="curve" smooth="yes"/>
      <point x="657" y="694"/>
      <point x="810" y="816"/>
      <point x="810" y="1014" type="curve" smooth="yes"/>
      <point x="810" y="1211"/>
      <point x="653" y="1331"/>
    </contour>
  </outline>
</glyph>
<glyph name="guillemotright" format="1">
  <advance width="1232"/>
  <unicode hex="00BB"/>
  <outline>
    <contour>
      <point x="148" y="851" type="line"/>
      <point x="392" y="456" type="line"/>
      <point x="148" y="59" type="line"/>
      <point x="433" y="59" type="line"/>
      <point x="673" y="456" type="line"/>
      <point x="433" y="851" type="line"/>
    </contour>
    <contour>
      <point x="536" y="851" type="line"/>
      <point x="779" y="456" type="line"/>
      <point x="520" y="59" type="line"/>
      <point x="822" y="59" type="line"/>
      <point x="1061" y="456" type="line"/>
      <point x="822" y="851" type="line"/>
    </contour>
  </outline>
</glyph>
<glyph name="AE" format="1">
  <advance width="2010"/>
  <unicode hex="00C6"/>
  <outline>
    <contour>
      <point x="133" y="339" type="line"/>
      <point x="62" y="219"/>
      <point x="47" y="178"/>
      <point x="-61" y="178" type="curve"/>
      <point x="-61" y="0" type="line"/>
      <point x="38" y="1"/>
      <point x="109" y="2"/>
      <point x="213" y="2" type="curve" smooth="yes"/>
      <point x="300" y="2"/>
      <point x="371" y="1"/>
      <point x="457" y="0" type="curve"/>
      <point x="457" y="178" type="line"/>
      <point x="400" y="178" type="line" smooth="yes"/>
      <point x="337" y="178"/>
      <point x="309" y="183"/>
      <point x="309" y="207" type="curve" smooth="yes"/>
      <point x="309" y="227"/>
      <point x="327" y="260"/>
      <point x="359" y="314" type="curve" smooth="yes"/>
      <point x="472" y="508" type="line"/>
      <point x="906" y="508" type="line"/>
      <point x="906" y="233" type="line" smooth="yes"/>
      <point x="906" y="203"/>
      <point x="904" y="178"/>
      <point x="791" y="178" type="curve" smooth="yes"/>
      <point x="747" y="178" type="line"/>
      <point x="747" y="0" type="line"/>
      <point x="1912" y="0" type="line"/>
      <point x="1912" y="386" type="line"/>
      <point x="1718" y="386" type="line"/>
      <point x="1718" y="204"/>
      <point x="1708" y="197"/>
      <point x="1661" y="197" type="curve" smooth="yes"/>
      <point x="1234" y="197" type="line"/>
      <point x="1234" y="583" type="line"/>
      <point x="1485" y="583" type="line" smooth="yes"/>
      <point x="1513" y="583"/>
      <point x="1531" y="583"/>
      <point x="1531" y="501" type="curve"/>
      <point x="1613" y="501" type="line"/>
      <point x="1613" y="832" type="line"/>
      <point x="1531" y="832" type="line"/>
      <point x="1531" y="749"/>
      <point x="1509" y="749"/>
      <point x="1484" y="749" type="curve" smooth="yes"/>
      <point x="1234" y="749" type="line"/>
      <point x="1234" y="1112" type="line"/>
      <point x="1651" y="1112" type="line" smooth="yes"/>
      <point x="1691" y="1112"/>
      <point x="1712" y="1111"/>
      <point x="1712" y="987" type="curve" smooth="yes"/>
      <point x="1712" y="942" type="line"/>
      <point x="1908" y="942" type="line"/>
      <point x="1908" y="1308" type="line"/>
      <point x="714" y="1308" type="line"/>
      <point x="598" y="1117" type="line"/>
    </contour>
    <contour>
      <point x="826" y="1130" type="line"/>
      <point x="902" y="1130" type="line"/>
      <point x="902" y="673" type="line"/>
      <point x="559" y="673" type="line"/>
    </contour>
  </outline>
</glyph>
<glyph name="Eth" format="1">
  <advance width="1584"/>
  <unicode hex="00D0"/>
  <outline>
    <contour>
      <point x="66" y="792" type="line"/>
      <point x="66" y="527" type="line"/>
      <point x="727" y="527" type="line"/>
      <point x="727" y="792" type="line"/>
    </contour>
    <component base="D"/>
  </outline>
</glyph>
<glyph name="multiply" format="1">
  <advance width="1536"/>
  <unicode hex="00D7"/>
  <outline>
    <contour>
      <point x="771" y="776" type="line"/>
      <point x="357" y="1184" type="line"/>
      <point x="220" y="1046" type="line"/>
      <point x="631" y="637" type="line"/>
      <point x="219" y="230" type="line"/>
      <point x="357" y="90" type="line"/>
      <point x="771" y="499" type="line"/>
      <point x="1184" y="90" type="line"/>
      <point x="1324" y="230" type="line"/>
      <point x="911" y="637" type="line"/>
      <point x="1323" y="1046" type="line"/>
      <point x="1184" y="1184" type="line"/>
    </contour>
  </outline>
</glyph>
<glyph name="Oslash" format="1">
  <advance width="1575"/>
  <unicode hex="00D8"/>
  <outline>
    <contour>
      <point x="292" y="-78" type="line"/>
      <point x="404" y="72" type="line"/>
      <point x="511" y="4"/>
      <point x="633" y="-26"/>
      <point x="787" y="-26" type="curve" smooth="yes"/>
      <point x="1209" y="-26"/>
      <point x="1475" y="245"/>
      <point x="1475" y="650" type="curve" smooth="yes"/>
      <point x="1475" y="876"/>
      <point x="1400" y="1045"/>
      <point x="1271" y="1160" type="curve"/>
      <point x="1393" y="1319" type="line"/>
      <point x="1261" y="1364" type="line"/>
      <point x="1164" y="1237" type="line"/>
      <point x="1064" y="1301"/>
      <point x="930" y="1335"/>
      <point x="787" y="1335" type="curve" smooth="yes"/>
      <point x="361" y="1335"/>
      <point x="99" y="1054"/>
      <point x="99" y="649" type="curve" smooth="yes"/>
      <point x="99" y="441"/>
      <point x="165" y="272"/>
      <point x="295" y="151" type="curve"/>
      <point x="161" y="-27" type="line"/>
    </contour>
    <contour>
      <point x="513" y="421" type="line"/>
      <point x="472" y="491"/>
      <point x="457" y="562"/>
      <point x="457" y="649" type="curve" smooth="yes"/>
      <point x="457" y="969"/>
      <point x="566" y="1147"/>
      <point x="788" y="1147" type="curve" smooth="yes"/>
      <point x="882" y="1147"/>
      <point x="950" y="1120"/>
      <point x="1011" y="1051" type="curve"/>
    </contour>
    <contour>
      <point x="787" y="165" type="curve" smooth="yes"/>
      <point x="692" y="165"/>
      <point x="615" y="200"/>
      <point x="562" y="267" type="curve"/>
      <point x="1063" y="901" type="line"/>
      <point x="1099" y="837"/>
      <point x="1116" y="758"/>
      <point x="1116" y="667" type="curve" smooth="yes"/>
      <point x="1116" y="365"/>
      <point x="1025" y="165"/>
    </contour>
  </outline>
</glyph>
